<svg width="352" height="370" viewBox="0 0 352 370" fill="none" xmlns="http://www.w3.org/2000/svg">
<g filter="url(#filter0_d)">
<path d="M16 30C16 18.9543 24.9543 10 36 10H316C327.046 10 336 18.9543 336 30V328C336 339.046 327.046 348 316 348H36C24.9543 348 16 339.046 16 328V30Z" fill="white"/>
</g>
<path d="M67.4275 69.7356L58.0532 64.381L57.7973 64.7737C54.91 69.2028 55.5548 75.0033 59.3475 78.7195C63.8107 83.0925 71.0468 83.0925 75.5099 78.7195C79.3026 75.0033 79.9474 69.2028 77.0602 64.7737L76.8041 64.3809L67.4275 69.7356Z" fill="url(#paint0_radial)"/>
<path opacity="0.6" d="M67.4401 57.7754L59.3594 62.3959L67.4401 67.0107L75.515 62.396L67.4401 57.7754Z" fill="url(#paint1_radial)"/>
<path d="M67.4504 58.9805L58.0605 64.3833L67.4294 69.7404L76.807 64.3816L67.4504 58.9805Z" fill="url(#paint2_diamond)"/>
<path d="M67.4401 50.0078L59.3594 62.3982L67.4401 67.0129V50.0078Z" fill="url(#paint3_linear)"/>
<path d="M67.4395 67.012L75.5209 62.3965L67.4399 50L67.4395 67.012Z" fill="url(#paint4_linear)"/>
<path d="M96.2227 59.1163H99.0145V71.0982H105.878V73.7737H96.2227V59.1163Z" fill="#273852"/>
<path d="M118.082 59.1163H120.874V73.7737H118.082V59.1163Z" fill="#273852"/>
<path d="M134.239 59.1163H138.892C139.854 59.1163 140.769 59.318 141.637 59.7212C142.506 60.109 143.274 60.6364 143.941 61.3033C144.608 61.9703 145.135 62.7458 145.523 63.6299C145.911 64.514 146.104 65.4524 146.104 66.445C146.104 67.4377 145.911 68.3761 145.523 69.2602C145.135 70.1443 144.608 70.9198 143.941 71.5868C143.274 72.2537 142.506 72.7888 141.637 73.1921C140.769 73.5798 139.854 73.7737 138.892 73.7737H134.239V59.1163ZM138.892 71.0982C139.466 71.0982 140.017 70.9741 140.544 70.7259C141.087 70.4778 141.56 70.1443 141.963 69.7255C142.382 69.3067 142.708 68.8181 142.94 68.2598C143.189 67.6859 143.313 67.081 143.313 66.445C143.313 65.8091 143.189 65.2119 142.94 64.6536C142.708 64.0797 142.382 63.5833 141.963 63.1646C141.56 62.7458 141.087 62.4123 140.544 62.1641C140.017 61.916 139.466 61.7919 138.892 61.7919H137.031V71.0982H138.892Z" fill="#273852"/>
<path d="M164.948 73.8901C163.986 73.8901 163.071 73.7039 162.202 73.3317C161.349 72.9439 160.597 72.4166 159.946 71.7496C159.31 71.0672 158.798 70.2761 158.41 69.3765C158.038 68.4769 157.852 67.4997 157.852 66.445C157.852 65.4058 158.038 64.4364 158.41 63.5368C158.798 62.6217 159.31 61.8307 159.946 61.1637C160.597 60.4813 161.349 59.9539 162.202 59.5816C163.071 59.1939 163.986 59 164.948 59C165.909 59 166.817 59.1939 167.67 59.5816C168.538 59.9539 169.291 60.4813 169.927 61.1637C170.578 61.8307 171.09 62.6217 171.462 63.5368C171.85 64.4364 172.044 65.4058 172.044 66.445C172.044 67.4997 171.85 68.4769 171.462 69.3765C171.09 70.2761 170.578 71.0672 169.927 71.7496C169.291 72.4166 168.538 72.9439 167.67 73.3317C166.817 73.7039 165.909 73.8901 164.948 73.8901ZM164.948 71.2145C165.522 71.2145 166.072 71.0982 166.6 70.8655C167.127 70.6329 167.584 70.3071 167.972 69.8884C168.36 69.4541 168.67 68.95 168.903 68.3761C169.136 67.7867 169.252 67.143 169.252 66.445C169.252 65.7471 169.136 65.1111 168.903 64.5372C168.67 63.9478 168.36 63.4438 167.972 63.025C167.584 62.5907 167.127 62.2572 166.6 62.0245C166.072 61.7919 165.522 61.6756 164.948 61.6756C164.358 61.6756 163.8 61.7919 163.273 62.0245C162.761 62.2572 162.311 62.5907 161.923 63.025C161.535 63.4438 161.225 63.9478 160.993 64.5372C160.76 65.1111 160.644 65.7471 160.644 66.445C160.644 67.143 160.76 67.7867 160.993 68.3761C161.225 68.95 161.535 69.4541 161.923 69.8884C162.311 70.3071 162.761 70.6329 163.273 70.8655C163.8 71.0982 164.358 71.2145 164.948 71.2145Z" fill="#273852"/>
<path d="M62.84 125.3C61.78 125.3 60.8167 125.11 59.95 124.73C59.09 124.35 58.3867 123.807 57.84 123.1C57.2933 122.393 56.9467 121.56 56.8 120.6L59.64 120.18C59.7733 120.72 60.0033 121.187 60.33 121.58C60.6567 121.967 61.05 122.26 61.51 122.46C61.9767 122.66 62.48 122.76 63.02 122.76C63.48 122.76 63.92 122.69 64.34 122.55C64.76 122.403 65.1 122.19 65.36 121.91C65.6267 121.63 65.76 121.3 65.76 120.92C65.76 120.6 65.6567 120.32 65.45 120.08C65.2433 119.84 64.88 119.64 64.36 119.48L60.62 118.38C60.0733 118.227 59.57 118.03 59.11 117.79C58.6567 117.55 58.25 117.17 57.89 116.65C57.5367 116.13 57.36 115.453 57.36 114.62C57.36 113.693 57.5933 112.907 58.06 112.26C58.5333 111.613 59.17 111.13 59.97 110.81C60.7767 110.483 61.68 110.32 62.68 110.32C64.1867 110.32 65.4433 110.687 66.45 111.42C67.4633 112.147 68.1467 113.187 68.5 114.54L65.56 115.04C65.4533 114.573 65.25 114.177 64.95 113.85C64.6567 113.523 64.3033 113.277 63.89 113.11C63.4833 112.943 63.05 112.86 62.59 112.86C62.17 112.86 61.78 112.927 61.42 113.06C61.06 113.193 60.77 113.383 60.55 113.63C60.33 113.877 60.22 114.16 60.22 114.48C60.22 114.9 60.3933 115.223 60.74 115.45C61.0867 115.677 61.5533 115.867 62.14 116.02L64.64 116.7C65.3533 116.893 65.9833 117.117 66.53 117.37C67.0833 117.623 67.57 118.023 67.99 118.57C68.41 119.117 68.62 119.833 68.62 120.72C68.62 121.707 68.35 122.547 67.81 123.24C67.2767 123.927 66.57 124.443 65.69 124.79C64.81 125.13 63.86 125.3 62.84 125.3ZM75.978 113.9C76.9913 113.9 77.8846 114.143 78.658 114.63C79.438 115.117 80.038 115.793 80.458 116.66C80.8846 117.527 81.098 118.507 81.098 119.6C81.098 120.673 80.888 121.643 80.468 122.51C80.0546 123.377 79.468 124.06 78.708 124.56C77.9546 125.053 77.0913 125.3 76.118 125.3C75.1313 125.3 74.2713 125.07 73.538 124.61V129.8H70.798V114.2H73.198V114.8C73.9646 114.2 74.8913 113.9 75.978 113.9ZM75.678 122.88C76.518 122.88 77.1513 122.577 77.578 121.97C78.0046 121.357 78.218 120.567 78.218 119.6C78.218 118.98 78.1213 118.423 77.928 117.93C77.7346 117.437 77.4413 117.047 77.048 116.76C76.6546 116.467 76.1646 116.32 75.578 116.32C74.758 116.32 74.1546 116.61 73.768 117.19C73.388 117.77 73.198 118.573 73.198 119.6C73.198 121.787 74.0246 122.88 75.678 122.88ZM86.8584 114.72C87.4651 114.347 88.1851 114.16 89.0184 114.16C89.2451 114.16 89.4518 114.173 89.6384 114.2V116.74C89.4318 116.673 89.1751 116.64 88.8684 116.64C88.3618 116.64 87.9118 116.733 87.5184 116.92C87.0384 117.14 86.6718 117.467 86.4184 117.9C86.1651 118.333 86.0384 118.86 86.0384 119.48V125H83.2984V114.2H85.6984V115.94C85.9984 115.4 86.3851 114.993 86.8584 114.72ZM93.6753 120.36C93.7753 121.133 94.0386 121.727 94.4653 122.14C94.8986 122.553 95.4786 122.76 96.2053 122.76C96.732 122.76 97.1853 122.643 97.5653 122.41C97.952 122.177 98.2453 121.84 98.4453 121.4L101.165 122.18C100.899 122.827 100.522 123.387 100.035 123.86C99.5486 124.327 98.9886 124.683 98.3553 124.93C97.722 125.177 97.0586 125.3 96.3653 125.3C95.272 125.3 94.2986 125.063 93.4453 124.59C92.5986 124.117 91.9353 123.457 91.4553 122.61C90.982 121.763 90.7453 120.807 90.7453 119.74C90.7453 118.58 90.9753 117.56 91.4353 116.68C91.902 115.793 92.5486 115.11 93.3753 114.63C94.202 114.143 95.1453 113.9 96.2053 113.9C97.2453 113.9 98.1486 114.13 98.9153 114.59C99.682 115.05 100.269 115.703 100.675 116.55C101.089 117.397 101.295 118.39 101.295 119.53C101.295 119.71 101.282 119.987 101.255 120.36H93.6753ZM96.3253 116.26C94.892 116.26 94.032 116.953 93.7453 118.34H98.5053C98.412 117.613 98.1886 117.087 97.8353 116.76C97.4886 116.427 96.9853 116.26 96.3253 116.26ZM111.938 115.86C112.131 116.22 112.251 116.587 112.298 116.96C112.351 117.327 112.378 117.807 112.378 118.4V125H109.998V123.68C109.518 124.253 108.991 124.667 108.418 124.92C107.845 125.173 107.145 125.3 106.318 125.3C105.571 125.3 104.925 125.157 104.378 124.87C103.838 124.577 103.425 124.18 103.138 123.68C102.858 123.18 102.718 122.627 102.718 122.02C102.718 121.233 102.901 120.57 103.268 120.03C103.635 119.49 104.238 119.067 105.078 118.76C105.545 118.587 106.115 118.44 106.788 118.32C107.461 118.193 108.431 118.037 109.698 117.85C109.645 117.343 109.458 116.973 109.138 116.74C108.825 116.5 108.351 116.38 107.718 116.38C107.258 116.38 106.821 116.487 106.408 116.7C105.995 116.913 105.711 117.247 105.558 117.7L103.098 116.92C103.378 115.987 103.905 115.25 104.678 114.71C105.451 114.17 106.465 113.9 107.718 113.9C109.845 113.9 111.251 114.553 111.938 115.86ZM109.398 121.72C109.571 121.367 109.665 120.81 109.678 120.05C108.738 120.21 108.048 120.337 107.608 120.43C107.168 120.523 106.798 120.627 106.498 120.74C106.105 120.9 105.818 121.08 105.638 121.28C105.465 121.473 105.378 121.707 105.378 121.98C105.378 122.347 105.511 122.637 105.778 122.85C106.051 123.057 106.425 123.16 106.898 123.16C107.358 123.16 107.761 123.08 108.108 122.92C108.455 122.753 108.731 122.56 108.938 122.34C109.151 122.12 109.305 121.913 109.398 121.72ZM121.938 110.6H124.678V125H122.278V124.38C121.471 124.993 120.498 125.3 119.358 125.3C118.385 125.3 117.518 125.053 116.758 124.56C116.005 124.06 115.418 123.377 114.998 122.51C114.585 121.643 114.378 120.673 114.378 119.6C114.378 118.507 114.588 117.527 115.008 116.66C115.435 115.793 116.035 115.117 116.808 114.63C117.588 114.143 118.485 113.9 119.498 113.9C120.425 113.9 121.238 114.12 121.938 114.56V110.6ZM119.798 122.88C121.451 122.88 122.278 121.787 122.278 119.6C122.278 118.573 122.085 117.77 121.698 117.19C121.318 116.61 120.718 116.32 119.898 116.32C119.311 116.32 118.821 116.467 118.428 116.76C118.035 117.047 117.741 117.437 117.548 117.93C117.355 118.423 117.258 118.98 117.258 119.6C117.258 120.567 117.471 121.357 117.898 121.97C118.325 122.577 118.958 122.88 119.798 122.88ZM134.842 116.3V120.26V120.83C134.842 121.177 134.855 121.457 134.882 121.67C134.909 121.883 134.969 122.06 135.062 122.2C135.335 122.633 135.875 122.85 136.682 122.85C136.989 122.85 137.415 122.813 137.962 122.74V125C137.269 125.127 136.622 125.19 136.022 125.19C135.209 125.19 134.502 125.07 133.902 124.83C133.302 124.583 132.855 124.193 132.562 123.66C132.382 123.327 132.262 122.987 132.202 122.64C132.142 122.293 132.112 121.883 132.112 121.41L132.122 120.42V116.3H130.282V114.2H132.122V111.2H134.842V114.2H137.962V116.3H134.842ZM146.269 113.88C147.535 113.88 148.479 114.203 149.099 114.85C149.725 115.497 150.112 116.18 150.259 116.9C150.412 117.62 150.489 118.3 150.489 118.94V125H147.729V119.9C147.729 119.353 147.689 118.84 147.609 118.36C147.529 117.88 147.315 117.44 146.969 117.04C146.629 116.64 146.109 116.44 145.409 116.44C144.782 116.44 144.242 116.657 143.789 117.09C143.335 117.517 143.109 118.327 143.109 119.52V125H140.349V110.6H142.769V115.31C143.175 114.857 143.672 114.507 144.259 114.26C144.845 114.007 145.515 113.88 146.269 113.88ZM155.414 120.36C155.514 121.133 155.777 121.727 156.204 122.14C156.637 122.553 157.217 122.76 157.944 122.76C158.47 122.76 158.924 122.643 159.304 122.41C159.69 122.177 159.984 121.84 160.184 121.4L162.904 122.18C162.637 122.827 162.26 123.387 161.774 123.86C161.287 124.327 160.727 124.683 160.094 124.93C159.46 125.177 158.797 125.3 158.104 125.3C157.01 125.3 156.037 125.063 155.184 124.59C154.337 124.117 153.674 123.457 153.194 122.61C152.72 121.763 152.484 120.807 152.484 119.74C152.484 118.58 152.714 117.56 153.174 116.68C153.64 115.793 154.287 115.11 155.114 114.63C155.94 114.143 156.884 113.9 157.944 113.9C158.984 113.9 159.887 114.13 160.654 114.59C161.42 115.05 162.007 115.703 162.414 116.55C162.827 117.397 163.034 118.39 163.034 119.53C163.034 119.71 163.02 119.987 162.994 120.36H155.414ZM158.064 116.26C156.63 116.26 155.77 116.953 155.484 118.34H160.244C160.15 117.613 159.927 117.087 159.574 116.76C159.227 116.427 158.724 116.26 158.064 116.26ZM174.415 113.9C175.429 113.9 176.322 114.143 177.095 114.63C177.875 115.117 178.475 115.793 178.895 116.66C179.322 117.527 179.535 118.507 179.535 119.6C179.535 120.673 179.325 121.643 178.905 122.51C178.492 123.377 177.905 124.06 177.145 124.56C176.392 125.053 175.529 125.3 174.555 125.3C173.569 125.3 172.709 125.07 171.975 124.61V129.8H169.235V114.2H171.635V114.8C172.402 114.2 173.329 113.9 174.415 113.9ZM174.115 122.88C174.955 122.88 175.589 122.577 176.015 121.97C176.442 121.357 176.655 120.567 176.655 119.6C176.655 118.98 176.559 118.423 176.365 117.93C176.172 117.437 175.879 117.047 175.485 116.76C175.092 116.467 174.602 116.32 174.015 116.32C173.195 116.32 172.592 116.61 172.205 117.19C171.825 117.77 171.635 118.573 171.635 119.6C171.635 121.787 172.462 122.88 174.115 122.88ZM186.596 125.3C185.523 125.3 184.573 125.06 183.746 124.58C182.919 124.093 182.276 123.42 181.816 122.56C181.363 121.693 181.136 120.707 181.136 119.6C181.136 118.487 181.366 117.5 181.826 116.64C182.293 115.773 182.939 115.1 183.766 114.62C184.599 114.14 185.543 113.9 186.596 113.9C187.669 113.9 188.619 114.143 189.446 114.63C190.279 115.11 190.926 115.783 191.386 116.65C191.846 117.517 192.076 118.5 192.076 119.6C192.076 120.707 191.843 121.693 191.376 122.56C190.916 123.42 190.269 124.093 189.436 124.58C188.609 125.06 187.663 125.3 186.596 125.3ZM186.596 122.76C187.443 122.76 188.086 122.473 188.526 121.9C188.973 121.327 189.196 120.56 189.196 119.6C189.196 118.62 188.973 117.85 188.526 117.29C188.079 116.723 187.436 116.44 186.596 116.44C185.736 116.44 185.089 116.723 184.656 117.29C184.229 117.85 184.016 118.62 184.016 119.6C184.016 120.587 184.236 121.36 184.676 121.92C185.123 122.48 185.763 122.76 186.596 122.76ZM198.264 125H196.184L192.884 114.18L195.544 114.2L197.504 120.64L199.494 114.2H201.754L203.744 120.64L205.704 114.2H208.364L205.064 125H202.984L200.624 117.96L198.264 125ZM212.113 120.36C212.213 121.133 212.476 121.727 212.903 122.14C213.336 122.553 213.916 122.76 214.643 122.76C215.169 122.76 215.623 122.643 216.003 122.41C216.389 122.177 216.683 121.84 216.883 121.4L219.603 122.18C219.336 122.827 218.959 123.387 218.473 123.86C217.986 124.327 217.426 124.683 216.793 124.93C216.159 125.177 215.496 125.3 214.803 125.3C213.709 125.3 212.736 125.063 211.883 124.59C211.036 124.117 210.373 123.457 209.893 122.61C209.419 121.763 209.183 120.807 209.183 119.74C209.183 118.58 209.413 117.56 209.873 116.68C210.339 115.793 210.986 115.11 211.813 114.63C212.639 114.143 213.583 113.9 214.643 113.9C215.683 113.9 216.586 114.13 217.353 114.59C218.119 115.05 218.706 115.703 219.113 116.55C219.526 117.397 219.733 118.39 219.733 119.53C219.733 119.71 219.719 119.987 219.693 120.36H212.113ZM214.763 116.26C213.329 116.26 212.469 116.953 212.183 118.34H216.943C216.849 117.613 216.626 117.087 216.273 116.76C215.926 116.427 215.423 116.26 214.763 116.26ZM225.511 114.72C226.117 114.347 226.837 114.16 227.671 114.16C227.897 114.16 228.104 114.173 228.291 114.2V116.74C228.084 116.673 227.827 116.64 227.521 116.64C227.014 116.64 226.564 116.733 226.171 116.92C225.691 117.14 225.324 117.467 225.071 117.9C224.817 118.333 224.691 118.86 224.691 119.48V125H221.951V114.2H224.351V115.94C224.651 115.4 225.037 114.993 225.511 114.72ZM239.057 125.3C237.984 125.3 237.034 125.06 236.207 124.58C235.38 124.093 234.737 123.42 234.277 122.56C233.824 121.693 233.597 120.707 233.597 119.6C233.597 118.487 233.827 117.5 234.287 116.64C234.754 115.773 235.4 115.1 236.227 114.62C237.06 114.14 238.004 113.9 239.057 113.9C240.13 113.9 241.08 114.143 241.907 114.63C242.74 115.11 243.387 115.783 243.847 116.65C244.307 117.517 244.537 118.5 244.537 119.6C244.537 120.707 244.304 121.693 243.837 122.56C243.377 123.42 242.73 124.093 241.897 124.58C241.07 125.06 240.124 125.3 239.057 125.3ZM239.057 122.76C239.904 122.76 240.547 122.473 240.987 121.9C241.434 121.327 241.657 120.56 241.657 119.6C241.657 118.62 241.434 117.85 240.987 117.29C240.54 116.723 239.897 116.44 239.057 116.44C238.197 116.44 237.55 116.723 237.117 117.29C236.69 117.85 236.477 118.62 236.477 119.6C236.477 120.587 236.697 121.36 237.137 121.92C237.584 122.48 238.224 122.76 239.057 122.76ZM251.616 112.5C251.203 112.5 250.889 112.603 250.676 112.81C250.463 113.017 250.356 113.28 250.356 113.6V114.2H252.856V116.3H250.356V125H247.636V116.3H245.936V114.2H247.636C247.636 113.747 247.643 113.383 247.656 113.11C247.676 112.83 247.739 112.523 247.846 112.19C247.953 111.857 248.123 111.56 248.356 111.3C248.723 110.893 249.129 110.627 249.576 110.5C250.029 110.367 250.523 110.3 251.056 110.3H251.516H252.856V112.5H251.616ZM66.8 155H57.4V140.6H66.8V143.14H60.12V146.22H65.6V148.76H60.12V152.46H66.8V155ZM72.5569 146.3V150.26V150.83C72.5569 151.177 72.5702 151.457 72.5969 151.67C72.6235 151.883 72.6835 152.06 72.7769 152.2C73.0502 152.633 73.5902 152.85 74.3969 152.85C74.7035 152.85 75.1302 152.813 75.6769 152.74V155C74.9835 155.127 74.3369 155.19 73.7369 155.19C72.9235 155.19 72.2169 155.07 71.6169 154.83C71.0169 154.583 70.5702 154.193 70.2769 153.66C70.0969 153.327 69.9769 152.987 69.9169 152.64C69.8569 152.293 69.8269 151.883 69.8269 151.41L69.8369 150.42V146.3H67.9969V144.2H69.8369V141.2H72.5569V144.2H75.6769V146.3H72.5569ZM83.9836 143.88C85.2503 143.88 86.1936 144.203 86.8136 144.85C87.4403 145.497 87.8269 146.18 87.9736 146.9C88.1269 147.62 88.2036 148.3 88.2036 148.94V155H85.4436V149.9C85.4436 149.353 85.4036 148.84 85.3236 148.36C85.2436 147.88 85.0303 147.44 84.6836 147.04C84.3436 146.64 83.8236 146.44 83.1236 146.44C82.4969 146.44 81.9569 146.657 81.5036 147.09C81.0503 147.517 80.8236 148.327 80.8236 149.52V155H78.0636V140.6H80.4836V145.31C80.8903 144.857 81.3869 144.507 81.9736 144.26C82.5603 144.007 83.2303 143.88 83.9836 143.88ZM93.1284 150.36C93.2284 151.133 93.4918 151.727 93.9184 152.14C94.3518 152.553 94.9318 152.76 95.6584 152.76C96.1851 152.76 96.6384 152.643 97.0184 152.41C97.4051 152.177 97.6984 151.84 97.8984 151.4L100.618 152.18C100.352 152.827 99.9751 153.387 99.4884 153.86C99.0018 154.327 98.4418 154.683 97.8084 154.93C97.1751 155.177 96.5118 155.3 95.8184 155.3C94.7251 155.3 93.7518 155.063 92.8984 154.59C92.0518 154.117 91.3884 153.457 90.9084 152.61C90.4351 151.763 90.1984 150.807 90.1984 149.74C90.1984 148.58 90.4284 147.56 90.8884 146.68C91.3551 145.793 92.0018 145.11 92.8284 144.63C93.6551 144.143 94.5984 143.9 95.6584 143.9C96.6984 143.9 97.6018 144.13 98.3684 144.59C99.1351 145.05 99.7218 145.703 100.128 146.55C100.542 147.397 100.748 148.39 100.748 149.53C100.748 149.71 100.735 149.987 100.708 150.36H93.1284ZM95.7784 146.26C94.3451 146.26 93.4851 146.953 93.1984 148.34H97.9584C97.8651 147.613 97.6418 147.087 97.2884 146.76C96.9418 146.427 96.4384 146.26 95.7784 146.26ZM106.526 144.72C107.133 144.347 107.853 144.16 108.686 144.16C108.913 144.16 109.12 144.173 109.306 144.2V146.74C109.1 146.673 108.843 146.64 108.536 146.64C108.03 146.64 107.58 146.733 107.186 146.92C106.706 147.14 106.34 147.467 106.086 147.9C105.833 148.333 105.706 148.86 105.706 149.48V155H102.966V144.2H105.366V145.94C105.666 145.4 106.053 144.993 106.526 144.72ZM113.343 150.36C113.443 151.133 113.707 151.727 114.133 152.14C114.567 152.553 115.147 152.76 115.873 152.76C116.4 152.76 116.853 152.643 117.233 152.41C117.62 152.177 117.913 151.84 118.113 151.4L120.833 152.18C120.567 152.827 120.19 153.387 119.703 153.86C119.217 154.327 118.657 154.683 118.023 154.93C117.39 155.177 116.727 155.3 116.033 155.3C114.94 155.3 113.967 155.063 113.113 154.59C112.267 154.117 111.603 153.457 111.123 152.61C110.65 151.763 110.413 150.807 110.413 149.74C110.413 148.58 110.643 147.56 111.103 146.68C111.57 145.793 112.217 145.11 113.043 144.63C113.87 144.143 114.813 143.9 115.873 143.9C116.913 143.9 117.817 144.13 118.583 144.59C119.35 145.05 119.937 145.703 120.343 146.55C120.757 147.397 120.963 148.39 120.963 149.53C120.963 149.71 120.95 149.987 120.923 150.36H113.343ZM115.993 146.26C114.56 146.26 113.7 146.953 113.413 148.34H118.173C118.08 147.613 117.857 147.087 117.503 146.76C117.157 146.427 116.653 146.26 115.993 146.26ZM130.361 144.2H133.101V155H130.701V153.89C130.295 154.343 129.798 154.697 129.211 154.95C128.625 155.197 127.955 155.32 127.201 155.32C125.935 155.32 124.988 154.997 124.361 154.35C123.741 153.703 123.355 153.02 123.201 152.3C123.055 151.58 122.981 150.9 122.981 150.26V144.2H125.741V149.3C125.741 149.847 125.781 150.36 125.861 150.84C125.941 151.32 126.151 151.76 126.491 152.16C126.838 152.56 127.361 152.76 128.061 152.76C128.688 152.76 129.228 152.547 129.681 152.12C130.135 151.687 130.361 150.873 130.361 149.68V144.2ZM147.876 143.94C148.683 143.94 149.366 144.103 149.926 144.43C150.486 144.757 150.906 145.22 151.186 145.82C151.473 146.413 151.616 147.107 151.616 147.9V155H148.896V148.62C148.896 147.913 148.726 147.36 148.386 146.96C148.053 146.56 147.589 146.36 146.996 146.36C146.623 146.36 146.293 146.45 146.006 146.63C145.726 146.803 145.506 147.05 145.346 147.37C145.193 147.683 145.116 148.047 145.116 148.46V155H142.396V148.62C142.396 147.913 142.226 147.36 141.886 146.96C141.553 146.56 141.089 146.36 140.496 146.36C140.123 146.36 139.793 146.45 139.506 146.63C139.226 146.803 139.006 147.05 138.846 147.37C138.693 147.683 138.616 148.047 138.616 148.46V155H135.876V144.2H138.276V145.38C138.643 144.927 139.099 144.573 139.646 144.32C140.199 144.067 140.796 143.94 141.436 143.94C142.183 143.94 142.819 144.09 143.346 144.39C143.873 144.683 144.283 145.093 144.576 145.62C144.929 145.093 145.396 144.683 145.976 144.39C146.556 144.09 147.189 143.94 147.876 143.94ZM162.44 155.3C161.08 155.3 159.98 154.993 159.14 154.38C158.307 153.767 157.8 152.893 157.62 151.76L160.4 151.34C160.514 151.853 160.764 152.253 161.15 152.54C161.544 152.82 162.04 152.96 162.64 152.96C163.127 152.96 163.504 152.867 163.77 152.68C164.044 152.487 164.18 152.22 164.18 151.88C164.18 151.653 164.124 151.48 164.01 151.36C163.904 151.233 163.677 151.11 163.33 150.99C162.99 150.87 162.407 150.7 161.58 150.48C160.687 150.253 159.98 150 159.46 149.72C158.94 149.44 158.564 149.107 158.33 148.72C158.097 148.333 157.98 147.86 157.98 147.3C157.98 146.613 158.157 146.013 158.51 145.5C158.864 144.987 159.364 144.593 160.01 144.32C160.657 144.04 161.414 143.9 162.28 143.9C163.12 143.9 163.867 144.03 164.52 144.29C165.18 144.55 165.71 144.923 166.11 145.41C166.517 145.89 166.767 146.453 166.86 147.1L164.08 147.6C164.034 147.2 163.86 146.883 163.56 146.65C163.26 146.417 162.854 146.28 162.34 146.24L162.13 146.23C161.69 146.23 161.337 146.313 161.07 146.48C160.81 146.647 160.68 146.873 160.68 147.16C160.68 147.353 160.747 147.513 160.88 147.64C161.014 147.76 161.274 147.887 161.66 148.02C162.047 148.147 162.68 148.32 163.56 148.54C164.387 148.753 165.047 149.003 165.54 149.29C166.034 149.57 166.394 149.907 166.62 150.3C166.847 150.693 166.96 151.173 166.96 151.74C166.96 152.473 166.78 153.11 166.42 153.65C166.06 154.183 165.54 154.593 164.86 154.88C164.18 155.16 163.374 155.3 162.44 155.3ZM172.518 146.3V150.26V150.83C172.518 151.177 172.531 151.457 172.558 151.67C172.584 151.883 172.644 152.06 172.738 152.2C173.011 152.633 173.551 152.85 174.358 152.85C174.664 152.85 175.091 152.813 175.638 152.74V155C174.944 155.127 174.298 155.19 173.698 155.19C172.884 155.19 172.178 155.07 171.578 154.83C170.978 154.583 170.531 154.193 170.238 153.66C170.058 153.327 169.938 152.987 169.878 152.64C169.818 152.293 169.788 151.883 169.788 151.41L169.798 150.42V146.3H167.958V144.2H169.798V141.2H172.518V144.2H175.638V146.3H172.518ZM186.665 145.86C186.858 146.22 186.978 146.587 187.025 146.96C187.078 147.327 187.105 147.807 187.105 148.4V155H184.725V153.68C184.245 154.253 183.718 154.667 183.145 154.92C182.571 155.173 181.871 155.3 181.045 155.3C180.298 155.3 179.651 155.157 179.105 154.87C178.565 154.577 178.151 154.18 177.865 153.68C177.585 153.18 177.445 152.627 177.445 152.02C177.445 151.233 177.628 150.57 177.995 150.03C178.361 149.49 178.965 149.067 179.805 148.76C180.271 148.587 180.841 148.44 181.515 148.32C182.188 148.193 183.158 148.037 184.425 147.85C184.371 147.343 184.185 146.973 183.865 146.74C183.551 146.5 183.078 146.38 182.445 146.38C181.985 146.38 181.548 146.487 181.135 146.7C180.721 146.913 180.438 147.247 180.285 147.7L177.825 146.92C178.105 145.987 178.631 145.25 179.405 144.71C180.178 144.17 181.191 143.9 182.445 143.9C184.571 143.9 185.978 144.553 186.665 145.86ZM184.125 151.72C184.298 151.367 184.391 150.81 184.405 150.05C183.465 150.21 182.775 150.337 182.335 150.43C181.895 150.523 181.525 150.627 181.225 150.74C180.831 150.9 180.545 151.08 180.365 151.28C180.191 151.473 180.105 151.707 180.105 151.98C180.105 152.347 180.238 152.637 180.505 152.85C180.778 153.057 181.151 153.16 181.625 153.16C182.085 153.16 182.488 153.08 182.835 152.92C183.181 152.753 183.458 152.56 183.665 152.34C183.878 152.12 184.031 151.913 184.125 151.72ZM192.465 155H189.685L189.705 140.6H192.465V149.4L196.125 144.2H199.485L195.585 149.6L199.745 155H196.205L192.465 149.8V155ZM203.66 142.7H200.94V140.3H203.66V142.7ZM203.66 155H200.94V144.2H203.66V155ZM212.558 143.88C213.824 143.88 214.768 144.203 215.388 144.85C216.014 145.497 216.401 146.18 216.548 146.9C216.701 147.62 216.778 148.3 216.778 148.94V155H214.018V149.9C214.018 149.353 213.978 148.84 213.898 148.36C213.818 147.88 213.604 147.44 213.258 147.04C212.918 146.64 212.398 146.44 211.698 146.44C211.071 146.44 210.531 146.657 210.078 147.09C209.624 147.517 209.398 148.327 209.398 149.52V155H206.638V144.2H209.058V145.31C209.464 144.857 209.961 144.507 210.548 144.26C211.134 144.007 211.804 143.88 212.558 143.88ZM226.673 144.2H229.053V155.74C229.053 156.307 228.999 156.793 228.893 157.2C228.639 158.153 228.069 158.873 227.183 159.36C226.303 159.853 225.239 160.1 223.993 160.1C223.086 160.1 222.246 159.887 221.473 159.46C220.699 159.033 220.106 158.467 219.693 157.76L222.213 156.54C222.379 156.853 222.623 157.093 222.943 157.26C223.269 157.433 223.626 157.52 224.013 157.52C224.433 157.52 224.819 157.45 225.173 157.31C225.533 157.17 225.819 156.963 226.033 156.69C226.246 156.417 226.346 156.087 226.333 155.7V154.61C225.599 155.07 224.739 155.3 223.753 155.3C222.779 155.3 221.913 155.053 221.153 154.56C220.399 154.06 219.813 153.377 219.393 152.51C218.979 151.643 218.773 150.673 218.773 149.6C218.773 148.507 218.983 147.527 219.403 146.66C219.829 145.793 220.429 145.117 221.203 144.63C221.983 144.143 222.879 143.9 223.893 143.9C224.979 143.9 225.906 144.2 226.673 144.8V144.2ZM224.193 152.88C225.846 152.88 226.673 151.787 226.673 149.6C226.673 148.573 226.479 147.77 226.093 147.19C225.713 146.61 225.113 146.32 224.293 146.32C223.706 146.32 223.216 146.467 222.823 146.76C222.429 147.047 222.136 147.437 221.943 147.93C221.749 148.423 221.653 148.98 221.653 149.6C221.653 150.567 221.866 151.357 222.293 151.97C222.719 152.577 223.353 152.88 224.193 152.88Z" fill="#273852"/>
<path opacity="0.8" d="M63.35 186H56.98V175.92H63.35V177.103H58.226V180.26H62.51V181.443H58.226V184.817H63.35V186ZM70.8427 179.707C70.9407 179.922 71.0061 180.16 71.0387 180.421C71.0714 180.678 71.0877 180.979 71.0877 181.324V186H69.9817V184.824C69.3797 185.748 68.4464 186.21 67.1817 186.21C66.6357 186.21 66.1691 186.11 65.7817 185.909C65.3944 185.704 65.1027 185.431 64.9067 185.09C64.7107 184.749 64.6127 184.371 64.6127 183.956C64.6127 182.841 65.2311 182.101 66.4677 181.737C66.8317 181.639 67.2494 181.553 67.7207 181.478C68.1921 181.403 68.7567 181.322 69.4147 181.233L69.8627 181.17C69.8441 180.559 69.6901 180.111 69.4007 179.826C69.1114 179.537 68.6447 179.392 68.0007 179.392C67.5247 179.392 67.1164 179.502 66.7757 179.721C66.4397 179.936 66.2064 180.267 66.0757 180.715L64.8927 180.358C65.0747 179.681 65.4294 179.159 65.9567 178.79C66.4887 178.417 67.1747 178.23 68.0147 178.23C68.7101 178.23 69.3004 178.356 69.7857 178.608C70.2757 178.855 70.6281 179.222 70.8427 179.707ZM67.3707 185.167C67.8047 185.167 68.1874 185.09 68.5187 184.936C68.8501 184.777 69.1184 184.567 69.3237 184.306C69.5291 184.04 69.6621 183.746 69.7227 183.424C69.7694 183.265 69.7997 183.088 69.8137 182.892C69.8324 182.696 69.8441 182.477 69.8487 182.234L69.5057 182.276C68.8477 182.365 68.3414 182.437 67.9867 182.493C67.6367 182.549 67.3171 182.619 67.0277 182.703C66.6684 182.815 66.3814 182.969 66.1667 183.165C65.9567 183.361 65.8517 183.622 65.8517 183.949C65.8517 184.168 65.9054 184.371 66.0127 184.558C66.1201 184.74 66.2881 184.887 66.5167 184.999C66.7454 185.111 67.0301 185.167 67.3707 185.167ZM74.6647 178.902C74.8747 178.734 75.1221 178.606 75.4067 178.517C75.6914 178.428 75.9784 178.384 76.2677 178.384C76.4497 178.384 76.6294 178.403 76.8067 178.44V179.609C76.6107 179.562 76.4217 179.539 76.2397 179.539C75.7871 179.539 75.3997 179.658 75.0777 179.896C74.7371 180.139 74.4991 180.458 74.3637 180.855C74.2284 181.247 74.1607 181.697 74.1607 182.206V186H72.9077V178.44H74.0207V179.637C74.1981 179.329 74.4127 179.084 74.6647 178.902ZM81.7634 178.244C82.5194 178.244 83.1214 178.431 83.5694 178.804C84.0174 179.177 84.3301 179.635 84.5074 180.176C84.6847 180.713 84.7734 181.261 84.7734 181.821V186H83.5134V182.213C83.5134 181.401 83.3547 180.734 83.0374 180.211C82.7247 179.688 82.1997 179.427 81.4624 179.427C80.8184 179.427 80.3097 179.646 79.9364 180.085C79.5677 180.519 79.3834 181.163 79.3834 182.017V186H78.1234V178.44H79.2434V179.413C79.5281 179.035 79.8827 178.746 80.3074 178.545C80.7367 178.344 81.2221 178.244 81.7634 178.244ZM91.153 178.902C91.363 178.734 91.6103 178.606 91.895 178.517C92.1797 178.428 92.4667 178.384 92.756 178.384C92.938 178.384 93.1177 178.403 93.295 178.44V179.609C93.099 179.562 92.91 179.539 92.728 179.539C92.2753 179.539 91.888 179.658 91.566 179.896C91.2253 180.139 90.9873 180.458 90.852 180.855C90.7167 181.247 90.649 181.697 90.649 182.206V186H89.396V178.44H90.509V179.637C90.6863 179.329 90.901 179.084 91.153 178.902ZM95.399 182.57C95.4503 183.359 95.672 183.965 96.064 184.39C96.4606 184.815 97.0066 185.027 97.702 185.027C98.1966 185.027 98.6283 184.913 98.997 184.684C99.3703 184.455 99.662 184.126 99.872 183.697L101.069 184.11C100.775 184.773 100.334 185.288 99.746 185.657C99.158 186.026 98.4953 186.21 97.758 186.21C97.0206 186.21 96.372 186.047 95.812 185.72C95.2566 185.393 94.825 184.931 94.517 184.334C94.2136 183.737 94.062 183.048 94.062 182.269C94.062 181.452 94.2113 180.741 94.51 180.134C94.8133 179.523 95.238 179.054 95.784 178.727C96.3346 178.396 96.974 178.23 97.702 178.23C98.4253 178.23 99.0483 178.393 99.571 178.72C100.098 179.042 100.502 179.506 100.782 180.113C101.062 180.715 101.202 181.431 101.202 182.262C101.202 182.397 101.2 182.5 101.195 182.57H95.399ZM97.744 179.35C97.0673 179.35 96.533 179.539 96.141 179.917C95.749 180.295 95.5086 180.846 95.42 181.569H99.9C99.746 180.09 99.0273 179.35 97.744 179.35ZM105.126 186H104.09L101.78 178.433L103.019 178.44L104.706 183.97L106.407 178.44H107.506L109.2 183.97L110.894 178.44H112.126L109.816 186H108.78L106.953 180.253L105.126 186ZM118.776 179.707C118.874 179.922 118.94 180.16 118.972 180.421C119.005 180.678 119.021 180.979 119.021 181.324V186H117.915V184.824C117.313 185.748 116.38 186.21 115.115 186.21C114.569 186.21 114.103 186.11 113.715 185.909C113.328 185.704 113.036 185.431 112.84 185.09C112.644 184.749 112.546 184.371 112.546 183.956C112.546 182.841 113.165 182.101 114.401 181.737C114.765 181.639 115.183 181.553 115.654 181.478C116.126 181.403 116.69 181.322 117.348 181.233L117.796 181.17C117.778 180.559 117.624 180.111 117.334 179.826C117.045 179.537 116.578 179.392 115.934 179.392C115.458 179.392 115.05 179.502 114.709 179.721C114.373 179.936 114.14 180.267 114.009 180.715L112.826 180.358C113.008 179.681 113.363 179.159 113.89 178.79C114.422 178.417 115.108 178.23 115.948 178.23C116.644 178.23 117.234 178.356 117.719 178.608C118.209 178.855 118.562 179.222 118.776 179.707ZM115.304 185.167C115.738 185.167 116.121 185.09 116.452 184.936C116.784 184.777 117.052 184.567 117.257 184.306C117.463 184.04 117.596 183.746 117.656 183.424C117.703 183.265 117.733 183.088 117.747 182.892C117.766 182.696 117.778 182.477 117.782 182.234L117.439 182.276C116.781 182.365 116.275 182.437 115.92 182.493C115.57 182.549 115.251 182.619 114.961 182.703C114.602 182.815 114.315 182.969 114.1 183.165C113.89 183.361 113.785 183.622 113.785 183.949C113.785 184.168 113.839 184.371 113.946 184.558C114.054 184.74 114.222 184.887 114.45 184.999C114.679 185.111 114.964 185.167 115.304 185.167ZM122.598 178.902C122.808 178.734 123.056 178.606 123.34 178.517C123.625 178.428 123.912 178.384 124.201 178.384C124.383 178.384 124.563 178.403 124.74 178.44V179.609C124.544 179.562 124.355 179.539 124.173 179.539C123.721 179.539 123.333 179.658 123.011 179.896C122.671 180.139 122.433 180.458 122.297 180.855C122.162 181.247 122.094 181.697 122.094 182.206V186H120.841V178.44H121.954V179.637C122.132 179.329 122.346 179.084 122.598 178.902ZM131.121 175.92H132.374V186H131.261V185.146C130.977 185.487 130.636 185.75 130.239 185.937C129.843 186.119 129.395 186.21 128.895 186.21C128.205 186.21 127.603 186.037 127.089 185.692C126.581 185.342 126.189 184.866 125.913 184.264C125.643 183.657 125.507 182.974 125.507 182.213C125.507 181.457 125.643 180.778 125.913 180.176C126.189 179.569 126.581 179.093 127.089 178.748C127.603 178.403 128.202 178.23 128.888 178.23C129.35 178.23 129.768 178.307 130.141 178.461C130.519 178.615 130.846 178.837 131.121 179.126V175.92ZM129.049 185.069C129.782 185.069 130.333 184.81 130.701 184.292C131.075 183.774 131.261 183.081 131.261 182.213C131.261 181.345 131.077 180.654 130.708 180.141C130.34 179.628 129.798 179.371 129.084 179.371C128.59 179.371 128.172 179.495 127.831 179.742C127.495 179.989 127.243 180.328 127.075 180.757C126.912 181.182 126.83 181.667 126.83 182.213C126.83 182.764 126.912 183.254 127.075 183.683C127.243 184.112 127.493 184.451 127.824 184.698C128.16 184.945 128.569 185.069 129.049 185.069ZM137.191 186.203C136.594 186.203 136.064 186.114 135.602 185.937C135.14 185.76 134.765 185.503 134.475 185.167C134.186 184.831 133.999 184.427 133.915 183.956L135.189 183.753C135.292 184.168 135.528 184.495 135.896 184.733C136.265 184.971 136.722 185.09 137.268 185.09C137.782 185.09 138.185 184.985 138.479 184.775C138.778 184.56 138.927 184.266 138.927 183.893C138.927 183.669 138.876 183.494 138.773 183.368C138.675 183.242 138.482 183.123 138.192 183.011C137.903 182.894 137.436 182.75 136.792 182.577C136.116 182.395 135.588 182.211 135.21 182.024C134.832 181.833 134.562 181.613 134.398 181.366C134.235 181.119 134.153 180.811 134.153 180.442C134.153 180.003 134.275 179.618 134.517 179.287C134.76 178.951 135.101 178.692 135.539 178.51C135.978 178.323 136.484 178.23 137.058 178.23C137.628 178.23 138.139 178.323 138.591 178.51C139.049 178.692 139.415 178.951 139.69 179.287C139.97 179.618 140.136 180.003 140.187 180.442L138.913 180.673C138.853 180.262 138.647 179.938 138.297 179.7C137.952 179.462 137.509 179.343 136.967 179.343C136.659 179.343 136.386 179.387 136.148 179.476C135.915 179.56 135.733 179.681 135.602 179.84C135.472 179.994 135.406 180.174 135.406 180.379C135.406 180.57 135.462 180.729 135.574 180.855C135.691 180.981 135.901 181.102 136.204 181.219C136.508 181.331 136.963 181.464 137.569 181.618C138.246 181.791 138.773 181.975 139.151 182.171C139.529 182.367 139.8 182.598 139.963 182.864C140.131 183.13 140.215 183.461 140.215 183.858C140.215 184.343 140.094 184.763 139.851 185.118C139.609 185.468 139.261 185.736 138.808 185.923C138.356 186.11 137.817 186.203 137.191 186.203ZM150.372 179.707C150.47 179.922 150.535 180.16 150.568 180.421C150.601 180.678 150.617 180.979 150.617 181.324V186H149.511V184.824C148.909 185.748 147.976 186.21 146.711 186.21C146.165 186.21 145.698 186.11 145.311 185.909C144.924 185.704 144.632 185.431 144.436 185.09C144.24 184.749 144.142 184.371 144.142 183.956C144.142 182.841 144.76 182.101 145.997 181.737C146.361 181.639 146.779 181.553 147.25 181.478C147.721 181.403 148.286 181.322 148.944 181.233L149.392 181.17C149.373 180.559 149.219 180.111 148.93 179.826C148.641 179.537 148.174 179.392 147.53 179.392C147.054 179.392 146.646 179.502 146.305 179.721C145.969 179.936 145.736 180.267 145.605 180.715L144.422 180.358C144.604 179.681 144.959 179.159 145.486 178.79C146.018 178.417 146.704 178.23 147.544 178.23C148.239 178.23 148.83 178.356 149.315 178.608C149.805 178.855 150.157 179.222 150.372 179.707ZM146.9 185.167C147.334 185.167 147.717 185.09 148.048 184.936C148.379 184.777 148.648 184.567 148.853 184.306C149.058 184.04 149.191 183.746 149.252 183.424C149.299 183.265 149.329 183.088 149.343 182.892C149.362 182.696 149.373 182.477 149.378 182.234L149.035 182.276C148.377 182.365 147.871 182.437 147.516 182.493C147.166 182.549 146.846 182.619 146.557 182.703C146.198 182.815 145.911 182.969 145.696 183.165C145.486 183.361 145.381 183.622 145.381 183.949C145.381 184.168 145.435 184.371 145.542 184.558C145.649 184.74 145.817 184.887 146.046 184.999C146.275 185.111 146.559 185.167 146.9 185.167ZM156.07 178.244C156.826 178.244 157.428 178.431 157.876 178.804C158.324 179.177 158.637 179.635 158.814 180.176C158.991 180.713 159.08 181.261 159.08 181.821V186H157.82V182.213C157.82 181.401 157.661 180.734 157.344 180.211C157.031 179.688 156.506 179.427 155.769 179.427C155.125 179.427 154.616 179.646 154.243 180.085C153.874 180.519 153.69 181.163 153.69 182.017V186H152.43V178.44H153.55V179.413C153.835 179.035 154.189 178.746 154.614 178.545C155.043 178.344 155.529 178.244 156.07 178.244ZM166.026 175.92H167.279V186H166.166V185.146C165.881 185.487 165.54 185.75 165.144 185.937C164.747 186.119 164.299 186.21 163.8 186.21C163.109 186.21 162.507 186.037 161.994 185.692C161.485 185.342 161.093 184.866 160.818 184.264C160.547 183.657 160.412 182.974 160.412 182.213C160.412 181.457 160.547 180.778 160.818 180.176C161.093 179.569 161.485 179.093 161.994 178.748C162.507 178.403 163.107 178.23 163.793 178.23C164.255 178.23 164.672 178.307 165.046 178.461C165.424 178.615 165.75 178.837 166.026 179.126V175.92ZM163.954 185.069C164.686 185.069 165.237 184.81 165.606 184.292C165.979 183.774 166.166 183.081 166.166 182.213C166.166 181.345 165.981 180.654 165.613 180.141C165.244 179.628 164.703 179.371 163.989 179.371C163.494 179.371 163.076 179.495 162.736 179.742C162.4 179.989 162.148 180.328 161.98 180.757C161.816 181.182 161.735 181.667 161.735 182.213C161.735 182.764 161.816 183.254 161.98 183.683C162.148 184.112 162.397 184.451 162.729 184.698C163.065 184.945 163.473 185.069 163.954 185.069ZM179.792 178.244C180.31 178.244 180.76 178.354 181.143 178.573C181.525 178.788 181.819 179.096 182.025 179.497C182.23 179.894 182.333 180.358 182.333 180.89L182.326 186H181.08L181.087 181.163C181.087 180.794 181.017 180.475 180.877 180.204C180.741 179.929 180.55 179.719 180.303 179.574C180.06 179.429 179.78 179.357 179.463 179.357C179.169 179.357 178.896 179.425 178.644 179.56C178.392 179.695 178.189 179.901 178.035 180.176C177.885 180.451 177.811 180.792 177.811 181.198L177.804 186H176.565L176.572 181.212C176.572 180.834 176.504 180.505 176.369 180.225C176.233 179.945 176.042 179.73 175.795 179.581C175.547 179.432 175.26 179.357 174.934 179.357C174.607 179.357 174.32 179.434 174.073 179.588C173.825 179.742 173.632 179.959 173.492 180.239C173.356 180.514 173.289 180.834 173.289 181.198V186H172.036V178.44H173.149V179.245C173.391 178.932 173.699 178.687 174.073 178.51C174.446 178.333 174.854 178.244 175.298 178.244C175.806 178.244 176.25 178.354 176.628 178.573C177.006 178.788 177.297 179.093 177.503 179.49C177.727 179.098 178.039 178.792 178.441 178.573C178.847 178.354 179.297 178.244 179.792 178.244ZM189.966 179.707C190.064 179.922 190.129 180.16 190.162 180.421C190.194 180.678 190.211 180.979 190.211 181.324V186H189.105V184.824C188.503 185.748 187.569 186.21 186.305 186.21C185.759 186.21 185.292 186.11 184.905 185.909C184.517 185.704 184.226 185.431 184.03 185.09C183.834 184.749 183.736 184.371 183.736 183.956C183.736 182.841 184.354 182.101 185.591 181.737C185.955 181.639 186.372 181.553 186.844 181.478C187.315 181.403 187.88 181.322 188.538 181.233L188.986 181.17C188.967 180.559 188.813 180.111 188.524 179.826C188.234 179.537 187.768 179.392 187.124 179.392C186.648 179.392 186.239 179.502 185.899 179.721C185.563 179.936 185.329 180.267 185.199 180.715L184.016 180.358C184.198 179.681 184.552 179.159 185.08 178.79C185.612 178.417 186.298 178.23 187.138 178.23C187.833 178.23 188.423 178.356 188.909 178.608C189.399 178.855 189.751 179.222 189.966 179.707ZM186.494 185.167C186.928 185.167 187.31 185.09 187.642 184.936C187.973 184.777 188.241 184.567 188.447 184.306C188.652 184.04 188.785 183.746 188.846 183.424C188.892 183.265 188.923 183.088 188.937 182.892C188.955 182.696 188.967 182.477 188.972 182.234L188.629 182.276C187.971 182.365 187.464 182.437 187.11 182.493C186.76 182.549 186.44 182.619 186.151 182.703C185.791 182.815 185.504 182.969 185.29 183.165C185.08 183.361 184.975 183.622 184.975 183.949C184.975 184.168 185.028 184.371 185.136 184.558C185.243 184.74 185.411 184.887 185.64 184.999C185.868 185.111 186.153 185.167 186.494 185.167ZM193.291 186H192.024L192.031 175.92H193.291V182.08L196.462 178.44H198.079L194.74 182.22L198.471 186H196.728L193.291 182.36V186ZM199.948 182.57C199.999 183.359 200.221 183.965 200.613 184.39C201.009 184.815 201.555 185.027 202.251 185.027C202.745 185.027 203.177 184.913 203.546 184.684C203.919 184.455 204.211 184.126 204.421 183.697L205.618 184.11C205.324 184.773 204.883 185.288 204.295 185.657C203.707 186.026 203.044 186.21 202.307 186.21C201.569 186.21 200.921 186.047 200.361 185.72C199.805 185.393 199.374 184.931 199.066 184.334C198.762 183.737 198.611 183.048 198.611 182.269C198.611 181.452 198.76 180.741 199.059 180.134C199.362 179.523 199.787 179.054 200.333 178.727C200.883 178.396 201.523 178.23 202.251 178.23C202.974 178.23 203.597 178.393 204.12 178.72C204.647 179.042 205.051 179.506 205.331 180.113C205.611 180.715 205.751 181.431 205.751 182.262C205.751 182.397 205.748 182.5 205.744 182.57H199.948ZM202.293 179.35C201.616 179.35 201.082 179.539 200.69 179.917C200.298 180.295 200.057 180.846 199.969 181.569H204.449C204.295 180.09 203.576 179.35 202.293 179.35ZM216.475 186H210.105V175.92H216.475V177.103H211.351V180.26H215.635V181.443H211.351V184.817H216.475V186ZM220.097 179.469V183.088V183.494C220.097 183.732 220.106 183.923 220.125 184.068C220.143 184.213 220.185 184.339 220.251 184.446C220.363 184.647 220.521 184.791 220.727 184.88C220.937 184.969 221.193 185.013 221.497 185.013C221.716 185.013 222.01 184.985 222.379 184.929V186C221.991 186.079 221.618 186.119 221.259 186.119C220.759 186.119 220.321 186.037 219.943 185.874C219.569 185.706 219.292 185.445 219.11 185.09C219.002 184.88 218.932 184.665 218.9 184.446C218.867 184.227 218.851 183.954 218.851 183.627V183.144V179.469H217.318V178.44H218.851V176.34H220.097V178.44H222.379V179.469H220.097ZM227.547 178.244C228.303 178.244 228.905 178.431 229.353 178.804C229.801 179.177 230.113 179.635 230.291 180.176C230.468 180.713 230.557 181.261 230.557 181.821V186H229.297V182.213C229.297 181.401 229.138 180.734 228.821 180.211C228.508 179.688 227.983 179.427 227.246 179.427C226.602 179.427 226.093 179.646 225.72 180.085C225.351 180.519 225.167 181.163 225.167 182.017V186H223.907V175.92H225.027V179.413C225.311 179.035 225.666 178.746 226.091 178.545C226.52 178.344 227.005 178.244 227.547 178.244ZM233.293 182.57C233.345 183.359 233.566 183.965 233.958 184.39C234.355 184.815 234.901 185.027 235.596 185.027C236.091 185.027 236.523 184.913 236.891 184.684C237.265 184.455 237.556 184.126 237.766 183.697L238.963 184.11C238.669 184.773 238.228 185.288 237.64 185.657C237.052 186.026 236.39 186.21 235.652 186.21C234.915 186.21 234.266 186.047 233.706 185.72C233.151 185.393 232.719 184.931 232.411 184.334C232.108 183.737 231.956 183.048 231.956 182.269C231.956 181.452 232.106 180.741 232.404 180.134C232.708 179.523 233.132 179.054 233.678 178.727C234.229 178.396 234.868 178.23 235.596 178.23C236.32 178.23 236.943 178.393 237.465 178.72C237.993 179.042 238.396 179.506 238.676 180.113C238.956 180.715 239.096 181.431 239.096 182.262C239.096 182.397 239.094 182.5 239.089 182.57H233.293ZM235.638 179.35C234.962 179.35 234.427 179.539 234.035 179.917C233.643 180.295 233.403 180.846 233.314 181.569H237.794C237.64 180.09 236.922 179.35 235.638 179.35ZM242.405 178.902C242.615 178.734 242.862 178.606 243.147 178.517C243.432 178.428 243.719 178.384 244.008 178.384C244.19 178.384 244.37 178.403 244.547 178.44V179.609C244.351 179.562 244.162 179.539 243.98 179.539C243.527 179.539 243.14 179.658 242.818 179.896C242.477 180.139 242.239 180.458 242.104 180.855C241.969 181.247 241.901 181.697 241.901 182.206V186H240.648V178.44H241.761V179.637C241.938 179.329 242.153 179.084 242.405 178.902ZM246.651 182.57C246.702 183.359 246.924 183.965 247.316 184.39C247.713 184.815 248.259 185.027 248.954 185.027C249.449 185.027 249.88 184.913 250.249 184.684C250.622 184.455 250.914 184.126 251.124 183.697L252.321 184.11C252.027 184.773 251.586 185.288 250.998 185.657C250.41 186.026 249.747 186.21 249.01 186.21C248.273 186.21 247.624 186.047 247.064 185.72C246.509 185.393 246.077 184.931 245.769 184.334C245.466 183.737 245.314 183.048 245.314 182.269C245.314 181.452 245.463 180.741 245.762 180.134C246.065 179.523 246.49 179.054 247.036 178.727C247.587 178.396 248.226 178.23 248.954 178.23C249.677 178.23 250.3 178.393 250.823 178.72C251.35 179.042 251.754 179.506 252.034 180.113C252.314 180.715 252.454 181.431 252.454 182.262C252.454 182.397 252.452 182.5 252.447 182.57H246.651ZM248.996 179.35C248.319 179.35 247.785 179.539 247.393 179.917C247.001 180.295 246.761 180.846 246.672 181.569H251.152C250.998 180.09 250.279 179.35 248.996 179.35ZM259.255 178.44H260.508V186H259.395V185.027C259.111 185.405 258.754 185.694 258.324 185.895C257.9 186.096 257.417 186.196 256.875 186.196C256.119 186.196 255.517 186.009 255.069 185.636C254.621 185.263 254.309 184.808 254.131 184.271C253.954 183.73 253.865 183.179 253.865 182.619V178.44H255.125V182.227C255.125 183.039 255.282 183.706 255.594 184.229C255.912 184.752 256.439 185.013 257.176 185.013C257.82 185.013 258.327 184.796 258.695 184.362C259.069 183.923 259.255 183.277 259.255 182.423V178.44ZM270.217 178.244C270.735 178.244 271.186 178.354 271.568 178.573C271.951 178.788 272.245 179.096 272.45 179.497C272.656 179.894 272.758 180.358 272.758 180.89L272.751 186H271.505L271.512 181.163C271.512 180.794 271.442 180.475 271.302 180.204C271.167 179.929 270.976 179.719 270.728 179.574C270.486 179.429 270.206 179.357 269.888 179.357C269.594 179.357 269.321 179.425 269.069 179.56C268.817 179.695 268.614 179.901 268.46 180.176C268.311 180.451 268.236 180.792 268.236 181.198L268.229 186H266.99L266.997 181.212C266.997 180.834 266.93 180.505 266.794 180.225C266.659 179.945 266.468 179.73 266.22 179.581C265.973 179.432 265.686 179.357 265.359 179.357C265.033 179.357 264.746 179.434 264.498 179.588C264.251 179.742 264.057 179.959 263.917 180.239C263.782 180.514 263.714 180.834 263.714 181.198V186H262.461V178.44H263.574V179.245C263.817 178.932 264.125 178.687 264.498 178.51C264.872 178.333 265.28 178.244 265.723 178.244C266.232 178.244 266.675 178.354 267.053 178.573C267.431 178.788 267.723 179.093 267.928 179.49C268.152 179.098 268.465 178.792 268.866 178.573C269.272 178.354 269.723 178.244 270.217 178.244ZM64.729 200.244C65.247 200.244 65.6973 200.354 66.08 200.573C66.4627 200.788 66.7567 201.096 66.962 201.497C67.1673 201.894 67.27 202.358 67.27 202.89L67.263 208H66.017L66.024 203.163C66.024 202.794 65.954 202.475 65.814 202.204C65.6787 201.929 65.4873 201.719 65.24 201.574C64.9973 201.429 64.7173 201.357 64.4 201.357C64.106 201.357 63.833 201.425 63.581 201.56C63.329 201.695 63.126 201.901 62.972 202.176C62.8227 202.451 62.748 202.792 62.748 203.198L62.741 208H61.502L61.509 203.212C61.509 202.834 61.4413 202.505 61.306 202.225C61.1707 201.945 60.9793 201.73 60.732 201.581C60.4847 201.432 60.1977 201.357 59.871 201.357C59.5443 201.357 59.2573 201.434 59.01 201.588C58.7627 201.742 58.569 201.959 58.429 202.239C58.2937 202.514 58.226 202.834 58.226 203.198V208H56.973V200.44H58.086V201.245C58.3287 200.932 58.6367 200.687 59.01 200.51C59.3833 200.333 59.7917 200.244 60.235 200.244C60.7437 200.244 61.187 200.354 61.565 200.573C61.943 200.788 62.2347 201.093 62.44 201.49C62.664 201.098 62.9767 200.792 63.378 200.573C63.784 200.354 64.2343 200.244 64.729 200.244ZM72.2449 208.21C71.5029 208.21 70.8566 208.042 70.3059 207.706C69.7599 207.365 69.3399 206.894 69.0459 206.292C68.7519 205.685 68.6049 204.992 68.6049 204.213C68.6049 203.429 68.7543 202.736 69.0529 202.134C69.3516 201.532 69.7763 201.065 70.3269 200.734C70.8776 200.398 71.5169 200.23 72.2449 200.23C72.9869 200.23 73.6333 200.398 74.1839 200.734C74.7346 201.07 75.1569 201.539 75.4509 202.141C75.7449 202.743 75.8919 203.434 75.8919 204.213C75.8919 205.002 75.7426 205.699 75.4439 206.306C75.1499 206.908 74.7276 207.377 74.1769 207.713C73.6263 208.044 72.9823 208.21 72.2449 208.21ZM72.2449 207.027C73.0056 207.027 73.5819 206.775 73.9739 206.271C74.3706 205.762 74.5689 205.076 74.5689 204.213C74.5689 203.34 74.3706 202.657 73.9739 202.162C73.5773 201.663 73.0009 201.413 72.2449 201.413C71.4796 201.413 70.9009 201.665 70.5089 202.169C70.1216 202.673 69.9279 203.354 69.9279 204.213C69.9279 205.086 70.1263 205.774 70.5229 206.278C70.9243 206.777 71.4983 207.027 72.2449 207.027ZM79.1901 200.902C79.4001 200.734 79.6475 200.606 79.9321 200.517C80.2168 200.428 80.5038 200.384 80.7931 200.384C80.9751 200.384 81.1548 200.403 81.3321 200.44V201.609C81.1361 201.562 80.9471 201.539 80.7651 201.539C80.3125 201.539 79.9251 201.658 79.6031 201.896C79.2625 202.139 79.0245 202.458 78.8891 202.855C78.7538 203.247 78.6861 203.697 78.6861 204.206V208H77.4331V200.44H78.5461V201.637C78.7235 201.329 78.9381 201.084 79.1901 200.902ZM83.4361 204.57C83.4874 205.359 83.7091 205.965 84.1011 206.39C84.4977 206.815 85.0437 207.027 85.7391 207.027C86.2337 207.027 86.6654 206.913 87.0341 206.684C87.4074 206.455 87.6991 206.126 87.9091 205.697L89.1061 206.11C88.8121 206.773 88.3711 207.288 87.7831 207.657C87.1951 208.026 86.5324 208.21 85.7951 208.21C85.0577 208.21 84.4091 208.047 83.8491 207.72C83.2937 207.393 82.8621 206.931 82.5541 206.334C82.2507 205.737 82.0991 205.048 82.0991 204.269C82.0991 203.452 82.2484 202.741 82.5471 202.134C82.8504 201.523 83.2751 201.054 83.8211 200.727C84.3717 200.396 85.0111 200.23 85.7391 200.23C86.4624 200.23 87.0854 200.393 87.6081 200.72C88.1354 201.042 88.5391 201.506 88.8191 202.113C89.0991 202.715 89.2391 203.431 89.2391 204.262C89.2391 204.397 89.2367 204.5 89.2321 204.57H83.4361ZM85.7811 201.35C85.1044 201.35 84.5701 201.539 84.1781 201.917C83.7861 202.295 83.5457 202.846 83.4571 203.569H87.9371C87.7831 202.09 87.0644 201.35 85.7811 201.35ZM96.4493 208.203C95.8519 208.203 95.3223 208.114 94.8603 207.937C94.3983 207.76 94.0226 207.503 93.7333 207.167C93.4439 206.831 93.2573 206.427 93.1733 205.956L94.4473 205.753C94.5499 206.168 94.7856 206.495 95.1543 206.733C95.5229 206.971 95.9803 207.09 96.5263 207.09C97.0396 207.09 97.4433 206.985 97.7373 206.775C98.0359 206.56 98.1853 206.266 98.1853 205.893C98.1853 205.669 98.1339 205.494 98.0313 205.368C97.9333 205.242 97.7396 205.123 97.4503 205.011C97.1609 204.894 96.6943 204.75 96.0503 204.577C95.3736 204.395 94.8463 204.211 94.4683 204.024C94.0903 203.833 93.8196 203.613 93.6563 203.366C93.4929 203.119 93.4113 202.811 93.4113 202.442C93.4113 202.003 93.5326 201.618 93.7753 201.287C94.0179 200.951 94.3586 200.692 94.7973 200.51C95.2359 200.323 95.7423 200.23 96.3163 200.23C96.8856 200.23 97.3966 200.323 97.8493 200.51C98.3066 200.692 98.6729 200.951 98.9483 201.287C99.2283 201.618 99.3939 202.003 99.4453 202.442L98.1713 202.673C98.1106 202.262 97.9053 201.938 97.5553 201.7C97.2099 201.462 96.7666 201.343 96.2253 201.343C95.9173 201.343 95.6443 201.387 95.4063 201.476C95.1729 201.56 94.9909 201.681 94.8603 201.84C94.7296 201.994 94.6643 202.174 94.6643 202.379C94.6643 202.57 94.7203 202.729 94.8323 202.855C94.9489 202.981 95.1589 203.102 95.4623 203.219C95.7656 203.331 96.2206 203.464 96.8273 203.618C97.5039 203.791 98.0313 203.975 98.4093 204.171C98.7873 204.367 99.0579 204.598 99.2213 204.864C99.3893 205.13 99.4733 205.461 99.4733 205.858C99.4733 206.343 99.3519 206.763 99.1093 207.118C98.8666 207.468 98.5189 207.736 98.0663 207.923C97.6136 208.11 97.0746 208.203 96.4493 208.203ZM101.934 204.57C101.985 205.359 102.207 205.965 102.599 206.39C102.996 206.815 103.542 207.027 104.237 207.027C104.732 207.027 105.163 206.913 105.532 206.684C105.905 206.455 106.197 206.126 106.407 205.697L107.604 206.11C107.31 206.773 106.869 207.288 106.281 207.657C105.693 208.026 105.03 208.21 104.293 208.21C103.556 208.21 102.907 208.047 102.347 207.72C101.792 207.393 101.36 206.931 101.052 206.334C100.749 205.737 100.597 205.048 100.597 204.269C100.597 203.452 100.746 202.741 101.045 202.134C101.348 201.523 101.773 201.054 102.319 200.727C102.87 200.396 103.509 200.23 104.237 200.23C104.96 200.23 105.583 200.393 106.106 200.72C106.633 201.042 107.037 201.506 107.317 202.113C107.597 202.715 107.737 203.431 107.737 204.262C107.737 204.397 107.735 204.5 107.73 204.57H101.934ZM104.279 201.35C103.602 201.35 103.068 201.539 102.676 201.917C102.284 202.295 102.044 202.846 101.955 203.569H106.435C106.281 202.09 105.562 201.35 104.279 201.35ZM112.474 208.21C111.722 208.21 111.076 208.042 110.535 207.706C109.998 207.365 109.587 206.894 109.303 206.292C109.023 205.69 108.878 204.999 108.869 204.22C108.878 203.431 109.025 202.736 109.31 202.134C109.599 201.532 110.014 201.065 110.556 200.734C111.097 200.398 111.741 200.23 112.488 200.23C113.015 200.23 113.498 200.319 113.937 200.496C114.375 200.673 114.746 200.928 115.05 201.259C115.358 201.59 115.577 201.98 115.708 202.428L114.476 202.799C114.317 202.365 114.058 202.027 113.699 201.784C113.344 201.537 112.936 201.413 112.474 201.413C111.722 201.413 111.155 201.667 110.773 202.176C110.395 202.685 110.201 203.366 110.192 204.22C110.201 205.088 110.399 205.774 110.787 206.278C111.179 206.777 111.741 207.027 112.474 207.027C113.44 207.027 114.098 206.586 114.448 205.704L115.708 206.033C115.442 206.738 115.031 207.277 114.476 207.65C113.92 208.023 113.253 208.21 112.474 208.21ZM122.386 200.44H123.639V208H122.526V207.027C122.242 207.405 121.885 207.694 121.455 207.895C121.031 208.096 120.548 208.196 120.006 208.196C119.25 208.196 118.648 208.009 118.2 207.636C117.752 207.263 117.44 206.808 117.262 206.271C117.085 205.73 116.996 205.179 116.996 204.619V200.44H118.256V204.227C118.256 205.039 118.413 205.706 118.725 206.229C119.043 206.752 119.57 207.013 120.307 207.013C120.951 207.013 121.458 206.796 121.826 206.362C122.2 205.923 122.386 205.277 122.386 204.423V200.44ZM127.356 200.902C127.566 200.734 127.813 200.606 128.098 200.517C128.383 200.428 128.67 200.384 128.959 200.384C129.141 200.384 129.321 200.403 129.498 200.44V201.609C129.302 201.562 129.113 201.539 128.931 201.539C128.478 201.539 128.091 201.658 127.769 201.896C127.428 202.139 127.19 202.458 127.055 202.855C126.92 203.247 126.852 203.697 126.852 204.206V208H125.599V200.44H126.712V201.637C126.889 201.329 127.104 201.084 127.356 200.902ZM131.602 204.57C131.653 205.359 131.875 205.965 132.267 206.39C132.664 206.815 133.21 207.027 133.905 207.027C134.4 207.027 134.831 206.913 135.2 206.684C135.573 206.455 135.865 206.126 136.075 205.697L137.272 206.11C136.978 206.773 136.537 207.288 135.949 207.657C135.361 208.026 134.698 208.21 133.961 208.21C133.224 208.21 132.575 208.047 132.015 207.72C131.46 207.393 131.028 206.931 130.72 206.334C130.417 205.737 130.265 205.048 130.265 204.269C130.265 203.452 130.414 202.741 130.713 202.134C131.016 201.523 131.441 201.054 131.987 200.727C132.538 200.396 133.177 200.23 133.905 200.23C134.628 200.23 135.251 200.393 135.774 200.72C136.301 201.042 136.705 201.506 136.985 202.113C137.265 202.715 137.405 203.431 137.405 204.262C137.405 204.397 137.403 204.5 137.398 204.57H131.602ZM133.947 201.35C133.27 201.35 132.736 201.539 132.344 201.917C131.952 202.295 131.712 202.846 131.623 203.569H136.103C135.949 202.09 135.23 201.35 133.947 201.35ZM145.238 200.23C145.924 200.23 146.522 200.403 147.03 200.748C147.544 201.093 147.936 201.569 148.206 202.176C148.482 202.778 148.619 203.457 148.619 204.213C148.619 204.974 148.482 205.657 148.206 206.264C147.936 206.866 147.544 207.342 147.03 207.692C146.522 208.037 145.922 208.21 145.231 208.21C144.732 208.21 144.284 208.119 143.887 207.937C143.491 207.75 143.15 207.487 142.865 207.146V208H141.752V197.92H143.005V201.126C143.281 200.837 143.605 200.615 143.978 200.461C144.356 200.307 144.776 200.23 145.238 200.23ZM145.077 207.069C145.558 207.069 145.964 206.945 146.295 206.698C146.631 206.451 146.881 206.112 147.044 205.683C147.212 205.254 147.296 204.764 147.296 204.213C147.296 203.667 147.212 203.182 147.044 202.757C146.881 202.328 146.629 201.989 146.288 201.742C145.952 201.495 145.537 201.371 145.042 201.371C144.328 201.371 143.787 201.628 143.418 202.141C143.05 202.654 142.865 203.345 142.865 204.213C142.865 205.081 143.05 205.774 143.418 206.292C143.792 206.81 144.345 207.069 145.077 207.069ZM152.628 206.39L154.84 200.44H156.107L151.991 211.36H150.78L152.026 207.972L148.96 200.44H150.269L152.628 206.39ZM162.922 208.203C162.325 208.203 161.795 208.114 161.333 207.937C160.871 207.76 160.495 207.503 160.206 207.167C159.917 206.831 159.73 206.427 159.646 205.956L160.92 205.753C161.023 206.168 161.258 206.495 161.627 206.733C161.996 206.971 162.453 207.09 162.999 207.09C163.512 207.09 163.916 206.985 164.21 206.775C164.509 206.56 164.658 206.266 164.658 205.893C164.658 205.669 164.607 205.494 164.504 205.368C164.406 205.242 164.212 205.123 163.923 205.011C163.634 204.894 163.167 204.75 162.523 204.577C161.846 204.395 161.319 204.211 160.941 204.024C160.563 203.833 160.292 203.613 160.129 203.366C159.966 203.119 159.884 202.811 159.884 202.442C159.884 202.003 160.005 201.618 160.248 201.287C160.491 200.951 160.831 200.692 161.27 200.51C161.709 200.323 162.215 200.23 162.789 200.23C163.358 200.23 163.869 200.323 164.322 200.51C164.779 200.692 165.146 200.951 165.421 201.287C165.701 201.618 165.867 202.003 165.918 202.442L164.644 202.673C164.583 202.262 164.378 201.938 164.028 201.7C163.683 201.462 163.239 201.343 162.698 201.343C162.39 201.343 162.117 201.387 161.879 201.476C161.646 201.56 161.464 201.681 161.333 201.84C161.202 201.994 161.137 202.174 161.137 202.379C161.137 202.57 161.193 202.729 161.305 202.855C161.422 202.981 161.632 203.102 161.935 203.219C162.238 203.331 162.693 203.464 163.3 203.618C163.977 203.791 164.504 203.975 164.882 204.171C165.26 204.367 165.531 204.598 165.694 204.864C165.862 205.13 165.946 205.461 165.946 205.858C165.946 206.343 165.825 206.763 165.582 207.118C165.339 207.468 164.992 207.736 164.539 207.923C164.086 208.11 163.547 208.203 162.922 208.203ZM170.969 200.23C171.655 200.23 172.252 200.403 172.761 200.748C173.274 201.093 173.666 201.569 173.937 202.176C174.212 202.778 174.35 203.457 174.35 204.213C174.35 204.974 174.212 205.657 173.937 206.264C173.666 206.866 173.274 207.342 172.761 207.692C172.252 208.037 171.652 208.21 170.962 208.21C170.5 208.21 170.082 208.133 169.709 207.979C169.335 207.82 169.011 207.594 168.736 207.3V211.36H167.483V200.44H168.596V201.287C168.88 200.946 169.221 200.685 169.618 200.503C170.014 200.321 170.465 200.23 170.969 200.23ZM170.808 207.069C171.288 207.069 171.694 206.945 172.026 206.698C172.362 206.451 172.611 206.112 172.775 205.683C172.943 205.254 173.027 204.764 173.027 204.213C173.027 203.667 172.943 203.182 172.775 202.757C172.611 202.328 172.359 201.989 172.019 201.742C171.683 201.495 171.267 201.371 170.773 201.371C170.059 201.371 169.517 201.628 169.149 202.141C168.78 202.654 168.596 203.345 168.596 204.213C168.596 205.081 168.78 205.774 169.149 206.292C169.522 206.81 170.075 207.069 170.808 207.069ZM177.641 200.902C177.851 200.734 178.099 200.606 178.383 200.517C178.668 200.428 178.955 200.384 179.244 200.384C179.426 200.384 179.606 200.403 179.783 200.44V201.609C179.587 201.562 179.398 201.539 179.216 201.539C178.764 201.539 178.376 201.658 178.054 201.896C177.714 202.139 177.476 202.458 177.34 202.855C177.205 203.247 177.137 203.697 177.137 204.206V208H175.884V200.44H176.997V201.637C177.175 201.329 177.389 201.084 177.641 200.902ZM181.887 204.57C181.939 205.359 182.16 205.965 182.552 206.39C182.949 206.815 183.495 207.027 184.19 207.027C184.685 207.027 185.117 206.913 185.485 206.684C185.859 206.455 186.15 206.126 186.36 205.697L187.557 206.11C187.263 206.773 186.822 207.288 186.234 207.657C185.646 208.026 184.984 208.21 184.246 208.21C183.509 208.21 182.86 208.047 182.3 207.72C181.745 207.393 181.313 206.931 181.005 206.334C180.702 205.737 180.55 205.048 180.55 204.269C180.55 203.452 180.7 202.741 180.998 202.134C181.302 201.523 181.726 201.054 182.272 200.727C182.823 200.396 183.462 200.23 184.19 200.23C184.914 200.23 185.537 200.393 186.059 200.72C186.587 201.042 186.99 201.506 187.27 202.113C187.55 202.715 187.69 203.431 187.69 204.262C187.69 204.397 187.688 204.5 187.683 204.57H181.887ZM184.232 201.35C183.556 201.35 183.021 201.539 182.629 201.917C182.237 202.295 181.997 202.846 181.908 203.569H186.388C186.234 202.09 185.516 201.35 184.232 201.35ZM194.915 201.707C195.013 201.922 195.078 202.16 195.111 202.421C195.144 202.678 195.16 202.979 195.16 203.324V208H194.054V206.824C193.452 207.748 192.519 208.21 191.254 208.21C190.708 208.21 190.241 208.11 189.854 207.909C189.467 207.704 189.175 207.431 188.979 207.09C188.783 206.749 188.685 206.371 188.685 205.956C188.685 204.841 189.303 204.101 190.54 203.737C190.904 203.639 191.322 203.553 191.793 203.478C192.264 203.403 192.829 203.322 193.487 203.233L193.935 203.17C193.916 202.559 193.762 202.111 193.473 201.826C193.184 201.537 192.717 201.392 192.073 201.392C191.597 201.392 191.189 201.502 190.848 201.721C190.512 201.936 190.279 202.267 190.148 202.715L188.965 202.358C189.147 201.681 189.502 201.159 190.029 200.79C190.561 200.417 191.247 200.23 192.087 200.23C192.782 200.23 193.373 200.356 193.858 200.608C194.348 200.855 194.7 201.222 194.915 201.707ZM191.443 207.167C191.877 207.167 192.26 207.09 192.591 206.936C192.922 206.777 193.191 206.567 193.396 206.306C193.601 206.04 193.734 205.746 193.795 205.424C193.842 205.265 193.872 205.088 193.886 204.892C193.905 204.696 193.916 204.477 193.921 204.234L193.578 204.276C192.92 204.365 192.414 204.437 192.059 204.493C191.709 204.549 191.389 204.619 191.1 204.703C190.741 204.815 190.454 204.969 190.239 205.165C190.029 205.361 189.924 205.622 189.924 205.949C189.924 206.168 189.978 206.371 190.085 206.558C190.192 206.74 190.36 206.887 190.589 206.999C190.818 207.111 191.102 207.167 191.443 207.167ZM202.174 197.92H203.427V208H202.314V207.146C202.029 207.487 201.689 207.75 201.292 207.937C200.895 208.119 200.447 208.21 199.948 208.21C199.257 208.21 198.655 208.037 198.142 207.692C197.633 207.342 197.241 206.866 196.966 206.264C196.695 205.657 196.56 204.974 196.56 204.213C196.56 203.457 196.695 202.778 196.966 202.176C197.241 201.569 197.633 201.093 198.142 200.748C198.655 200.403 199.255 200.23 199.941 200.23C200.403 200.23 200.821 200.307 201.194 200.461C201.572 200.615 201.899 200.837 202.174 201.126V197.92ZM200.102 207.069C200.835 207.069 201.385 206.81 201.754 206.292C202.127 205.774 202.314 205.081 202.314 204.213C202.314 203.345 202.13 202.654 201.761 202.141C201.392 201.628 200.851 201.371 200.137 201.371C199.642 201.371 199.225 201.495 198.884 201.742C198.548 201.989 198.296 202.328 198.128 202.757C197.965 203.182 197.883 203.667 197.883 204.213C197.883 204.764 197.965 205.254 198.128 205.683C198.296 206.112 198.546 206.451 198.877 206.698C199.213 206.945 199.621 207.069 200.102 207.069ZM206.774 199.103H205.528V197.815H206.774V199.103ZM206.774 208H205.528V200.44H206.774V208ZM212.508 200.244C213.264 200.244 213.866 200.431 214.314 200.804C214.762 201.177 215.074 201.635 215.252 202.176C215.429 202.713 215.518 203.261 215.518 203.821V208H214.258V204.213C214.258 203.401 214.099 202.734 213.782 202.211C213.469 201.688 212.944 201.427 212.207 201.427C211.563 201.427 211.054 201.646 210.681 202.085C210.312 202.519 210.128 203.163 210.128 204.017V208H208.868V200.44H209.988V201.413C210.272 201.035 210.627 200.746 211.052 200.545C211.481 200.344 211.966 200.244 212.508 200.244ZM222.671 200.44H223.777V208.049C223.777 208.502 223.747 208.889 223.686 209.211C223.542 210 223.187 210.59 222.622 210.982C222.058 211.374 221.316 211.57 220.396 211.57C219.776 211.57 219.197 211.428 218.66 211.143C218.128 210.863 217.711 210.452 217.407 209.911L218.548 209.309C218.726 209.664 218.98 209.927 219.311 210.1C219.647 210.277 220.011 210.366 220.403 210.366C221.831 210.366 222.538 209.589 222.524 208.035V207.307C222.249 207.596 221.925 207.82 221.551 207.979C221.178 208.133 220.763 208.21 220.305 208.21C219.615 208.21 219.013 208.037 218.499 207.692C217.991 207.342 217.599 206.866 217.323 206.264C217.053 205.657 216.917 204.974 216.917 204.213C216.917 203.457 217.053 202.778 217.323 202.176C217.599 201.569 217.991 201.093 218.499 200.748C219.013 200.403 219.612 200.23 220.298 200.23C220.802 200.23 221.253 200.321 221.649 200.503C222.046 200.685 222.387 200.946 222.671 201.287V200.44ZM220.459 207.069C221.192 207.069 221.743 206.81 222.111 206.292C222.485 205.774 222.671 205.081 222.671 204.213C222.671 203.345 222.487 202.654 222.118 202.141C221.75 201.628 221.208 201.371 220.494 201.371C220 201.371 219.582 201.495 219.241 201.742C218.905 201.989 218.653 202.328 218.485 202.757C218.322 203.182 218.24 203.667 218.24 204.213C218.24 204.764 218.322 205.254 218.485 205.683C218.653 206.112 218.903 206.451 219.234 206.698C219.57 206.945 219.979 207.069 220.459 207.069ZM230.474 201.469V205.088V205.494C230.474 205.732 230.483 205.923 230.502 206.068C230.52 206.213 230.562 206.339 230.628 206.446C230.74 206.647 230.898 206.791 231.104 206.88C231.314 206.969 231.57 207.013 231.874 207.013C232.093 207.013 232.387 206.985 232.756 206.929V208C232.368 208.079 231.995 208.119 231.636 208.119C231.136 208.119 230.698 208.037 230.32 207.874C229.946 207.706 229.669 207.445 229.487 207.09C229.379 206.88 229.309 206.665 229.277 206.446C229.244 206.227 229.228 205.954 229.228 205.627V205.144V201.469H227.695V200.44H229.228V198.34H230.474V200.44H232.756V201.469H230.474ZM237.924 200.244C238.68 200.244 239.282 200.431 239.73 200.804C240.178 201.177 240.49 201.635 240.668 202.176C240.845 202.713 240.934 203.261 240.934 203.821V208H239.674V204.213C239.674 203.401 239.515 202.734 239.198 202.211C238.885 201.688 238.36 201.427 237.623 201.427C236.979 201.427 236.47 201.646 236.097 202.085C235.728 202.519 235.544 203.163 235.544 204.017V208H234.284V197.92H235.404V201.413C235.688 201.035 236.043 200.746 236.468 200.545C236.897 200.344 237.382 200.244 237.924 200.244ZM243.67 204.57C243.722 205.359 243.943 205.965 244.335 206.39C244.732 206.815 245.278 207.027 245.973 207.027C246.468 207.027 246.9 206.913 247.268 206.684C247.642 206.455 247.933 206.126 248.143 205.697L249.34 206.11C249.046 206.773 248.605 207.288 248.017 207.657C247.429 208.026 246.767 208.21 246.029 208.21C245.292 208.21 244.643 208.047 244.083 207.72C243.528 207.393 243.096 206.931 242.788 206.334C242.485 205.737 242.333 205.048 242.333 204.269C242.333 203.452 242.483 202.741 242.781 202.134C243.085 201.523 243.509 201.054 244.055 200.727C244.606 200.396 245.245 200.23 245.973 200.23C246.697 200.23 247.32 200.393 247.842 200.72C248.37 201.042 248.773 201.506 249.053 202.113C249.333 202.715 249.473 203.431 249.473 204.262C249.473 204.397 249.471 204.5 249.466 204.57H243.67ZM246.015 201.35C245.339 201.35 244.804 201.539 244.412 201.917C244.02 202.295 243.78 202.846 243.691 203.569H248.171C248.017 202.09 247.299 201.35 246.015 201.35ZM60.459 222.23C61.145 222.23 61.7423 222.403 62.251 222.748C62.7643 223.093 63.1563 223.569 63.427 224.176C63.7023 224.778 63.84 225.457 63.84 226.213C63.84 226.974 63.7023 227.657 63.427 228.264C63.1563 228.866 62.7643 229.342 62.251 229.692C61.7423 230.037 61.1427 230.21 60.452 230.21C59.9527 230.21 59.5047 230.119 59.108 229.937C58.7113 229.75 58.3707 229.487 58.086 229.146V230H56.973V219.92H58.226V223.126C58.5013 222.837 58.8257 222.615 59.199 222.461C59.577 222.307 59.997 222.23 60.459 222.23ZM60.298 229.069C60.7787 229.069 61.1847 228.945 61.516 228.698C61.852 228.451 62.1017 228.112 62.265 227.683C62.433 227.254 62.517 226.764 62.517 226.213C62.517 225.667 62.433 225.182 62.265 224.757C62.1017 224.328 61.8497 223.989 61.509 223.742C61.173 223.495 60.7577 223.371 60.263 223.371C59.549 223.371 59.0077 223.628 58.639 224.141C58.2703 224.654 58.086 225.345 58.086 226.213C58.086 227.081 58.2703 227.774 58.639 228.292C59.0123 228.81 59.5653 229.069 60.298 229.069ZM66.2915 226.57C66.3429 227.359 66.5645 227.965 66.9565 228.39C67.3532 228.815 67.8992 229.027 68.5945 229.027C69.0892 229.027 69.5209 228.913 69.8895 228.684C70.2629 228.455 70.5545 228.126 70.7645 227.697L71.9615 228.11C71.6675 228.773 71.2265 229.288 70.6385 229.657C70.0505 230.026 69.3879 230.21 68.6505 230.21C67.9132 230.21 67.2645 230.047 66.7045 229.72C66.1492 229.393 65.7175 228.931 65.4095 228.334C65.1062 227.737 64.9545 227.048 64.9545 226.269C64.9545 225.452 65.1039 224.741 65.4025 224.134C65.7059 223.523 66.1305 223.054 66.6765 222.727C67.2272 222.396 67.8665 222.23 68.5945 222.23C69.3179 222.23 69.9409 222.393 70.4635 222.72C70.9909 223.042 71.3945 223.506 71.6745 224.113C71.9545 224.715 72.0945 225.431 72.0945 226.262C72.0945 226.397 72.0922 226.5 72.0875 226.57H66.2915ZM68.6365 223.35C67.9599 223.35 67.4255 223.539 67.0335 223.917C66.6415 224.295 66.4012 224.846 66.3125 225.569H70.7925C70.6385 224.09 69.9199 223.35 68.6365 223.35ZM77.0739 222.244C77.8299 222.244 78.4319 222.431 78.8799 222.804C79.3279 223.177 79.6406 223.635 79.8179 224.176C79.9953 224.713 80.0839 225.261 80.0839 225.821V230H78.8239V226.213C78.8239 225.401 78.6653 224.734 78.3479 224.211C78.0353 223.688 77.5103 223.427 76.7729 223.427C76.1289 223.427 75.6203 223.646 75.2469 224.085C74.8783 224.519 74.6939 225.163 74.6939 226.017V230H73.4339V222.44H74.5539V223.413C74.8386 223.035 75.1933 222.746 75.6179 222.545C76.0473 222.344 76.5326 222.244 77.0739 222.244ZM82.7525 226.57C82.8038 227.359 83.0255 227.965 83.4175 228.39C83.8141 228.815 84.3601 229.027 85.0555 229.027C85.5501 229.027 85.9818 228.913 86.3505 228.684C86.7238 228.455 87.0155 228.126 87.2255 227.697L88.4225 228.11C88.1285 228.773 87.6875 229.288 87.0995 229.657C86.5115 230.026 85.8488 230.21 85.1115 230.21C84.3741 230.21 83.7255 230.047 83.1655 229.72C82.6101 229.393 82.1785 228.931 81.8705 228.334C81.5671 227.737 81.4155 227.048 81.4155 226.269C81.4155 225.452 81.5648 224.741 81.8635 224.134C82.1668 223.523 82.5915 223.054 83.1375 222.727C83.6881 222.396 84.3275 222.23 85.0555 222.23C85.7788 222.23 86.4018 222.393 86.9245 222.72C87.4518 223.042 87.8555 223.506 88.1355 224.113C88.4155 224.715 88.5555 225.431 88.5555 226.262C88.5555 226.397 88.5531 226.5 88.5485 226.57H82.7525ZM85.0975 223.35C84.4208 223.35 83.8865 223.539 83.4945 223.917C83.1025 224.295 82.8621 224.846 82.7735 225.569H87.2535C87.0995 224.09 86.3808 223.35 85.0975 223.35ZM93.173 220.746C92.4403 220.746 92.074 221.108 92.074 221.831V222.44H94.062V223.469H92.074V230H90.828V223.469H89.547V222.44H90.828V222.027C90.828 221.649 90.856 221.322 90.912 221.047C90.9726 220.767 91.1033 220.517 91.304 220.298C91.5326 220.046 91.7916 219.885 92.081 219.815C92.3703 219.745 92.711 219.71 93.103 219.71H94.062V220.746H93.173ZM96.7703 221.103H95.5243V219.815H96.7703V221.103ZM96.7703 230H95.5243V222.44H96.7703V230ZM100.81 223.469V227.088V227.494C100.81 227.732 100.819 227.923 100.838 228.068C100.856 228.213 100.898 228.339 100.964 228.446C101.076 228.647 101.234 228.791 101.44 228.88C101.65 228.969 101.906 229.013 102.21 229.013C102.429 229.013 102.723 228.985 103.092 228.929V230C102.704 230.079 102.331 230.119 101.972 230.119C101.472 230.119 101.034 230.037 100.656 229.874C100.282 229.706 100.005 229.445 99.8226 229.09C99.7153 228.88 99.6453 228.665 99.6126 228.446C99.58 228.227 99.5636 227.954 99.5636 227.627V227.144V223.469H98.0306V222.44H99.5636V220.34H100.81V222.44H103.092V223.469H100.81ZM107.482 230.203C106.885 230.203 106.355 230.114 105.893 229.937C105.431 229.76 105.056 229.503 104.766 229.167C104.477 228.831 104.29 228.427 104.206 227.956L105.48 227.753C105.583 228.168 105.819 228.495 106.187 228.733C106.556 228.971 107.013 229.09 107.559 229.09C108.073 229.09 108.476 228.985 108.77 228.775C109.069 228.56 109.218 228.266 109.218 227.893C109.218 227.669 109.167 227.494 109.064 227.368C108.966 227.242 108.773 227.123 108.483 227.011C108.194 226.894 107.727 226.75 107.083 226.577C106.407 226.395 105.879 226.211 105.501 226.024C105.123 225.833 104.853 225.613 104.689 225.366C104.526 225.119 104.444 224.811 104.444 224.442C104.444 224.003 104.566 223.618 104.808 223.287C105.051 222.951 105.392 222.692 105.83 222.51C106.269 222.323 106.775 222.23 107.349 222.23C107.919 222.23 108.43 222.323 108.882 222.51C109.34 222.692 109.706 222.951 109.981 223.287C110.261 223.618 110.427 224.003 110.478 224.442L109.204 224.673C109.144 224.262 108.938 223.938 108.588 223.7C108.243 223.462 107.8 223.343 107.258 223.343C106.95 223.343 106.677 223.387 106.439 223.476C106.206 223.56 106.024 223.681 105.893 223.84C105.763 223.994 105.697 224.174 105.697 224.379C105.697 224.57 105.753 224.729 105.865 224.855C105.982 224.981 106.192 225.102 106.495 225.219C106.799 225.331 107.254 225.464 107.86 225.618C108.537 225.791 109.064 225.975 109.442 226.171C109.82 226.367 110.091 226.598 110.254 226.864C110.422 227.13 110.506 227.461 110.506 227.858C110.506 228.343 110.385 228.763 110.142 229.118C109.9 229.468 109.552 229.736 109.099 229.923C108.647 230.11 108.108 230.203 107.482 230.203ZM118.073 230.21C117.331 230.21 116.685 230.042 116.134 229.706C115.588 229.365 115.168 228.894 114.874 228.292C114.58 227.685 114.433 226.992 114.433 226.213C114.433 225.429 114.582 224.736 114.881 224.134C115.18 223.532 115.604 223.065 116.155 222.734C116.706 222.398 117.345 222.23 118.073 222.23C118.815 222.23 119.461 222.398 120.012 222.734C120.563 223.07 120.985 223.539 121.279 224.141C121.573 224.743 121.72 225.434 121.72 226.213C121.72 227.002 121.571 227.699 121.272 228.306C120.978 228.908 120.556 229.377 120.005 229.713C119.454 230.044 118.81 230.21 118.073 230.21ZM118.073 229.027C118.834 229.027 119.41 228.775 119.802 228.271C120.199 227.762 120.397 227.076 120.397 226.213C120.397 225.34 120.199 224.657 119.802 224.162C119.405 223.663 118.829 223.413 118.073 223.413C117.308 223.413 116.729 223.665 116.337 224.169C115.95 224.673 115.756 225.354 115.756 226.213C115.756 227.086 115.954 227.774 116.351 228.278C116.752 228.777 117.326 229.027 118.073 229.027ZM126.327 220.746C125.595 220.746 125.228 221.108 125.228 221.831V222.44H127.216V223.469H125.228V230H123.982V223.469H122.701V222.44H123.982V222.027C123.982 221.649 124.01 221.322 124.066 221.047C124.127 220.767 124.258 220.517 124.458 220.298C124.687 220.046 124.946 219.885 125.235 219.815C125.525 219.745 125.865 219.71 126.257 219.71H127.216V220.746H126.327ZM133.992 230.203C133.395 230.203 132.865 230.114 132.403 229.937C131.941 229.76 131.566 229.503 131.276 229.167C130.987 228.831 130.8 228.427 130.716 227.956L131.99 227.753C132.093 228.168 132.329 228.495 132.697 228.733C133.066 228.971 133.523 229.09 134.069 229.09C134.583 229.09 134.986 228.985 135.28 228.775C135.579 228.56 135.728 228.266 135.728 227.893C135.728 227.669 135.677 227.494 135.574 227.368C135.476 227.242 135.283 227.123 134.993 227.011C134.704 226.894 134.237 226.75 133.593 226.577C132.917 226.395 132.389 226.211 132.011 226.024C131.633 225.833 131.363 225.613 131.199 225.366C131.036 225.119 130.954 224.811 130.954 224.442C130.954 224.003 131.076 223.618 131.318 223.287C131.561 222.951 131.902 222.692 132.34 222.51C132.779 222.323 133.285 222.23 133.859 222.23C134.429 222.23 134.94 222.323 135.392 222.51C135.85 222.692 136.216 222.951 136.491 223.287C136.771 223.618 136.937 224.003 136.988 224.442L135.714 224.673C135.654 224.262 135.448 223.938 135.098 223.7C134.753 223.462 134.31 223.343 133.768 223.343C133.46 223.343 133.187 223.387 132.949 223.476C132.716 223.56 132.534 223.681 132.403 223.84C132.273 223.994 132.207 224.174 132.207 224.379C132.207 224.57 132.263 224.729 132.375 224.855C132.492 224.981 132.702 225.102 133.005 225.219C133.309 225.331 133.764 225.464 134.37 225.618C135.047 225.791 135.574 225.975 135.952 226.171C136.33 226.367 136.601 226.598 136.764 226.864C136.932 227.13 137.016 227.461 137.016 227.858C137.016 228.343 136.895 228.763 136.652 229.118C136.41 229.468 136.062 229.736 135.609 229.923C135.157 230.11 134.618 230.203 133.992 230.203ZM140.499 223.469V227.088V227.494C140.499 227.732 140.508 227.923 140.527 228.068C140.546 228.213 140.588 228.339 140.653 228.446C140.765 228.647 140.924 228.791 141.129 228.88C141.339 228.969 141.596 229.013 141.899 229.013C142.118 229.013 142.412 228.985 142.781 228.929V230C142.394 230.079 142.02 230.119 141.661 230.119C141.162 230.119 140.723 230.037 140.345 229.874C139.972 229.706 139.694 229.445 139.512 229.09C139.405 228.88 139.335 228.665 139.302 228.446C139.269 228.227 139.253 227.954 139.253 227.627V227.144V223.469H137.72V222.44H139.253V220.34H140.499V222.44H142.781V223.469H140.499ZM150.126 223.707C150.224 223.922 150.289 224.16 150.322 224.421C150.355 224.678 150.371 224.979 150.371 225.324V230H149.265V228.824C148.663 229.748 147.73 230.21 146.465 230.21C145.919 230.21 145.452 230.11 145.065 229.909C144.678 229.704 144.386 229.431 144.19 229.09C143.994 228.749 143.896 228.371 143.896 227.956C143.896 226.841 144.514 226.101 145.751 225.737C146.115 225.639 146.533 225.553 147.004 225.478C147.475 225.403 148.04 225.322 148.698 225.233L149.146 225.17C149.127 224.559 148.973 224.111 148.684 223.826C148.395 223.537 147.928 223.392 147.284 223.392C146.808 223.392 146.4 223.502 146.059 223.721C145.723 223.936 145.49 224.267 145.359 224.715L144.176 224.358C144.358 223.681 144.713 223.159 145.24 222.79C145.772 222.417 146.458 222.23 147.298 222.23C147.993 222.23 148.584 222.356 149.069 222.608C149.559 222.855 149.911 223.222 150.126 223.707ZM146.654 229.167C147.088 229.167 147.471 229.09 147.802 228.936C148.133 228.777 148.402 228.567 148.607 228.306C148.812 228.04 148.945 227.746 149.006 227.424C149.053 227.265 149.083 227.088 149.097 226.892C149.116 226.696 149.127 226.477 149.132 226.234L148.789 226.276C148.131 226.365 147.625 226.437 147.27 226.493C146.92 226.549 146.6 226.619 146.311 226.703C145.952 226.815 145.665 226.969 145.45 227.165C145.24 227.361 145.135 227.622 145.135 227.949C145.135 228.168 145.189 228.371 145.296 228.558C145.403 228.74 145.571 228.887 145.8 228.999C146.029 229.111 146.313 229.167 146.654 229.167ZM153.451 230H152.184L152.191 219.92H153.451V226.08L156.622 222.44H158.239L154.9 226.22L158.631 230H156.888L153.451 226.36V230ZM160.714 221.103H159.468V219.815H160.714V221.103ZM160.714 230H159.468V222.44H160.714V230ZM166.447 222.244C167.203 222.244 167.805 222.431 168.253 222.804C168.701 223.177 169.014 223.635 169.191 224.176C169.368 224.713 169.457 225.261 169.457 225.821V230H168.197V226.213C168.197 225.401 168.038 224.734 167.721 224.211C167.408 223.688 166.883 223.427 166.146 223.427C165.502 223.427 164.993 223.646 164.62 224.085C164.251 224.519 164.067 225.163 164.067 226.017V230H162.807V222.44H163.927V223.413C164.212 223.035 164.566 222.746 164.991 222.545C165.42 222.344 165.906 222.244 166.447 222.244ZM176.611 222.44H177.717V230.049C177.717 230.502 177.687 230.889 177.626 231.211C177.481 232 177.127 232.59 176.562 232.982C175.997 233.374 175.255 233.57 174.336 233.57C173.715 233.57 173.137 233.428 172.6 233.143C172.068 232.863 171.65 232.452 171.347 231.911L172.488 231.309C172.665 231.664 172.92 231.927 173.251 232.1C173.587 232.277 173.951 232.366 174.343 232.366C175.771 232.366 176.478 231.589 176.464 230.035V229.307C176.189 229.596 175.864 229.82 175.491 229.979C175.118 230.133 174.702 230.21 174.245 230.21C173.554 230.21 172.952 230.037 172.439 229.692C171.93 229.342 171.538 228.866 171.263 228.264C170.992 227.657 170.857 226.974 170.857 226.213C170.857 225.457 170.992 224.778 171.263 224.176C171.538 223.569 171.93 223.093 172.439 222.748C172.952 222.403 173.552 222.23 174.238 222.23C174.742 222.23 175.192 222.321 175.589 222.503C175.986 222.685 176.326 222.946 176.611 223.287V222.44ZM174.399 229.069C175.132 229.069 175.682 228.81 176.051 228.292C176.424 227.774 176.611 227.081 176.611 226.213C176.611 225.345 176.427 224.654 176.058 224.141C175.689 223.628 175.148 223.371 174.434 223.371C173.939 223.371 173.522 223.495 173.181 223.742C172.845 223.989 172.593 224.328 172.425 224.757C172.262 225.182 172.18 225.667 172.18 226.213C172.18 226.764 172.262 227.254 172.425 227.683C172.593 228.112 172.843 228.451 173.174 228.698C173.51 228.945 173.918 229.069 174.399 229.069ZM185.12 230H184.084L181.774 222.433L183.013 222.44L184.7 227.97L186.401 222.44H187.5L189.194 227.97L190.888 222.44H192.12L189.81 230H188.774L186.947 224.253L185.12 230ZM194.77 221.103H193.524V219.815H194.77V221.103ZM194.77 230H193.524V222.44H194.77V230ZM198.81 223.469V227.088V227.494C198.81 227.732 198.819 227.923 198.838 228.068C198.856 228.213 198.898 228.339 198.964 228.446C199.076 228.647 199.234 228.791 199.44 228.88C199.65 228.969 199.906 229.013 200.21 229.013C200.429 229.013 200.723 228.985 201.092 228.929V230C200.704 230.079 200.331 230.119 199.972 230.119C199.472 230.119 199.034 230.037 198.656 229.874C198.282 229.706 198.005 229.445 197.823 229.09C197.715 228.88 197.645 228.665 197.613 228.446C197.58 228.227 197.564 227.954 197.564 227.627V227.144V223.469H196.031V222.44H197.564V220.34H198.81V222.44H201.092V223.469H198.81ZM206.259 222.244C207.015 222.244 207.617 222.431 208.065 222.804C208.513 223.177 208.826 223.635 209.003 224.176C209.181 224.713 209.269 225.261 209.269 225.821V230H208.009V226.213C208.009 225.401 207.851 224.734 207.533 224.211C207.221 223.688 206.696 223.427 205.958 223.427C205.314 223.427 204.806 223.646 204.432 224.085C204.064 224.519 203.879 225.163 203.879 226.017V230H202.619V219.92H203.739V223.413C204.024 223.035 204.379 222.746 204.803 222.545C205.233 222.344 205.718 222.244 206.259 222.244ZM219.954 230H214.032V219.92H215.278V228.817H219.954V230ZM222.524 221.103H221.278V219.815H222.524V221.103ZM222.524 230H221.278V222.44H222.524V230ZM229.819 219.92H231.072V230H229.959V229.146C229.674 229.487 229.333 229.75 228.937 229.937C228.54 230.119 228.092 230.21 227.593 230.21C226.902 230.21 226.3 230.037 225.787 229.692C225.278 229.342 224.886 228.866 224.611 228.264C224.34 227.657 224.205 226.974 224.205 226.213C224.205 225.457 224.34 224.778 224.611 224.176C224.886 223.569 225.278 223.093 225.787 222.748C226.3 222.403 226.9 222.23 227.586 222.23C228.048 222.23 228.465 222.307 228.839 222.461C229.217 222.615 229.543 222.837 229.819 223.126V219.92ZM227.747 229.069C228.479 229.069 229.03 228.81 229.399 228.292C229.772 227.774 229.959 227.081 229.959 226.213C229.959 225.345 229.774 224.654 229.406 224.141C229.037 223.628 228.496 223.371 227.782 223.371C227.287 223.371 226.869 223.495 226.529 223.742C226.193 223.989 225.941 224.328 225.773 224.757C225.609 225.182 225.528 225.667 225.528 226.213C225.528 226.764 225.609 227.254 225.773 227.683C225.941 228.112 226.19 228.451 226.522 228.698C226.858 228.945 227.266 229.069 227.747 229.069ZM236.253 230.21C235.511 230.21 234.864 230.042 234.314 229.706C233.768 229.365 233.348 228.894 233.054 228.292C232.76 227.685 232.613 226.992 232.613 226.213C232.613 225.429 232.762 224.736 233.061 224.134C233.359 223.532 233.784 223.065 234.335 222.734C234.885 222.398 235.525 222.23 236.253 222.23C236.995 222.23 237.641 222.398 238.192 222.734C238.742 223.07 239.165 223.539 239.459 224.141C239.753 224.743 239.9 225.434 239.9 226.213C239.9 227.002 239.75 227.699 239.452 228.306C239.158 228.908 238.735 229.377 238.185 229.713C237.634 230.044 236.99 230.21 236.253 230.21ZM236.253 229.027C237.013 229.027 237.59 228.775 237.982 228.271C238.378 227.762 238.577 227.076 238.577 226.213C238.577 225.34 238.378 224.657 237.982 224.162C237.585 223.663 237.009 223.413 236.253 223.413C235.487 223.413 234.909 223.665 234.517 224.169C234.129 224.673 233.936 225.354 233.936 226.213C233.936 227.086 234.134 227.774 234.531 228.278C234.932 228.777 235.506 229.027 236.253 229.027ZM242.764 230H241.392V228.628H242.764V230Z" fill="#7A8AA0"/>
<path d="M56 262C56 256.477 60.4772 252 66 252H286C291.523 252 296 256.477 296 262V298C296 303.523 291.523 308 286 308H66C60.4772 308 56 303.523 56 298V262Z" fill="#00A3FF"/>
<path d="M140.699 286.24C139.851 286.24 139.08 286.088 138.387 285.784C137.699 285.48 137.136 285.045 136.699 284.48C136.261 283.915 135.984 283.248 135.867 282.48L138.139 282.144C138.245 282.576 138.429 282.949 138.691 283.264C138.952 283.573 139.267 283.808 139.635 283.968C140.008 284.128 140.411 284.208 140.843 284.208C141.211 284.208 141.563 284.152 141.899 284.04C142.235 283.923 142.507 283.752 142.715 283.528C142.928 283.304 143.035 283.04 143.035 282.736C143.035 282.48 142.952 282.256 142.787 282.064C142.621 281.872 142.331 281.712 141.915 281.584L138.923 280.704C138.485 280.581 138.083 280.424 137.715 280.232C137.352 280.04 137.027 279.736 136.739 279.32C136.456 278.904 136.315 278.363 136.315 277.696C136.315 276.955 136.501 276.325 136.875 275.808C137.253 275.291 137.763 274.904 138.403 274.648C139.048 274.387 139.771 274.256 140.571 274.256C141.776 274.256 142.781 274.549 143.587 275.136C144.397 275.717 144.944 276.549 145.227 277.632L142.875 278.032C142.789 277.659 142.627 277.341 142.387 277.08C142.152 276.819 141.869 276.621 141.539 276.488C141.213 276.355 140.867 276.288 140.499 276.288C140.163 276.288 139.851 276.341 139.563 276.448C139.275 276.555 139.043 276.707 138.867 276.904C138.691 277.101 138.603 277.328 138.603 277.584C138.603 277.92 138.741 278.179 139.019 278.36C139.296 278.541 139.669 278.693 140.139 278.816L142.139 279.36C142.709 279.515 143.213 279.693 143.651 279.896C144.093 280.099 144.483 280.419 144.819 280.856C145.155 281.293 145.323 281.867 145.323 282.576C145.323 283.365 145.107 284.037 144.675 284.592C144.248 285.141 143.683 285.555 142.979 285.832C142.275 286.104 141.515 286.24 140.699 286.24ZM149.769 279.04V282.208V282.664C149.769 282.941 149.78 283.165 149.801 283.336C149.822 283.507 149.87 283.648 149.945 283.76C150.164 284.107 150.596 284.28 151.241 284.28C151.486 284.28 151.828 284.251 152.265 284.192V286C151.71 286.101 151.193 286.152 150.713 286.152C150.062 286.152 149.497 286.056 149.017 285.864C148.537 285.667 148.18 285.355 147.945 284.928C147.801 284.661 147.705 284.389 147.657 284.112C147.609 283.835 147.585 283.507 147.585 283.128L147.593 282.336V279.04H146.121V277.36H147.593V274.96H149.769V277.36H152.265V279.04H149.769ZM161.086 278.688C161.241 278.976 161.337 279.269 161.374 279.568C161.417 279.861 161.438 280.245 161.438 280.72V286H159.534V284.944C159.15 285.403 158.729 285.733 158.27 285.936C157.812 286.139 157.252 286.24 156.59 286.24C155.993 286.24 155.476 286.125 155.038 285.896C154.606 285.661 154.276 285.344 154.046 284.944C153.822 284.544 153.71 284.101 153.71 283.616C153.71 282.987 153.857 282.456 154.15 282.024C154.444 281.592 154.926 281.253 155.598 281.008C155.972 280.869 156.428 280.752 156.966 280.656C157.505 280.555 158.281 280.429 159.294 280.28C159.252 279.875 159.102 279.579 158.846 279.392C158.596 279.2 158.217 279.104 157.71 279.104C157.342 279.104 156.993 279.189 156.662 279.36C156.332 279.531 156.105 279.797 155.982 280.16L154.014 279.536C154.238 278.789 154.66 278.2 155.278 277.768C155.897 277.336 156.708 277.12 157.71 277.12C159.412 277.12 160.537 277.643 161.086 278.688ZM159.054 283.376C159.193 283.093 159.268 282.648 159.278 282.04C158.526 282.168 157.974 282.269 157.622 282.344C157.27 282.419 156.974 282.501 156.734 282.592C156.42 282.72 156.19 282.864 156.046 283.024C155.908 283.179 155.838 283.365 155.838 283.584C155.838 283.877 155.945 284.109 156.158 284.28C156.377 284.445 156.676 284.528 157.054 284.528C157.422 284.528 157.745 284.464 158.022 284.336C158.3 284.203 158.521 284.048 158.686 283.872C158.857 283.696 158.98 283.531 159.054 283.376ZM165.726 286H163.502L163.518 274.48H165.726V281.52L168.654 277.36H171.342L168.222 281.68L171.55 286H168.718L165.726 281.84V286ZM174.054 282.288C174.134 282.907 174.345 283.381 174.686 283.712C175.033 284.043 175.497 284.208 176.078 284.208C176.5 284.208 176.862 284.115 177.166 283.928C177.476 283.741 177.71 283.472 177.87 283.12L180.046 283.744C179.833 284.261 179.532 284.709 179.142 285.088C178.753 285.461 178.305 285.747 177.798 285.944C177.292 286.141 176.761 286.24 176.206 286.24C175.332 286.24 174.553 286.051 173.87 285.672C173.193 285.293 172.662 284.765 172.278 284.088C171.9 283.411 171.71 282.645 171.71 281.792C171.71 280.864 171.894 280.048 172.262 279.344C172.636 278.635 173.153 278.088 173.814 277.704C174.476 277.315 175.23 277.12 176.078 277.12C176.91 277.12 177.633 277.304 178.246 277.672C178.86 278.04 179.329 278.563 179.654 279.24C179.985 279.917 180.15 280.712 180.15 281.624C180.15 281.768 180.14 281.989 180.118 282.288H174.054ZM176.174 279.008C175.028 279.008 174.34 279.563 174.11 280.672H177.918C177.844 280.091 177.665 279.669 177.382 279.408C177.105 279.141 176.702 279.008 176.174 279.008ZM189.848 277.104C190.861 277.104 191.616 277.363 192.112 277.88C192.613 278.397 192.922 278.944 193.04 279.52C193.162 280.096 193.224 280.64 193.224 281.152V286H191.016V281.92C191.016 281.483 190.984 281.072 190.92 280.688C190.856 280.304 190.685 279.952 190.408 279.632C190.136 279.312 189.72 279.152 189.16 279.152C188.658 279.152 188.226 279.325 187.864 279.672C187.501 280.013 187.32 280.661 187.32 281.616V286H185.112V277.36H187.048V278.248C187.373 277.885 187.77 277.605 188.24 277.408C188.709 277.205 189.245 277.104 189.848 277.104ZM199.031 286.24C198.173 286.24 197.413 286.048 196.751 285.664C196.09 285.275 195.575 284.736 195.207 284.048C194.845 283.355 194.663 282.565 194.663 281.68C194.663 280.789 194.847 280 195.215 279.312C195.589 278.619 196.106 278.08 196.767 277.696C197.434 277.312 198.189 277.12 199.031 277.12C199.89 277.12 200.65 277.315 201.311 277.704C201.978 278.088 202.495 278.627 202.863 279.32C203.231 280.013 203.415 280.8 203.415 281.68C203.415 282.565 203.229 283.355 202.855 284.048C202.487 284.736 201.97 285.275 201.303 285.664C200.642 286.048 199.885 286.24 199.031 286.24ZM199.031 284.208C199.709 284.208 200.223 283.979 200.575 283.52C200.933 283.061 201.111 282.448 201.111 281.68C201.111 280.896 200.933 280.28 200.575 279.832C200.218 279.379 199.703 279.152 199.031 279.152C198.343 279.152 197.826 279.379 197.479 279.832C197.138 280.28 196.967 280.896 196.967 281.68C196.967 282.469 197.143 283.088 197.495 283.536C197.853 283.984 198.365 284.208 199.031 284.208ZM208.366 286H206.702L204.062 277.344L206.19 277.36L207.758 282.512L209.35 277.36H211.158L212.75 282.512L214.318 277.36H216.446L213.806 286H212.142L210.254 280.368L208.366 286Z" fill="white"/>
<defs>
<filter id="filter0_d" x="0" y="0" width="352" height="370" filterUnits="userSpaceOnUse" color-interpolation-filters="sRGB">
<feFlood flood-opacity="0" result="BackgroundImageFix"/>
<feColorMatrix in="SourceAlpha" type="matrix" values="0 0 0 0 0 0 0 0 0 0 0 0 0 0 0 0 0 0 127 0" result="hardAlpha"/>
<feOffset dy="6"/>
<feGaussianBlur stdDeviation="8"/>
<feColorMatrix type="matrix" values="0 0 0 0 0 0 0 0 0 0 0 0 0 0 0 0 0 0 0.1 0"/>
<feBlend mode="normal" in2="BackgroundImageFix" result="effect1_dropShadow"/>
<feBlend mode="normal" in="SourceGraphic" in2="effect1_dropShadow" result="shape"/>
</filter>
<radialGradient id="paint0_radial" cx="0" cy="0" r="1" gradientUnits="userSpaceOnUse" gradientTransform="translate(67.4185 82.0073) rotate(-90) scale(15.2118 19.881)">
<stop offset="0.203695" stop-color="#56F2FF"/>
<stop offset="1" stop-color="#4A8CEA"/>
</radialGradient>
<radialGradient id="paint1_radial" cx="0" cy="0" r="1" gradientUnits="userSpaceOnUse" gradientTransform="translate(67.4372 62.393) rotate(90.1607) scale(4.60516 8.71861)">
<stop stop-color="#EEFF83"/>
<stop offset="0.689596" stop-color="#5699EC"/>
</radialGradient>
<radialGradient id="paint2_diamond" cx="0" cy="0" r="1" gradientUnits="userSpaceOnUse" gradientTransform="translate(67.4338 64.3605) rotate(90.16) scale(5.36544 10.1168)">
<stop stop-color="#56F2FF"/>
<stop offset="1" stop-color="#5699EC"/>
</radialGradient>
<linearGradient id="paint3_linear" x1="63.3997" y1="50.0078" x2="63.3997" y2="67.0129" gradientUnits="userSpaceOnUse">
<stop offset="0.377179" stop-color="#FFE336"/>
<stop offset="1" stop-color="#13C0B6" stop-opacity="0.7"/>
</linearGradient>
<linearGradient id="paint4_linear" x1="71.4802" y1="50" x2="71.4802" y2="67.012" gradientUnits="userSpaceOnUse">
<stop offset="0.408817" stop-color="#FF7F72"/>
<stop offset="1" stop-color="#2978EF" stop-opacity="0.7"/>
</linearGradient>
</defs>
</svg>
