<svg width="362" height="296" viewBox="0 0 362 296" fill="none" xmlns="http://www.w3.org/2000/svg">
<g filter="url(#filter0_d)">
<path d="M16 30C16 18.9543 24.9543 10 36 10H326C337.046 10 346 18.9543 346 30V254C346 265.046 337.046 274 326 274H36C24.9543 274 16 265.046 16 254V30Z" fill="white"/>
</g>
<path d="M67.4275 69.7356L58.0532 64.381L57.7973 64.7737C54.91 69.2028 55.5548 75.0033 59.3475 78.7195C63.8107 83.0925 71.0468 83.0925 75.5099 78.7195C79.3026 75.0033 79.9474 69.2028 77.0602 64.7737L76.8041 64.3809L67.4275 69.7356Z" fill="url(#paint0_radial)"/>
<path opacity="0.6" d="M67.4401 57.7754L59.3594 62.3959L67.4401 67.0107L75.515 62.396L67.4401 57.7754Z" fill="url(#paint1_radial)"/>
<path d="M67.4504 58.9805L58.0605 64.3833L67.4294 69.7404L76.807 64.3816L67.4504 58.9805Z" fill="url(#paint2_diamond)"/>
<path d="M67.4401 50.0078L59.3594 62.3982L67.4401 67.0129V50.0078Z" fill="url(#paint3_linear)"/>
<path d="M67.4395 67.012L75.5209 62.3965L67.4399 50L67.4395 67.012Z" fill="url(#paint4_linear)"/>
<path d="M96.2227 59.1163H99.0145V71.0982H105.878V73.7737H96.2227V59.1163Z" fill="#273852"/>
<path d="M118.082 59.1163H120.874V73.7737H118.082V59.1163Z" fill="#273852"/>
<path d="M134.239 59.1163H138.892C139.854 59.1163 140.769 59.318 141.637 59.7212C142.506 60.109 143.274 60.6364 143.941 61.3033C144.608 61.9703 145.135 62.7458 145.523 63.6299C145.911 64.514 146.104 65.4524 146.104 66.445C146.104 67.4377 145.911 68.3761 145.523 69.2602C145.135 70.1443 144.608 70.9198 143.941 71.5868C143.274 72.2537 142.506 72.7888 141.637 73.1921C140.769 73.5798 139.854 73.7737 138.892 73.7737H134.239V59.1163ZM138.892 71.0982C139.466 71.0982 140.017 70.9741 140.544 70.7259C141.087 70.4778 141.56 70.1443 141.963 69.7255C142.382 69.3067 142.708 68.8181 142.94 68.2598C143.189 67.6859 143.313 67.081 143.313 66.445C143.313 65.8091 143.189 65.2119 142.94 64.6536C142.708 64.0797 142.382 63.5833 141.963 63.1646C141.56 62.7458 141.087 62.4123 140.544 62.1641C140.017 61.916 139.466 61.7919 138.892 61.7919H137.031V71.0982H138.892Z" fill="#273852"/>
<path d="M164.948 73.8901C163.986 73.8901 163.071 73.7039 162.202 73.3317C161.349 72.9439 160.597 72.4166 159.946 71.7496C159.31 71.0672 158.798 70.2761 158.41 69.3765C158.038 68.4769 157.852 67.4997 157.852 66.445C157.852 65.4058 158.038 64.4364 158.41 63.5368C158.798 62.6217 159.31 61.8307 159.946 61.1637C160.597 60.4813 161.349 59.9539 162.202 59.5816C163.071 59.1939 163.986 59 164.948 59C165.909 59 166.817 59.1939 167.67 59.5816C168.538 59.9539 169.291 60.4813 169.927 61.1637C170.578 61.8307 171.09 62.6217 171.462 63.5368C171.85 64.4364 172.044 65.4058 172.044 66.445C172.044 67.4997 171.85 68.4769 171.462 69.3765C171.09 70.2761 170.578 71.0672 169.927 71.7496C169.291 72.4166 168.538 72.9439 167.67 73.3317C166.817 73.7039 165.909 73.8901 164.948 73.8901ZM164.948 71.2145C165.522 71.2145 166.072 71.0982 166.6 70.8655C167.127 70.6329 167.584 70.3071 167.972 69.8884C168.36 69.4541 168.67 68.95 168.903 68.3761C169.136 67.7867 169.252 67.143 169.252 66.445C169.252 65.7471 169.136 65.1111 168.903 64.5372C168.67 63.9478 168.36 63.4438 167.972 63.025C167.584 62.5907 167.127 62.2572 166.6 62.0245C166.072 61.7919 165.522 61.6756 164.948 61.6756C164.358 61.6756 163.8 61.7919 163.273 62.0245C162.761 62.2572 162.311 62.5907 161.923 63.025C161.535 63.4438 161.225 63.9478 160.993 64.5372C160.76 65.1111 160.644 65.7471 160.644 66.445C160.644 67.143 160.76 67.7867 160.993 68.3761C161.225 68.95 161.535 69.4541 161.923 69.8884C162.311 70.3071 162.761 70.6329 163.273 70.8655C163.8 71.0982 164.358 71.2145 164.948 71.2145Z" fill="#273852"/>
<path d="M64.55 129.375C63.225 129.375 62.0208 129.138 60.9375 128.662C59.8625 128.187 58.9833 127.508 58.3 126.625C57.6167 125.742 57.1833 124.7 57 123.5L60.55 122.975C60.7167 123.65 61.0042 124.233 61.4125 124.725C61.8208 125.208 62.3125 125.575 62.8875 125.825C63.4708 126.075 64.1 126.2 64.775 126.2C65.35 126.2 65.9 126.112 66.425 125.937C66.95 125.754 67.375 125.487 67.7 125.137C68.0333 124.787 68.2 124.375 68.2 123.9C68.2 123.5 68.0708 123.15 67.8125 122.85C67.5542 122.55 67.1 122.3 66.45 122.1L61.775 120.725C61.0917 120.533 60.4625 120.287 59.8875 119.987C59.3208 119.687 58.8125 119.212 58.3625 118.562C57.9208 117.912 57.7 117.067 57.7 116.025C57.7 114.867 57.9917 113.883 58.575 113.075C59.1667 112.267 59.9625 111.662 60.9625 111.262C61.9708 110.854 63.1 110.65 64.35 110.65C66.2333 110.65 67.8042 111.108 69.0625 112.025C70.3292 112.933 71.1833 114.233 71.625 115.925L67.95 116.55C67.8167 115.967 67.5625 115.471 67.1875 115.062C66.8208 114.654 66.3792 114.346 65.8625 114.137C65.3542 113.929 64.8125 113.825 64.2375 113.825C63.7125 113.825 63.225 113.908 62.775 114.075C62.325 114.242 61.9625 114.479 61.6875 114.787C61.4125 115.096 61.275 115.45 61.275 115.85C61.275 116.375 61.4917 116.779 61.925 117.062C62.3583 117.346 62.9417 117.583 63.675 117.775L66.8 118.625C67.6917 118.867 68.4792 119.146 69.1625 119.462C69.8542 119.779 70.4625 120.279 70.9875 120.962C71.5125 121.646 71.775 122.542 71.775 123.65C71.775 124.883 71.4375 125.933 70.7625 126.8C70.0958 127.658 69.2125 128.304 68.1125 128.737C67.0125 129.163 65.825 129.375 64.55 129.375ZM80.9725 115.125C82.2391 115.125 83.3558 115.429 84.3225 116.037C85.2975 116.646 86.0475 117.492 86.5725 118.575C87.1058 119.658 87.3725 120.883 87.3725 122.25C87.3725 123.592 87.11 124.804 86.585 125.887C86.0683 126.971 85.335 127.825 84.385 128.45C83.4433 129.067 82.3641 129.375 81.1475 129.375C79.9141 129.375 78.8391 129.088 77.9225 128.512V135H74.4975V115.5H77.4975V116.25C78.4558 115.5 79.6141 115.125 80.9725 115.125ZM80.5975 126.35C81.6475 126.35 82.4391 125.971 82.9725 125.212C83.5058 124.446 83.7725 123.458 83.7725 122.25C83.7725 121.475 83.6516 120.779 83.41 120.162C83.1683 119.546 82.8016 119.058 82.31 118.7C81.8183 118.333 81.2058 118.15 80.4725 118.15C79.4475 118.15 78.6933 118.512 78.21 119.237C77.735 119.962 77.4975 120.967 77.4975 122.25C77.4975 124.983 78.5308 126.35 80.5975 126.35ZM94.573 116.15C95.3314 115.683 96.2314 115.45 97.273 115.45C97.5564 115.45 97.8147 115.467 98.048 115.5V118.675C97.7897 118.592 97.4689 118.55 97.0855 118.55C96.4522 118.55 95.8897 118.667 95.398 118.9C94.798 119.175 94.3397 119.583 94.023 120.125C93.7064 120.667 93.548 121.325 93.548 122.1V129H90.123V115.5H93.123V117.675C93.498 117 93.9814 116.492 94.573 116.15ZM103.094 123.2C103.219 124.167 103.548 124.908 104.082 125.425C104.623 125.942 105.348 126.2 106.257 126.2C106.915 126.2 107.482 126.054 107.957 125.762C108.44 125.471 108.807 125.05 109.057 124.5L112.457 125.475C112.123 126.283 111.652 126.983 111.044 127.575C110.436 128.158 109.736 128.604 108.944 128.912C108.152 129.221 107.323 129.375 106.457 129.375C105.09 129.375 103.873 129.079 102.807 128.487C101.748 127.896 100.919 127.071 100.319 126.012C99.7275 124.954 99.4316 123.758 99.4316 122.425C99.4316 120.975 99.7191 119.7 100.294 118.6C100.877 117.492 101.686 116.637 102.719 116.037C103.752 115.429 104.932 115.125 106.257 115.125C107.557 115.125 108.686 115.412 109.644 115.987C110.602 116.562 111.336 117.379 111.844 118.437C112.361 119.496 112.619 120.737 112.619 122.162C112.619 122.387 112.602 122.733 112.569 123.2H103.094ZM106.407 118.075C104.615 118.075 103.54 118.942 103.182 120.675H109.132C109.015 119.767 108.736 119.108 108.294 118.7C107.861 118.283 107.232 118.075 106.407 118.075ZM125.922 117.575C126.164 118.025 126.314 118.483 126.372 118.95C126.439 119.408 126.472 120.008 126.472 120.75V129H123.497V127.35C122.897 128.067 122.239 128.583 121.522 128.9C120.806 129.217 119.931 129.375 118.897 129.375C117.964 129.375 117.156 129.196 116.472 128.837C115.797 128.471 115.281 127.975 114.922 127.35C114.572 126.725 114.397 126.033 114.397 125.275C114.397 124.292 114.627 123.462 115.085 122.787C115.543 122.112 116.297 121.583 117.347 121.2C117.931 120.983 118.643 120.8 119.485 120.65C120.327 120.492 121.539 120.296 123.122 120.062C123.056 119.429 122.822 118.967 122.422 118.675C122.031 118.375 121.439 118.225 120.647 118.225C120.072 118.225 119.527 118.358 119.01 118.625C118.493 118.892 118.139 119.308 117.947 119.875L114.872 118.9C115.222 117.733 115.881 116.812 116.847 116.137C117.814 115.462 119.081 115.125 120.647 115.125C123.306 115.125 125.064 115.942 125.922 117.575ZM122.747 124.9C122.964 124.458 123.081 123.762 123.097 122.812C121.922 123.012 121.06 123.171 120.51 123.287C119.96 123.404 119.497 123.533 119.122 123.675C118.631 123.875 118.272 124.1 118.047 124.35C117.831 124.592 117.722 124.883 117.722 125.225C117.722 125.683 117.889 126.046 118.222 126.312C118.564 126.571 119.031 126.7 119.622 126.7C120.197 126.7 120.702 126.6 121.135 126.4C121.568 126.192 121.914 125.95 122.172 125.675C122.439 125.4 122.631 125.142 122.747 124.9ZM138.423 111H141.848V129H138.848V128.225C137.839 128.992 136.623 129.375 135.198 129.375C133.981 129.375 132.898 129.067 131.948 128.45C131.006 127.825 130.273 126.971 129.748 125.887C129.231 124.804 128.973 123.592 128.973 122.25C128.973 120.883 129.235 119.658 129.76 118.575C130.293 117.492 131.043 116.646 132.01 116.037C132.985 115.429 134.106 115.125 135.373 115.125C136.531 115.125 137.548 115.4 138.423 115.95V111ZM135.748 126.35C137.814 126.35 138.848 124.983 138.848 122.25C138.848 120.967 138.606 119.962 138.123 119.237C137.648 118.512 136.898 118.15 135.873 118.15C135.139 118.15 134.527 118.333 134.035 118.7C133.543 119.058 133.177 119.546 132.935 120.162C132.693 120.779 132.573 121.475 132.573 122.25C132.573 123.458 132.839 124.446 133.373 125.212C133.906 125.971 134.698 126.35 135.748 126.35ZM154.553 118.125V123.075V123.787C154.553 124.221 154.569 124.571 154.603 124.837C154.636 125.104 154.711 125.325 154.828 125.5C155.169 126.042 155.844 126.312 156.853 126.312C157.236 126.312 157.769 126.267 158.453 126.175V129C157.586 129.158 156.778 129.238 156.028 129.238C155.011 129.238 154.128 129.088 153.378 128.787C152.628 128.479 152.069 127.992 151.703 127.325C151.478 126.908 151.328 126.483 151.253 126.05C151.178 125.617 151.14 125.104 151.14 124.512L151.153 123.275V118.125H148.853V115.5H151.153V111.75H154.553V115.5H158.453V118.125H154.553ZM168.836 115.1C170.419 115.1 171.598 115.504 172.373 116.312C173.157 117.121 173.64 117.975 173.823 118.875C174.015 119.775 174.111 120.625 174.111 121.425V129H170.661V122.625C170.661 121.942 170.611 121.3 170.511 120.7C170.411 120.1 170.144 119.55 169.711 119.05C169.286 118.55 168.636 118.3 167.761 118.3C166.978 118.3 166.303 118.571 165.736 119.112C165.169 119.646 164.886 120.658 164.886 122.15V129H161.436V111H164.461V116.887C164.969 116.321 165.59 115.883 166.323 115.575C167.057 115.258 167.894 115.1 168.836 115.1ZM180.267 123.2C180.392 124.167 180.721 124.908 181.254 125.425C181.796 125.942 182.521 126.2 183.429 126.2C184.088 126.2 184.654 126.054 185.129 125.762C185.613 125.471 185.979 125.05 186.229 124.5L189.629 125.475C189.296 126.283 188.825 126.983 188.217 127.575C187.609 128.158 186.909 128.604 186.117 128.912C185.325 129.221 184.496 129.375 183.629 129.375C182.263 129.375 181.046 129.079 179.979 128.487C178.921 127.896 178.092 127.071 177.492 126.012C176.9 124.954 176.604 123.758 176.604 122.425C176.604 120.975 176.892 119.7 177.467 118.6C178.05 117.492 178.859 116.637 179.892 116.037C180.925 115.429 182.104 115.125 183.429 115.125C184.729 115.125 185.859 115.412 186.817 115.987C187.775 116.562 188.509 117.379 189.017 118.437C189.534 119.496 189.792 120.737 189.792 122.162C189.792 122.387 189.775 122.733 189.742 123.2H180.267ZM183.579 118.075C181.788 118.075 180.713 118.942 180.354 120.675H186.304C186.188 119.767 185.909 119.108 185.467 118.7C185.034 118.283 184.404 118.075 183.579 118.075ZM204.019 115.125C205.286 115.125 206.403 115.429 207.369 116.037C208.344 116.646 209.094 117.492 209.619 118.575C210.153 119.658 210.419 120.883 210.419 122.25C210.419 123.592 210.157 124.804 209.632 125.887C209.115 126.971 208.382 127.825 207.432 128.45C206.49 129.067 205.411 129.375 204.194 129.375C202.961 129.375 201.886 129.088 200.969 128.512V135H197.544V115.5H200.544V116.25C201.503 115.5 202.661 115.125 204.019 115.125ZM203.644 126.35C204.694 126.35 205.486 125.971 206.019 125.212C206.553 124.446 206.819 123.458 206.819 122.25C206.819 121.475 206.699 120.779 206.457 120.162C206.215 119.546 205.849 119.058 205.357 118.7C204.865 118.333 204.253 118.15 203.519 118.15C202.494 118.15 201.74 118.512 201.257 119.237C200.782 119.962 200.544 120.967 200.544 122.25C200.544 124.983 201.578 126.35 203.644 126.35ZM219.245 129.375C217.903 129.375 216.716 129.075 215.682 128.475C214.649 127.867 213.845 127.025 213.27 125.95C212.703 124.867 212.42 123.633 212.42 122.25C212.42 120.858 212.707 119.625 213.282 118.55C213.866 117.467 214.674 116.625 215.707 116.025C216.749 115.425 217.928 115.125 219.245 115.125C220.587 115.125 221.774 115.429 222.807 116.037C223.849 116.637 224.657 117.479 225.232 118.562C225.807 119.646 226.095 120.875 226.095 122.25C226.095 123.633 225.803 124.867 225.22 125.95C224.645 127.025 223.837 127.867 222.795 128.475C221.762 129.075 220.578 129.375 219.245 129.375ZM219.245 126.2C220.303 126.2 221.107 125.842 221.657 125.125C222.216 124.408 222.495 123.45 222.495 122.25C222.495 121.025 222.216 120.062 221.657 119.362C221.099 118.654 220.295 118.3 219.245 118.3C218.17 118.3 217.362 118.654 216.82 119.362C216.287 120.062 216.02 121.025 216.02 122.25C216.02 123.483 216.295 124.45 216.845 125.15C217.403 125.85 218.203 126.2 219.245 126.2ZM233.83 129H231.23L227.105 115.475L230.43 115.5L232.88 123.55L235.368 115.5H238.193L240.68 123.55L243.13 115.5H246.455L242.33 129H239.73L236.78 120.2L233.83 129ZM251.141 123.2C251.266 124.167 251.595 124.908 252.129 125.425C252.67 125.942 253.395 126.2 254.304 126.2C254.962 126.2 255.529 126.054 256.004 125.762C256.487 125.471 256.854 125.05 257.104 124.5L260.504 125.475C260.17 126.283 259.699 126.983 259.091 127.575C258.483 128.158 257.783 128.604 256.991 128.912C256.199 129.221 255.37 129.375 254.504 129.375C253.137 129.375 251.92 129.079 250.854 128.487C249.795 127.896 248.966 127.071 248.366 126.012C247.774 124.954 247.479 123.758 247.479 122.425C247.479 120.975 247.766 119.7 248.341 118.6C248.924 117.492 249.733 116.637 250.766 116.037C251.799 115.429 252.979 115.125 254.304 115.125C255.604 115.125 256.733 115.412 257.691 115.987C258.649 116.562 259.383 117.379 259.891 118.437C260.408 119.496 260.666 120.737 260.666 122.162C260.666 122.387 260.649 122.733 260.616 123.2H251.141ZM254.454 118.075C252.662 118.075 251.587 118.942 251.229 120.675H257.179C257.062 119.767 256.783 119.108 256.341 118.7C255.908 118.283 255.279 118.075 254.454 118.075ZM267.888 116.15C268.647 115.683 269.547 115.45 270.588 115.45C270.872 115.45 271.13 115.467 271.363 115.5V118.675C271.105 118.592 270.784 118.55 270.401 118.55C269.768 118.55 269.205 118.667 268.713 118.9C268.113 119.175 267.655 119.583 267.338 120.125C267.022 120.667 266.863 121.325 266.863 122.1V129H263.438V115.5H266.438V117.675C266.813 117 267.297 116.492 267.888 116.15ZM284.821 129.375C283.479 129.375 282.292 129.075 281.259 128.475C280.225 127.867 279.421 127.025 278.846 125.95C278.279 124.867 277.996 123.633 277.996 122.25C277.996 120.858 278.284 119.625 278.859 118.55C279.442 117.467 280.25 116.625 281.284 116.025C282.325 115.425 283.504 115.125 284.821 115.125C286.163 115.125 287.35 115.429 288.384 116.037C289.425 116.637 290.234 117.479 290.809 118.562C291.384 119.646 291.671 120.875 291.671 122.25C291.671 123.633 291.379 124.867 290.796 125.95C290.221 127.025 289.413 127.867 288.371 128.475C287.338 129.075 286.154 129.375 284.821 129.375ZM284.821 126.2C285.879 126.2 286.684 125.842 287.234 125.125C287.792 124.408 288.071 123.45 288.071 122.25C288.071 121.025 287.792 120.062 287.234 119.362C286.675 118.654 285.871 118.3 284.821 118.3C283.746 118.3 282.938 118.654 282.396 119.362C281.863 120.062 281.596 121.025 281.596 122.25C281.596 123.483 281.871 124.45 282.421 125.15C282.979 125.85 283.779 126.2 284.821 126.2ZM300.52 113.375C300.003 113.375 299.612 113.504 299.345 113.762C299.078 114.021 298.945 114.35 298.945 114.75V115.5H302.07V118.125H298.945V129H295.545V118.125H293.42V115.5H295.545C295.545 114.933 295.553 114.479 295.57 114.137C295.595 113.787 295.674 113.404 295.807 112.987C295.941 112.571 296.153 112.2 296.445 111.875C296.903 111.367 297.412 111.033 297.97 110.875C298.537 110.708 299.153 110.625 299.82 110.625H300.395H302.07V113.375H300.52ZM69.5 163H57.75V145H69.5V148.175H61.15V152.025H68V155.2H61.15V159.825H69.5V163ZM76.6961 152.125V157.075V157.787C76.6961 158.221 76.7128 158.571 76.7461 158.837C76.7794 159.104 76.8544 159.325 76.9711 159.5C77.3128 160.042 77.9878 160.312 78.9961 160.312C79.3794 160.312 79.9128 160.267 80.5961 160.175V163C79.7294 163.158 78.9211 163.238 78.1711 163.238C77.1544 163.238 76.2711 163.088 75.5211 162.787C74.7711 162.479 74.2128 161.992 73.8461 161.325C73.6211 160.908 73.4711 160.483 73.3961 160.05C73.3211 159.617 73.2836 159.104 73.2836 158.512L73.2961 157.275V152.125H70.9961V149.5H73.2961V145.75H76.6961V149.5H80.5961V152.125H76.6961ZM90.9795 149.1C92.5628 149.1 93.742 149.504 94.517 150.312C95.3003 151.121 95.7837 151.975 95.967 152.875C96.1587 153.775 96.2545 154.625 96.2545 155.425V163H92.8045V156.625C92.8045 155.942 92.7545 155.3 92.6545 154.7C92.5545 154.1 92.2878 153.55 91.8545 153.05C91.4295 152.55 90.7795 152.3 89.9045 152.3C89.1212 152.3 88.4462 152.571 87.8795 153.112C87.3128 153.646 87.0295 154.658 87.0295 156.15V163H83.5795V145H86.6045V150.887C87.1128 150.321 87.7337 149.883 88.467 149.575C89.2003 149.258 90.0378 149.1 90.9795 149.1ZM102.411 157.2C102.536 158.167 102.865 158.908 103.398 159.425C103.94 159.942 104.665 160.2 105.573 160.2C106.231 160.2 106.798 160.054 107.273 159.762C107.756 159.471 108.123 159.05 108.373 158.5L111.773 159.475C111.44 160.283 110.969 160.983 110.361 161.575C109.752 162.158 109.052 162.604 108.261 162.912C107.469 163.221 106.64 163.375 105.773 163.375C104.406 163.375 103.19 163.079 102.123 162.487C101.065 161.896 100.236 161.071 99.6355 160.012C99.0439 158.954 98.748 157.758 98.748 156.425C98.748 154.975 99.0355 153.7 99.6105 152.6C100.194 151.492 101.002 150.637 102.036 150.037C103.069 149.429 104.248 149.125 105.573 149.125C106.873 149.125 108.002 149.412 108.961 149.987C109.919 150.562 110.652 151.379 111.161 152.437C111.677 153.496 111.936 154.737 111.936 156.162C111.936 156.387 111.919 156.733 111.886 157.2H102.411ZM105.723 152.075C103.931 152.075 102.856 152.942 102.498 154.675H108.448C108.331 153.767 108.052 153.108 107.611 152.7C107.177 152.283 106.548 152.075 105.723 152.075ZM119.158 150.15C119.916 149.683 120.816 149.45 121.858 149.45C122.141 149.45 122.4 149.467 122.633 149.5V152.675C122.375 152.592 122.054 152.55 121.671 152.55C121.037 152.55 120.475 152.667 119.983 152.9C119.383 153.175 118.925 153.583 118.608 154.125C118.291 154.667 118.133 155.325 118.133 156.1V163H114.708V149.5H117.708V151.675C118.083 151 118.566 150.492 119.158 150.15ZM127.679 157.2C127.804 158.167 128.133 158.908 128.667 159.425C129.208 159.942 129.933 160.2 130.842 160.2C131.5 160.2 132.067 160.054 132.542 159.762C133.025 159.471 133.392 159.05 133.642 158.5L137.042 159.475C136.708 160.283 136.237 160.983 135.629 161.575C135.021 162.158 134.321 162.604 133.529 162.912C132.737 163.221 131.908 163.375 131.042 163.375C129.675 163.375 128.458 163.079 127.392 162.487C126.333 161.896 125.504 161.071 124.904 160.012C124.312 158.954 124.017 157.758 124.017 156.425C124.017 154.975 124.304 153.7 124.879 152.6C125.462 151.492 126.271 150.637 127.304 150.037C128.337 149.429 129.517 149.125 130.842 149.125C132.142 149.125 133.271 149.412 134.229 149.987C135.187 150.562 135.921 151.379 136.429 152.437C136.946 153.496 137.204 154.737 137.204 156.162C137.204 156.387 137.187 156.733 137.154 157.2H127.679ZM130.992 152.075C129.2 152.075 128.125 152.942 127.767 154.675H133.717C133.6 153.767 133.321 153.108 132.879 152.7C132.446 152.283 131.817 152.075 130.992 152.075ZM148.952 149.5H152.377V163H149.377V161.612C148.868 162.179 148.247 162.621 147.514 162.937C146.781 163.246 145.943 163.4 145.002 163.4C143.418 163.4 142.235 162.996 141.452 162.187C140.677 161.379 140.193 160.525 140.002 159.625C139.818 158.725 139.727 157.875 139.727 157.075V149.5H143.177V155.875C143.177 156.558 143.227 157.2 143.327 157.8C143.427 158.4 143.689 158.95 144.114 159.45C144.547 159.95 145.202 160.2 146.077 160.2C146.86 160.2 147.535 159.933 148.102 159.4C148.668 158.858 148.952 157.842 148.952 156.35V149.5ZM170.845 149.175C171.853 149.175 172.708 149.379 173.408 149.787C174.108 150.196 174.633 150.775 174.983 151.525C175.341 152.267 175.52 153.133 175.52 154.125V163H172.12V155.025C172.12 154.142 171.908 153.45 171.483 152.95C171.066 152.45 170.487 152.2 169.745 152.2C169.278 152.2 168.866 152.312 168.508 152.537C168.158 152.754 167.883 153.062 167.683 153.462C167.491 153.854 167.395 154.308 167.395 154.825V163H163.995V155.025C163.995 154.142 163.783 153.45 163.358 152.95C162.941 152.45 162.362 152.2 161.62 152.2C161.153 152.2 160.741 152.312 160.383 152.537C160.033 152.754 159.758 153.062 159.558 153.462C159.366 153.854 159.27 154.308 159.27 154.825V163H155.845V149.5H158.845V150.975C159.303 150.408 159.874 149.967 160.558 149.65C161.249 149.333 161.995 149.175 162.795 149.175C163.728 149.175 164.524 149.362 165.183 149.737C165.841 150.104 166.353 150.617 166.72 151.275C167.162 150.617 167.745 150.104 168.47 149.737C169.195 149.362 169.987 149.175 170.845 149.175ZM189.05 163.375C187.35 163.375 185.975 162.992 184.925 162.225C183.884 161.458 183.25 160.367 183.025 158.95L186.5 158.425C186.642 159.067 186.955 159.567 187.438 159.925C187.93 160.275 188.55 160.45 189.3 160.45C189.909 160.45 190.38 160.333 190.713 160.1C191.055 159.858 191.225 159.525 191.225 159.1C191.225 158.817 191.155 158.6 191.013 158.45C190.88 158.292 190.596 158.137 190.163 157.987C189.738 157.837 189.009 157.625 187.975 157.35C186.859 157.067 185.975 156.75 185.325 156.4C184.675 156.05 184.205 155.633 183.913 155.15C183.621 154.667 183.475 154.075 183.475 153.375C183.475 152.517 183.696 151.767 184.138 151.125C184.58 150.483 185.205 149.992 186.013 149.65C186.821 149.3 187.767 149.125 188.85 149.125C189.9 149.125 190.834 149.287 191.65 149.612C192.475 149.937 193.138 150.404 193.638 151.012C194.146 151.612 194.459 152.317 194.575 153.125L191.1 153.75C191.042 153.25 190.825 152.854 190.45 152.562C190.075 152.271 189.567 152.1 188.925 152.05L188.663 152.037C188.113 152.037 187.671 152.142 187.338 152.35C187.013 152.558 186.85 152.842 186.85 153.2C186.85 153.442 186.934 153.642 187.1 153.8C187.267 153.95 187.592 154.108 188.075 154.275C188.559 154.433 189.35 154.65 190.45 154.925C191.484 155.192 192.309 155.504 192.925 155.862C193.542 156.212 193.992 156.633 194.275 157.125C194.559 157.617 194.7 158.217 194.7 158.925C194.7 159.842 194.475 160.637 194.025 161.312C193.575 161.979 192.925 162.492 192.075 162.85C191.225 163.2 190.217 163.375 189.05 163.375ZM201.647 152.125V157.075V157.787C201.647 158.221 201.664 158.571 201.697 158.837C201.731 159.104 201.806 159.325 201.922 159.5C202.264 160.042 202.939 160.312 203.947 160.312C204.331 160.312 204.864 160.267 205.547 160.175V163C204.681 163.158 203.872 163.238 203.122 163.238C202.106 163.238 201.222 163.088 200.472 162.787C199.722 162.479 199.164 161.992 198.797 161.325C198.572 160.908 198.422 160.483 198.347 160.05C198.272 159.617 198.235 159.104 198.235 158.512L198.247 157.275V152.125H195.947V149.5H198.247V145.75H201.647V149.5H205.547V152.125H201.647ZM219.331 151.575C219.572 152.025 219.722 152.483 219.781 152.95C219.847 153.408 219.881 154.008 219.881 154.75V163H216.906V161.35C216.306 162.067 215.647 162.583 214.931 162.9C214.214 163.217 213.339 163.375 212.306 163.375C211.372 163.375 210.564 163.196 209.881 162.837C209.206 162.471 208.689 161.975 208.331 161.35C207.981 160.725 207.806 160.033 207.806 159.275C207.806 158.292 208.035 157.462 208.493 156.787C208.951 156.112 209.706 155.583 210.756 155.2C211.339 154.983 212.051 154.8 212.893 154.65C213.735 154.492 214.947 154.296 216.531 154.062C216.464 153.429 216.231 152.967 215.831 152.675C215.439 152.375 214.847 152.225 214.056 152.225C213.481 152.225 212.935 152.358 212.418 152.625C211.901 152.892 211.547 153.308 211.356 153.875L208.281 152.9C208.631 151.733 209.289 150.812 210.256 150.137C211.222 149.462 212.489 149.125 214.056 149.125C216.714 149.125 218.472 149.942 219.331 151.575ZM216.156 158.9C216.372 158.458 216.489 157.762 216.506 156.812C215.331 157.012 214.468 157.171 213.918 157.287C213.368 157.404 212.906 157.533 212.531 157.675C212.039 157.875 211.681 158.1 211.456 158.35C211.239 158.592 211.131 158.883 211.131 159.225C211.131 159.683 211.297 160.046 211.631 160.312C211.972 160.571 212.439 160.7 213.031 160.7C213.606 160.7 214.11 160.6 214.543 160.4C214.976 160.192 215.322 159.95 215.581 159.675C215.847 159.4 216.039 159.142 216.156 158.9ZM226.581 163H223.106L223.131 145H226.581V156L231.156 149.5H235.356L230.481 156.25L235.681 163H231.256L226.581 156.5V163ZM240.575 147.625H237.175V144.625H240.575V147.625ZM240.575 163H237.175V149.5H240.575V163ZM251.697 149.1C253.281 149.1 254.46 149.504 255.235 150.312C256.018 151.121 256.501 151.975 256.685 152.875C256.876 153.775 256.972 154.625 256.972 155.425V163H253.522V156.625C253.522 155.942 253.472 155.3 253.372 154.7C253.272 154.1 253.006 153.55 252.572 153.05C252.147 152.55 251.497 152.3 250.622 152.3C249.839 152.3 249.164 152.571 248.597 153.112C248.031 153.646 247.747 154.658 247.747 156.15V163H244.297V149.5H247.322V150.887C247.831 150.321 248.451 149.883 249.185 149.575C249.918 149.258 250.756 149.1 251.697 149.1ZM269.341 149.5H272.316V163.925C272.316 164.633 272.249 165.242 272.116 165.75C271.799 166.942 271.087 167.842 269.978 168.45C268.878 169.067 267.549 169.375 265.991 169.375C264.857 169.375 263.807 169.108 262.841 168.575C261.874 168.042 261.132 167.333 260.616 166.45L263.766 164.925C263.974 165.317 264.278 165.617 264.678 165.825C265.087 166.042 265.532 166.15 266.016 166.15C266.541 166.15 267.024 166.063 267.466 165.888C267.916 165.713 268.274 165.454 268.541 165.113C268.807 164.771 268.932 164.358 268.916 163.875V162.512C267.999 163.088 266.924 163.375 265.691 163.375C264.474 163.375 263.391 163.067 262.441 162.45C261.499 161.825 260.766 160.971 260.241 159.887C259.724 158.804 259.466 157.592 259.466 156.25C259.466 154.883 259.728 153.658 260.253 152.575C260.787 151.492 261.537 150.646 262.503 150.037C263.478 149.429 264.599 149.125 265.866 149.125C267.224 149.125 268.382 149.5 269.341 150.25V149.5ZM266.241 160.35C268.307 160.35 269.341 158.983 269.341 156.25C269.341 154.967 269.099 153.962 268.616 153.237C268.141 152.512 267.391 152.15 266.366 152.15C265.632 152.15 265.02 152.333 264.528 152.7C264.037 153.058 263.67 153.546 263.428 154.162C263.187 154.779 263.066 155.475 263.066 156.25C263.066 157.458 263.332 158.446 263.866 159.212C264.399 159.971 265.191 160.35 266.241 160.35Z" fill="#273852"/>
<rect x="56" y="190" width="240" height="44" rx="6" fill="#00A3FF"/>
<path d="M85.0077 217.21C84.2657 217.21 83.5914 217.077 82.9847 216.811C82.3827 216.545 81.8904 216.165 81.5077 215.67C81.1251 215.175 80.8824 214.592 80.7797 213.92L82.7677 213.626C82.8611 214.004 83.0221 214.331 83.2507 214.606C83.4794 214.877 83.7547 215.082 84.0767 215.222C84.4034 215.362 84.7557 215.432 85.1337 215.432C85.4557 215.432 85.7637 215.383 86.0577 215.285C86.3517 215.182 86.5897 215.033 86.7717 214.837C86.9584 214.641 87.0517 214.41 87.0517 214.144C87.0517 213.92 86.9794 213.724 86.8347 213.556C86.6901 213.388 86.4357 213.248 86.0717 213.136L83.4537 212.366C83.0711 212.259 82.7187 212.121 82.3967 211.953C82.0794 211.785 81.7947 211.519 81.5427 211.155C81.2954 210.791 81.1717 210.317 81.1717 209.734C81.1717 209.085 81.3351 208.535 81.6617 208.082C81.9931 207.629 82.4387 207.291 82.9987 207.067C83.5634 206.838 84.1957 206.724 84.8957 206.724C85.9504 206.724 86.8301 206.981 87.5347 207.494C88.2441 208.003 88.7224 208.731 88.9697 209.678L86.9117 210.028C86.8371 209.701 86.6947 209.424 86.4847 209.195C86.2794 208.966 86.0321 208.794 85.7427 208.677C85.4581 208.56 85.1547 208.502 84.8327 208.502C84.5387 208.502 84.2657 208.549 84.0137 208.642C83.7617 208.735 83.5587 208.868 83.4047 209.041C83.2507 209.214 83.1737 209.412 83.1737 209.636C83.1737 209.93 83.2951 210.156 83.5377 210.315C83.7804 210.474 84.1071 210.607 84.5177 210.714L86.2677 211.19C86.7671 211.325 87.2081 211.482 87.5907 211.659C87.9781 211.836 88.3187 212.116 88.6127 212.499C88.9067 212.882 89.0537 213.383 89.0537 214.004C89.0537 214.695 88.8647 215.283 88.4867 215.768C88.1134 216.249 87.6187 216.61 87.0027 216.853C86.3867 217.091 85.7217 217.21 85.0077 217.21ZM92.9443 210.91V213.682V214.081C92.9443 214.324 92.9536 214.52 92.9723 214.669C92.991 214.818 93.033 214.942 93.0983 215.04C93.2896 215.343 93.6676 215.495 94.2323 215.495C94.447 215.495 94.7456 215.469 95.1283 215.418V217C94.643 217.089 94.1903 217.133 93.7703 217.133C93.201 217.133 92.7063 217.049 92.2863 216.881C91.8663 216.708 91.5536 216.435 91.3483 216.062C91.2223 215.829 91.1383 215.591 91.0963 215.348C91.0543 215.105 91.0333 214.818 91.0333 214.487L91.0403 213.794V210.91H89.7523V209.44H91.0403V207.34H92.9443V209.44H95.1283V210.91H92.9443ZM102.847 210.602C102.982 210.854 103.066 211.111 103.099 211.372C103.136 211.629 103.155 211.965 103.155 212.38V217H101.489V216.076C101.153 216.477 100.784 216.767 100.383 216.944C99.9817 217.121 99.4917 217.21 98.913 217.21C98.3903 217.21 97.9377 217.11 97.555 216.909C97.177 216.704 96.8877 216.426 96.687 216.076C96.491 215.726 96.393 215.339 96.393 214.914C96.393 214.363 96.5213 213.899 96.778 213.521C97.0347 213.143 97.457 212.847 98.045 212.632C98.3717 212.511 98.7707 212.408 99.242 212.324C99.7133 212.235 100.392 212.126 101.279 211.995C101.242 211.64 101.111 211.381 100.887 211.218C100.668 211.05 100.336 210.966 99.893 210.966C99.571 210.966 99.2653 211.041 98.976 211.19C98.6867 211.339 98.4883 211.573 98.381 211.89L96.659 211.344C96.855 210.691 97.2237 210.175 97.765 209.797C98.3063 209.419 99.0157 209.23 99.893 209.23C101.382 209.23 102.366 209.687 102.847 210.602ZM101.069 214.704C101.19 214.457 101.256 214.067 101.265 213.535C100.607 213.647 100.124 213.736 99.816 213.801C99.508 213.866 99.249 213.939 99.039 214.018C98.7637 214.13 98.563 214.256 98.437 214.396C98.3157 214.531 98.255 214.695 98.255 214.886C98.255 215.143 98.3483 215.346 98.535 215.495C98.7263 215.64 98.9877 215.712 99.319 215.712C99.641 215.712 99.9233 215.656 100.166 215.544C100.409 215.427 100.602 215.292 100.747 215.138C100.896 214.984 101.004 214.839 101.069 214.704ZM107.467 209.804C107.892 209.543 108.396 209.412 108.979 209.412C109.138 209.412 109.282 209.421 109.413 209.44V211.218C109.268 211.171 109.089 211.148 108.874 211.148C108.519 211.148 108.204 211.213 107.929 211.344C107.593 211.498 107.336 211.727 107.159 212.03C106.982 212.333 106.893 212.702 106.893 213.136V217H104.975V209.44H106.655V210.658C106.865 210.28 107.136 209.995 107.467 209.804ZM113.097 210.91V213.682V214.081C113.097 214.324 113.106 214.52 113.125 214.669C113.143 214.818 113.185 214.942 113.251 215.04C113.442 215.343 113.82 215.495 114.385 215.495C114.599 215.495 114.898 215.469 115.281 215.418V217C114.795 217.089 114.343 217.133 113.923 217.133C113.353 217.133 112.859 217.049 112.439 216.881C112.019 216.708 111.706 216.435 111.501 216.062C111.375 215.829 111.291 215.591 111.249 215.348C111.207 215.105 111.186 214.818 111.186 214.487L111.193 213.794V210.91H109.905V209.44H111.193V207.34H113.097V209.44H115.281V210.91H113.097ZM121.399 213.752C121.469 214.293 121.653 214.709 121.952 214.998C122.255 215.287 122.661 215.432 123.17 215.432C123.539 215.432 123.856 215.35 124.122 215.187C124.393 215.024 124.598 214.788 124.738 214.48L126.642 215.026C126.455 215.479 126.192 215.871 125.851 216.202C125.51 216.529 125.118 216.778 124.675 216.951C124.232 217.124 123.767 217.21 123.282 217.21C122.517 217.21 121.835 217.044 121.238 216.713C120.645 216.382 120.181 215.92 119.845 215.327C119.514 214.734 119.348 214.065 119.348 213.318C119.348 212.506 119.509 211.792 119.831 211.176C120.158 210.555 120.61 210.077 121.189 209.741C121.768 209.4 122.428 209.23 123.17 209.23C123.898 209.23 124.53 209.391 125.067 209.713C125.604 210.035 126.014 210.492 126.299 211.085C126.588 211.678 126.733 212.373 126.733 213.171C126.733 213.297 126.724 213.491 126.705 213.752H121.399ZM123.254 210.882C122.251 210.882 121.649 211.367 121.448 212.338H124.78C124.715 211.829 124.558 211.461 124.311 211.232C124.068 210.999 123.716 210.882 123.254 210.882ZM134.183 210.602C134.318 210.854 134.402 211.111 134.435 211.372C134.472 211.629 134.491 211.965 134.491 212.38V217H132.825V216.076C132.489 216.477 132.12 216.767 131.719 216.944C131.318 217.121 130.828 217.21 130.249 217.21C129.726 217.21 129.274 217.11 128.891 216.909C128.513 216.704 128.224 216.426 128.023 216.076C127.827 215.726 127.729 215.339 127.729 214.914C127.729 214.363 127.857 213.899 128.114 213.521C128.371 213.143 128.793 212.847 129.381 212.632C129.708 212.511 130.107 212.408 130.578 212.324C131.049 212.235 131.728 212.126 132.615 211.995C132.578 211.64 132.447 211.381 132.223 211.218C132.004 211.05 131.672 210.966 131.229 210.966C130.907 210.966 130.601 211.041 130.312 211.19C130.023 211.339 129.824 211.573 129.717 211.89L127.995 211.344C128.191 210.691 128.56 210.175 129.101 209.797C129.642 209.419 130.352 209.23 131.229 209.23C132.718 209.23 133.702 209.687 134.183 210.602ZM132.405 214.704C132.526 214.457 132.592 214.067 132.601 213.535C131.943 213.647 131.46 213.736 131.152 213.801C130.844 213.866 130.585 213.939 130.375 214.018C130.1 214.13 129.899 214.256 129.773 214.396C129.652 214.531 129.591 214.695 129.591 214.886C129.591 215.143 129.684 215.346 129.871 215.495C130.062 215.64 130.324 215.712 130.655 215.712C130.977 215.712 131.259 215.656 131.502 215.544C131.745 215.427 131.938 215.292 132.083 215.138C132.232 214.984 132.34 214.839 132.405 214.704ZM138.803 209.804C139.228 209.543 139.732 209.412 140.315 209.412C140.474 209.412 140.618 209.421 140.749 209.44V211.218C140.604 211.171 140.425 211.148 140.21 211.148C139.855 211.148 139.54 211.213 139.265 211.344C138.929 211.498 138.672 211.727 138.495 212.03C138.318 212.333 138.229 212.702 138.229 213.136V217H136.311V209.44H137.991V210.658C138.201 210.28 138.472 209.995 138.803 209.804ZM146.211 209.216C147.097 209.216 147.758 209.442 148.192 209.895C148.63 210.348 148.901 210.826 149.004 211.33C149.111 211.834 149.165 212.31 149.165 212.758V217H147.233V213.43C147.233 213.047 147.205 212.688 147.149 212.352C147.093 212.016 146.943 211.708 146.701 211.428C146.463 211.148 146.099 211.008 145.609 211.008C145.17 211.008 144.792 211.16 144.475 211.463C144.157 211.762 143.999 212.329 143.999 213.164V217H142.067V209.44H143.761V210.217C144.045 209.9 144.393 209.655 144.804 209.482C145.214 209.305 145.683 209.216 146.211 209.216ZM153.025 208.39H151.121V206.71H153.025V208.39ZM153.025 217H151.121V209.44H153.025V217ZM159.254 209.216C160.14 209.216 160.801 209.442 161.235 209.895C161.673 210.348 161.944 210.826 162.047 211.33C162.154 211.834 162.208 212.31 162.208 212.758V217H160.276V213.43C160.276 213.047 160.248 212.688 160.192 212.352C160.136 212.016 159.986 211.708 159.744 211.428C159.506 211.148 159.142 211.008 158.652 211.008C158.213 211.008 157.835 211.16 157.518 211.463C157.2 211.762 157.042 212.329 157.042 213.164V217H155.11V209.44H156.804V210.217C157.088 209.9 157.436 209.655 157.847 209.482C158.257 209.305 158.726 209.216 159.254 209.216ZM169.134 209.44H170.8V217.518C170.8 217.915 170.763 218.255 170.688 218.54C170.511 219.207 170.112 219.711 169.491 220.052C168.875 220.397 168.131 220.57 167.258 220.57C166.623 220.57 166.035 220.421 165.494 220.122C164.953 219.823 164.537 219.427 164.248 218.932L166.012 218.078C166.129 218.297 166.299 218.465 166.523 218.582C166.752 218.703 167.001 218.764 167.272 218.764C167.566 218.764 167.837 218.715 168.084 218.617C168.336 218.519 168.537 218.374 168.686 218.183C168.835 217.992 168.905 217.761 168.896 217.49V216.727C168.383 217.049 167.781 217.21 167.09 217.21C166.409 217.21 165.802 217.037 165.27 216.692C164.743 216.342 164.332 215.864 164.038 215.257C163.749 214.65 163.604 213.971 163.604 213.22C163.604 212.455 163.751 211.769 164.045 211.162C164.344 210.555 164.764 210.082 165.305 209.741C165.851 209.4 166.479 209.23 167.188 209.23C167.949 209.23 168.597 209.44 169.134 209.86V209.44ZM167.398 215.516C168.555 215.516 169.134 214.751 169.134 213.22C169.134 212.501 168.999 211.939 168.728 211.533C168.462 211.127 168.042 210.924 167.468 210.924C167.057 210.924 166.714 211.027 166.439 211.232C166.164 211.433 165.958 211.706 165.823 212.051C165.688 212.396 165.62 212.786 165.62 213.22C165.62 213.897 165.769 214.45 166.068 214.879C166.367 215.304 166.81 215.516 167.398 215.516Z" fill="white"/>
<path d="M258.666 212H271.999" stroke="white" stroke-width="2" stroke-linecap="round" stroke-linejoin="round"/>
<path d="M267 207L272 212L267 217" stroke="white" stroke-width="2" stroke-linecap="round" stroke-linejoin="round"/>
<defs>
<filter id="filter0_d" x="0" y="0" width="362" height="296" filterUnits="userSpaceOnUse" color-interpolation-filters="sRGB">
<feFlood flood-opacity="0" result="BackgroundImageFix"/>
<feColorMatrix in="SourceAlpha" type="matrix" values="0 0 0 0 0 0 0 0 0 0 0 0 0 0 0 0 0 0 127 0" result="hardAlpha"/>
<feOffset dy="6"/>
<feGaussianBlur stdDeviation="8"/>
<feColorMatrix type="matrix" values="0 0 0 0 0 0 0 0 0 0 0 0 0 0 0 0 0 0 0.1 0"/>
<feBlend mode="normal" in2="BackgroundImageFix" result="effect1_dropShadow"/>
<feBlend mode="normal" in="SourceGraphic" in2="effect1_dropShadow" result="shape"/>
</filter>
<radialGradient id="paint0_radial" cx="0" cy="0" r="1" gradientUnits="userSpaceOnUse" gradientTransform="translate(67.4185 82.0073) rotate(-90) scale(15.2118 19.881)">
<stop offset="0.203695" stop-color="#56F2FF"/>
<stop offset="1" stop-color="#4A8CEA"/>
</radialGradient>
<radialGradient id="paint1_radial" cx="0" cy="0" r="1" gradientUnits="userSpaceOnUse" gradientTransform="translate(67.4372 62.393) rotate(90.1607) scale(4.60516 8.71861)">
<stop stop-color="#EEFF83"/>
<stop offset="0.689596" stop-color="#5699EC"/>
</radialGradient>
<radialGradient id="paint2_diamond" cx="0" cy="0" r="1" gradientUnits="userSpaceOnUse" gradientTransform="translate(67.4338 64.3605) rotate(90.16) scale(5.36544 10.1168)">
<stop stop-color="#56F2FF"/>
<stop offset="1" stop-color="#5699EC"/>
</radialGradient>
<linearGradient id="paint3_linear" x1="63.3997" y1="50.0078" x2="63.3997" y2="67.0129" gradientUnits="userSpaceOnUse">
<stop offset="0.377179" stop-color="#FFE336"/>
<stop offset="1" stop-color="#13C0B6" stop-opacity="0.7"/>
</linearGradient>
<linearGradient id="paint4_linear" x1="71.4802" y1="50" x2="71.4802" y2="67.012" gradientUnits="userSpaceOnUse">
<stop offset="0.408817" stop-color="#FF7F72"/>
<stop offset="1" stop-color="#2978EF" stop-opacity="0.7"/>
</linearGradient>
</defs>
</svg>
