<svg width="588" height="176" viewBox="0 0 588 176" fill="none" xmlns="http://www.w3.org/2000/svg">
<g filter="url(#filter0_d)">
<path d="M16 30C16 18.9543 24.9543 10 36 10H552C563.046 10 572 18.9543 572 30V134C572 145.046 563.046 154 552 154H36C24.9543 154 16 145.046 16 134V30Z" fill="white"/>
</g>
<path d="M16 30C16 18.9543 24.9543 10 36 10H140C151.046 10 160 18.9543 160 30V134C160 145.046 151.046 154 140 154H36C24.9543 154 16 145.046 16 134V30Z" fill="white"/>
<path d="M87.9974 90.1724L67.4914 78.4592L66.9315 79.3182C60.6157 89.0068 62.0262 101.695 70.3227 109.824C80.0857 119.39 95.9145 119.39 105.678 109.824C113.974 101.695 115.385 89.0068 109.069 79.3182L108.509 78.459L87.9974 90.1724Z" fill="url(#paint0_radial)"/>
<path opacity="0.6" d="M88.0241 64.0098L70.3477 74.1171L88.0241 84.2117L105.688 74.1173L88.0241 64.0098Z" fill="url(#paint1_radial)"/>
<path d="M88.0459 66.6465L67.5059 78.4652L88 90.1837L108.513 78.4613L88.0459 66.6465Z" fill="url(#paint2_diamond)"/>
<path d="M88.0241 47.0176L70.3477 74.1212L88.0241 84.2159V47.0176Z" fill="url(#paint3_linear)"/>
<path d="M88.0215 84.2135L105.7 74.1171L88.0224 47L88.0215 84.2135Z" fill="url(#paint4_linear)"/>
<path d="M166.156 63.27C165.202 63.27 164.335 63.099 163.555 62.757C162.781 62.415 162.148 61.926 161.656 61.29C161.164 60.654 160.852 59.904 160.72 59.04L163.276 58.662C163.396 59.148 163.603 59.568 163.897 59.922C164.191 60.27 164.545 60.534 164.959 60.714C165.379 60.894 165.832 60.984 166.318 60.984C166.732 60.984 167.128 60.921 167.506 60.795C167.884 60.663 168.19 60.471 168.424 60.219C168.664 59.967 168.784 59.67 168.784 59.328C168.784 59.04 168.691 58.788 168.505 58.572C168.319 58.356 167.992 58.176 167.524 58.032L164.158 57.042C163.666 56.904 163.213 56.727 162.799 56.511C162.391 56.295 162.025 55.953 161.701 55.485C161.383 55.017 161.224 54.408 161.224 53.658C161.224 52.824 161.434 52.116 161.854 51.534C162.28 50.952 162.853 50.517 163.573 50.229C164.299 49.935 165.112 49.788 166.012 49.788C167.368 49.788 168.499 50.118 169.405 50.778C170.317 51.432 170.932 52.368 171.25 53.586L168.604 54.036C168.508 53.616 168.325 53.259 168.055 52.965C167.791 52.671 167.473 52.449 167.101 52.299C166.735 52.149 166.345 52.074 165.931 52.074C165.553 52.074 165.202 52.134 164.878 52.254C164.554 52.374 164.293 52.545 164.095 52.767C163.897 52.989 163.798 53.244 163.798 53.532C163.798 53.91 163.954 54.201 164.266 54.405C164.578 54.609 164.998 54.78 165.526 54.918L167.776 55.53C168.418 55.704 168.985 55.905 169.477 56.133C169.975 56.361 170.413 56.721 170.791 57.213C171.169 57.705 171.358 58.35 171.358 59.148C171.358 60.036 171.115 60.792 170.629 61.416C170.149 62.034 169.513 62.499 168.721 62.811C167.929 63.117 167.074 63.27 166.156 63.27ZM177.98 53.01C178.892 53.01 179.696 53.229 180.392 53.667C181.094 54.105 181.634 54.714 182.012 55.494C182.396 56.274 182.588 57.156 182.588 58.14C182.588 59.106 182.399 59.979 182.021 60.759C181.649 61.539 181.121 62.154 180.437 62.604C179.759 63.048 178.982 63.27 178.106 63.27C177.218 63.27 176.444 63.063 175.784 62.649V67.32H173.318V53.28H175.478V53.82C176.168 53.28 177.002 53.01 177.98 53.01ZM177.71 61.092C178.466 61.092 179.036 60.819 179.42 60.273C179.804 59.721 179.996 59.01 179.996 58.14C179.996 57.582 179.909 57.081 179.735 56.637C179.561 56.193 179.297 55.842 178.943 55.584C178.589 55.32 178.148 55.188 177.62 55.188C176.882 55.188 176.339 55.449 175.991 55.971C175.649 56.493 175.478 57.216 175.478 58.14C175.478 60.108 176.222 61.092 177.71 61.092ZM187.773 53.748C188.319 53.412 188.967 53.244 189.717 53.244C189.921 53.244 190.107 53.256 190.275 53.28V55.566C190.089 55.506 189.858 55.476 189.582 55.476C189.126 55.476 188.721 55.56 188.367 55.728C187.935 55.926 187.605 56.22 187.377 56.61C187.149 57 187.035 57.474 187.035 58.032V63H184.569V53.28H186.729V54.846C186.999 54.36 187.347 53.994 187.773 53.748ZM193.908 58.824C193.998 59.52 194.235 60.054 194.619 60.426C195.009 60.798 195.531 60.984 196.185 60.984C196.659 60.984 197.067 60.879 197.409 60.669C197.757 60.459 198.021 60.156 198.201 59.76L200.649 60.462C200.409 61.044 200.07 61.548 199.632 61.974C199.194 62.394 198.69 62.715 198.12 62.937C197.55 63.159 196.953 63.27 196.329 63.27C195.345 63.27 194.469 63.057 193.701 62.631C192.939 62.205 192.342 61.611 191.91 60.849C191.484 60.087 191.271 59.226 191.271 58.266C191.271 57.222 191.478 56.304 191.892 55.512C192.312 54.714 192.894 54.099 193.638 53.667C194.382 53.229 195.231 53.01 196.185 53.01C197.121 53.01 197.934 53.217 198.624 53.631C199.314 54.045 199.842 54.633 200.208 55.395C200.58 56.157 200.766 57.051 200.766 58.077C200.766 58.239 200.754 58.488 200.73 58.824H193.908ZM196.293 55.134C195.003 55.134 194.229 55.758 193.971 57.006H198.255C198.171 56.352 197.97 55.878 197.652 55.584C197.34 55.284 196.887 55.134 196.293 55.134ZM210.344 54.774C210.518 55.098 210.626 55.428 210.668 55.764C210.716 56.094 210.74 56.526 210.74 57.06V63H208.598V61.812C208.166 62.328 207.692 62.7 207.176 62.928C206.66 63.156 206.03 63.27 205.286 63.27C204.614 63.27 204.032 63.141 203.54 62.883C203.054 62.619 202.682 62.262 202.424 61.812C202.172 61.362 202.046 60.864 202.046 60.318C202.046 59.61 202.211 59.013 202.541 58.527C202.871 58.041 203.414 57.66 204.17 57.384C204.59 57.228 205.103 57.096 205.709 56.988C206.315 56.874 207.188 56.733 208.328 56.565C208.28 56.109 208.112 55.776 207.824 55.566C207.542 55.35 207.116 55.242 206.546 55.242C206.132 55.242 205.739 55.338 205.367 55.53C204.995 55.722 204.74 56.022 204.602 56.43L202.388 55.728C202.64 54.888 203.114 54.225 203.81 53.739C204.506 53.253 205.418 53.01 206.546 53.01C208.46 53.01 209.726 53.598 210.344 54.774ZM208.058 60.048C208.214 59.73 208.298 59.229 208.31 58.545C207.464 58.689 206.843 58.803 206.447 58.887C206.051 58.971 205.718 59.064 205.448 59.166C205.094 59.31 204.836 59.472 204.674 59.652C204.518 59.826 204.44 60.036 204.44 60.282C204.44 60.612 204.56 60.873 204.8 61.065C205.046 61.251 205.382 61.344 205.808 61.344C206.222 61.344 206.585 61.272 206.897 61.128C207.209 60.978 207.458 60.804 207.644 60.606C207.836 60.408 207.974 60.222 208.058 60.048ZM219.344 50.04H221.81V63H219.65V62.442C218.924 62.994 218.048 63.27 217.022 63.27C216.146 63.27 215.366 63.048 214.682 62.604C214.004 62.154 213.476 61.539 213.098 60.759C212.726 59.979 212.54 59.106 212.54 58.14C212.54 57.156 212.729 56.274 213.107 55.494C213.491 54.714 214.031 54.105 214.727 53.667C215.429 53.229 216.236 53.01 217.148 53.01C217.982 53.01 218.714 53.208 219.344 53.604V50.04ZM217.418 61.092C218.906 61.092 219.65 60.108 219.65 58.14C219.65 57.216 219.476 56.493 219.128 55.971C218.786 55.449 218.246 55.188 217.508 55.188C216.98 55.188 216.539 55.32 216.185 55.584C215.831 55.842 215.567 56.193 215.393 56.637C215.219 57.081 215.132 57.582 215.132 58.14C215.132 59.01 215.324 59.721 215.708 60.273C216.092 60.819 216.662 61.092 217.418 61.092ZM230.958 55.17V58.734V59.247C230.958 59.559 230.97 59.811 230.994 60.003C231.018 60.195 231.072 60.354 231.156 60.48C231.402 60.87 231.888 61.065 232.614 61.065C232.89 61.065 233.274 61.032 233.766 60.966V63C233.142 63.114 232.56 63.171 232.02 63.171C231.288 63.171 230.652 63.063 230.112 62.847C229.572 62.625 229.17 62.274 228.906 61.794C228.744 61.494 228.636 61.188 228.582 60.876C228.528 60.564 228.501 60.195 228.501 59.769L228.51 58.878V55.17H226.854V53.28H228.51V50.58H230.958V53.28H233.766V55.17H230.958ZM241.242 52.992C242.382 52.992 243.231 53.283 243.789 53.865C244.353 54.447 244.701 55.062 244.833 55.71C244.971 56.358 245.04 56.97 245.04 57.546V63H242.556V58.41C242.556 57.918 242.52 57.456 242.448 57.024C242.376 56.592 242.184 56.196 241.872 55.836C241.566 55.476 241.098 55.296 240.468 55.296C239.904 55.296 239.418 55.491 239.01 55.881C238.602 56.265 238.398 56.994 238.398 58.068V63H235.914V50.04H238.092V54.279C238.458 53.871 238.905 53.556 239.433 53.334C239.961 53.106 240.564 52.992 241.242 52.992ZM249.472 58.824C249.562 59.52 249.799 60.054 250.183 60.426C250.573 60.798 251.095 60.984 251.749 60.984C252.223 60.984 252.631 60.879 252.973 60.669C253.321 60.459 253.585 60.156 253.765 59.76L256.213 60.462C255.973 61.044 255.634 61.548 255.196 61.974C254.758 62.394 254.254 62.715 253.684 62.937C253.114 63.159 252.517 63.27 251.893 63.27C250.909 63.27 250.033 63.057 249.265 62.631C248.503 62.205 247.906 61.611 247.474 60.849C247.048 60.087 246.835 59.226 246.835 58.266C246.835 57.222 247.042 56.304 247.456 55.512C247.876 54.714 248.458 54.099 249.202 53.667C249.946 53.229 250.795 53.01 251.749 53.01C252.685 53.01 253.498 53.217 254.188 53.631C254.878 54.045 255.406 54.633 255.772 55.395C256.144 56.157 256.33 57.051 256.33 58.077C256.33 58.239 256.318 58.488 256.294 58.824H249.472ZM251.857 55.134C250.567 55.134 249.793 55.758 249.535 57.006H253.819C253.735 56.352 253.534 55.878 253.216 55.584C252.904 55.284 252.451 55.134 251.857 55.134ZM266.574 53.01C267.486 53.01 268.29 53.229 268.986 53.667C269.688 54.105 270.228 54.714 270.606 55.494C270.99 56.274 271.182 57.156 271.182 58.14C271.182 59.106 270.993 59.979 270.615 60.759C270.243 61.539 269.715 62.154 269.031 62.604C268.353 63.048 267.576 63.27 266.7 63.27C265.812 63.27 265.038 63.063 264.378 62.649V67.32H261.912V53.28H264.072V53.82C264.762 53.28 265.596 53.01 266.574 53.01ZM266.304 61.092C267.06 61.092 267.63 60.819 268.014 60.273C268.398 59.721 268.59 59.01 268.59 58.14C268.59 57.582 268.503 57.081 268.329 56.637C268.155 56.193 267.891 55.842 267.537 55.584C267.183 55.32 266.742 55.188 266.214 55.188C265.476 55.188 264.933 55.449 264.585 55.971C264.243 56.493 264.072 57.216 264.072 58.14C264.072 60.108 264.816 61.092 266.304 61.092ZM277.536 63.27C276.57 63.27 275.715 63.054 274.971 62.622C274.227 62.184 273.648 61.578 273.234 60.804C272.826 60.024 272.622 59.136 272.622 58.14C272.622 57.138 272.829 56.25 273.243 55.476C273.663 54.696 274.245 54.09 274.989 53.658C275.739 53.226 276.588 53.01 277.536 53.01C278.502 53.01 279.357 53.229 280.101 53.667C280.851 54.099 281.433 54.705 281.847 55.485C282.261 56.265 282.468 57.15 282.468 58.14C282.468 59.136 282.258 60.024 281.838 60.804C281.424 61.578 280.842 62.184 280.092 62.622C279.348 63.054 278.496 63.27 277.536 63.27ZM277.536 60.984C278.298 60.984 278.877 60.726 279.273 60.21C279.675 59.694 279.876 59.004 279.876 58.14C279.876 57.258 279.675 56.565 279.273 56.061C278.871 55.551 278.292 55.296 277.536 55.296C276.762 55.296 276.18 55.551 275.79 56.061C275.406 56.565 275.214 57.258 275.214 58.14C275.214 59.028 275.412 59.724 275.808 60.228C276.21 60.732 276.786 60.984 277.536 60.984ZM288.038 63H286.166L283.196 53.262L285.59 53.28L287.354 59.076L289.145 53.28H291.179L292.97 59.076L294.734 53.28H297.128L294.158 63H292.286L290.162 56.664L288.038 63ZM300.502 58.824C300.592 59.52 300.829 60.054 301.213 60.426C301.603 60.798 302.125 60.984 302.779 60.984C303.253 60.984 303.661 60.879 304.003 60.669C304.351 60.459 304.615 60.156 304.795 59.76L307.243 60.462C307.003 61.044 306.664 61.548 306.226 61.974C305.788 62.394 305.284 62.715 304.714 62.937C304.144 63.159 303.547 63.27 302.923 63.27C301.939 63.27 301.063 63.057 300.295 62.631C299.533 62.205 298.936 61.611 298.504 60.849C298.078 60.087 297.865 59.226 297.865 58.266C297.865 57.222 298.072 56.304 298.486 55.512C298.906 54.714 299.488 54.099 300.232 53.667C300.976 53.229 301.825 53.01 302.779 53.01C303.715 53.01 304.528 53.217 305.218 53.631C305.908 54.045 306.436 54.633 306.802 55.395C307.174 56.157 307.36 57.051 307.36 58.077C307.36 58.239 307.348 58.488 307.324 58.824H300.502ZM302.887 55.134C301.597 55.134 300.823 55.758 300.565 57.006H304.849C304.765 56.352 304.564 55.878 304.246 55.584C303.934 55.284 303.481 55.134 302.887 55.134ZM312.56 53.748C313.106 53.412 313.754 53.244 314.504 53.244C314.708 53.244 314.894 53.256 315.062 53.28V55.566C314.876 55.506 314.645 55.476 314.369 55.476C313.913 55.476 313.508 55.56 313.154 55.728C312.722 55.926 312.392 56.22 312.164 56.61C311.936 57 311.822 57.474 311.822 58.032V63H309.356V53.28H311.516V54.846C311.786 54.36 312.134 53.994 312.56 53.748ZM324.751 63.27C323.785 63.27 322.93 63.054 322.186 62.622C321.442 62.184 320.863 61.578 320.449 60.804C320.041 60.024 319.837 59.136 319.837 58.14C319.837 57.138 320.044 56.25 320.458 55.476C320.878 54.696 321.46 54.09 322.204 53.658C322.954 53.226 323.803 53.01 324.751 53.01C325.717 53.01 326.572 53.229 327.316 53.667C328.066 54.099 328.648 54.705 329.062 55.485C329.476 56.265 329.683 57.15 329.683 58.14C329.683 59.136 329.473 60.024 329.053 60.804C328.639 61.578 328.057 62.184 327.307 62.622C326.563 63.054 325.711 63.27 324.751 63.27ZM324.751 60.984C325.513 60.984 326.092 60.726 326.488 60.21C326.89 59.694 327.091 59.004 327.091 58.14C327.091 57.258 326.89 56.565 326.488 56.061C326.086 55.551 325.507 55.296 324.751 55.296C323.977 55.296 323.395 55.551 323.005 56.061C322.621 56.565 322.429 57.258 322.429 58.14C322.429 59.028 322.627 59.724 323.023 60.228C323.425 60.732 324.001 60.984 324.751 60.984ZM336.054 51.75C335.682 51.75 335.4 51.843 335.208 52.029C335.016 52.215 334.92 52.452 334.92 52.74V53.28H337.17V55.17H334.92V63H332.472V55.17H330.942V53.28H332.472C332.472 52.872 332.478 52.545 332.49 52.299C332.508 52.047 332.565 51.771 332.661 51.471C332.757 51.171 332.91 50.904 333.12 50.67C333.45 50.304 333.816 50.064 334.218 49.95C334.626 49.83 335.07 49.77 335.55 49.77H335.964H337.17V51.75H336.054ZM350.669 63H342.209V50.04H350.669V52.326H344.657V55.098H349.589V57.384H344.657V60.714H350.669V63ZM355.85 55.17V58.734V59.247C355.85 59.559 355.862 59.811 355.886 60.003C355.91 60.195 355.964 60.354 356.048 60.48C356.294 60.87 356.78 61.065 357.506 61.065C357.782 61.065 358.166 61.032 358.658 60.966V63C358.034 63.114 357.452 63.171 356.912 63.171C356.18 63.171 355.544 63.063 355.004 62.847C354.464 62.625 354.062 62.274 353.798 61.794C353.636 61.494 353.528 61.188 353.474 60.876C353.42 60.564 353.393 60.195 353.393 59.769L353.402 58.878V55.17H351.746V53.28H353.402V50.58H355.85V53.28H358.658V55.17H355.85ZM366.134 52.992C367.274 52.992 368.123 53.283 368.681 53.865C369.245 54.447 369.593 55.062 369.725 55.71C369.863 56.358 369.932 56.97 369.932 57.546V63H367.448V58.41C367.448 57.918 367.412 57.456 367.34 57.024C367.268 56.592 367.076 56.196 366.764 55.836C366.458 55.476 365.99 55.296 365.36 55.296C364.796 55.296 364.31 55.491 363.902 55.881C363.494 56.265 363.29 56.994 363.29 58.068V63H360.806V50.04H362.984V54.279C363.35 53.871 363.797 53.556 364.325 53.334C364.853 53.106 365.456 52.992 366.134 52.992ZM374.365 58.824C374.455 59.52 374.692 60.054 375.076 60.426C375.466 60.798 375.988 60.984 376.642 60.984C377.116 60.984 377.524 60.879 377.866 60.669C378.214 60.459 378.478 60.156 378.658 59.76L381.106 60.462C380.866 61.044 380.527 61.548 380.089 61.974C379.651 62.394 379.147 62.715 378.577 62.937C378.007 63.159 377.41 63.27 376.786 63.27C375.802 63.27 374.926 63.057 374.158 62.631C373.396 62.205 372.799 61.611 372.367 60.849C371.941 60.087 371.728 59.226 371.728 58.266C371.728 57.222 371.935 56.304 372.349 55.512C372.769 54.714 373.351 54.099 374.095 53.667C374.839 53.229 375.688 53.01 376.642 53.01C377.578 53.01 378.391 53.217 379.081 53.631C379.771 54.045 380.299 54.633 380.665 55.395C381.037 56.157 381.223 57.051 381.223 58.077C381.223 58.239 381.211 58.488 381.187 58.824H374.365ZM376.75 55.134C375.46 55.134 374.686 55.758 374.428 57.006H378.712C378.628 56.352 378.427 55.878 378.109 55.584C377.797 55.284 377.344 55.134 376.75 55.134ZM386.423 53.748C386.969 53.412 387.617 53.244 388.367 53.244C388.571 53.244 388.757 53.256 388.925 53.28V55.566C388.739 55.506 388.508 55.476 388.232 55.476C387.776 55.476 387.371 55.56 387.017 55.728C386.585 55.926 386.255 56.22 386.027 56.61C385.799 57 385.685 57.474 385.685 58.032V63H383.219V53.28H385.379V54.846C385.649 54.36 385.997 53.994 386.423 53.748ZM392.558 58.824C392.648 59.52 392.885 60.054 393.269 60.426C393.659 60.798 394.181 60.984 394.835 60.984C395.309 60.984 395.717 60.879 396.059 60.669C396.407 60.459 396.671 60.156 396.851 59.76L399.299 60.462C399.059 61.044 398.72 61.548 398.282 61.974C397.844 62.394 397.34 62.715 396.77 62.937C396.2 63.159 395.603 63.27 394.979 63.27C393.995 63.27 393.119 63.057 392.351 62.631C391.589 62.205 390.992 61.611 390.56 60.849C390.134 60.087 389.921 59.226 389.921 58.266C389.921 57.222 390.128 56.304 390.542 55.512C390.962 54.714 391.544 54.099 392.288 53.667C393.032 53.229 393.881 53.01 394.835 53.01C395.771 53.01 396.584 53.217 397.274 53.631C397.964 54.045 398.492 54.633 398.858 55.395C399.23 56.157 399.416 57.051 399.416 58.077C399.416 58.239 399.404 58.488 399.38 58.824H392.558ZM394.943 55.134C393.653 55.134 392.879 55.758 392.621 57.006H396.905C396.821 56.352 396.62 55.878 396.302 55.584C395.99 55.284 395.537 55.134 394.943 55.134ZM407.874 53.28H410.34V63H408.18V62.001C407.814 62.409 407.367 62.727 406.839 62.955C406.311 63.177 405.708 63.288 405.03 63.288C403.89 63.288 403.038 62.997 402.474 62.415C401.916 61.833 401.568 61.218 401.43 60.57C401.298 59.922 401.232 59.31 401.232 58.734V53.28H403.716V57.87C403.716 58.362 403.752 58.824 403.824 59.256C403.896 59.688 404.085 60.084 404.391 60.444C404.703 60.804 405.174 60.984 405.804 60.984C406.368 60.984 406.854 60.792 407.262 60.408C407.67 60.018 407.874 59.286 407.874 58.212V53.28ZM423.638 53.046C424.364 53.046 424.979 53.193 425.483 53.487C425.987 53.781 426.365 54.198 426.617 54.738C426.875 55.272 427.004 55.896 427.004 56.61V63H424.556V57.258C424.556 56.622 424.403 56.124 424.097 55.764C423.797 55.404 423.38 55.224 422.846 55.224C422.51 55.224 422.213 55.305 421.955 55.467C421.703 55.623 421.505 55.845 421.361 56.133C421.223 56.415 421.154 56.742 421.154 57.114V63H418.706V57.258C418.706 56.622 418.553 56.124 418.247 55.764C417.947 55.404 417.53 55.224 416.996 55.224C416.66 55.224 416.363 55.305 416.105 55.467C415.853 55.623 415.655 55.845 415.511 56.133C415.373 56.415 415.304 56.742 415.304 57.114V63H412.838V53.28H414.998V54.342C415.328 53.934 415.739 53.616 416.231 53.388C416.729 53.16 417.266 53.046 417.842 53.046C418.514 53.046 419.087 53.181 419.561 53.451C420.035 53.715 420.404 54.084 420.668 54.558C420.986 54.084 421.406 53.715 421.928 53.451C422.45 53.181 423.02 53.046 423.638 53.046ZM436.746 63.27C435.522 63.27 434.532 62.994 433.776 62.442C433.026 61.89 432.57 61.104 432.408 60.084L434.91 59.706C435.012 60.168 435.237 60.528 435.585 60.786C435.939 61.038 436.386 61.164 436.926 61.164C437.364 61.164 437.703 61.08 437.943 60.912C438.189 60.738 438.312 60.498 438.312 60.192C438.312 59.988 438.261 59.832 438.159 59.724C438.063 59.61 437.859 59.499 437.547 59.391C437.241 59.283 436.716 59.13 435.972 58.932C435.168 58.728 434.532 58.5 434.063 58.248C433.596 57.996 433.257 57.696 433.047 57.348C432.837 57 432.732 56.574 432.732 56.07C432.732 55.452 432.891 54.912 433.209 54.45C433.527 53.988 433.977 53.634 434.559 53.388C435.141 53.136 435.822 53.01 436.602 53.01C437.358 53.01 438.03 53.127 438.618 53.361C439.212 53.595 439.689 53.931 440.049 54.369C440.415 54.801 440.64 55.308 440.724 55.89L438.222 56.34C438.18 55.98 438.024 55.695 437.754 55.485C437.484 55.275 437.118 55.152 436.656 55.116L436.467 55.107C436.071 55.107 435.753 55.182 435.513 55.332C435.279 55.482 435.162 55.686 435.162 55.944C435.162 56.118 435.222 56.262 435.342 56.376C435.462 56.484 435.696 56.598 436.044 56.718C436.392 56.832 436.962 56.988 437.754 57.186C438.498 57.378 439.092 57.603 439.536 57.861C439.98 58.113 440.304 58.416 440.508 58.77C440.712 59.124 440.814 59.556 440.814 60.066C440.814 60.726 440.652 61.299 440.328 61.785C440.004 62.265 439.536 62.634 438.924 62.892C438.312 63.144 437.586 63.27 436.746 63.27ZM445.815 55.17V58.734V59.247C445.815 59.559 445.827 59.811 445.851 60.003C445.875 60.195 445.929 60.354 446.013 60.48C446.259 60.87 446.745 61.065 447.471 61.065C447.747 61.065 448.131 61.032 448.623 60.966V63C447.999 63.114 447.417 63.171 446.877 63.171C446.145 63.171 445.509 63.063 444.969 62.847C444.429 62.625 444.027 62.274 443.763 61.794C443.601 61.494 443.493 61.188 443.439 60.876C443.385 60.564 443.358 60.195 443.358 59.769L443.367 58.878V55.17H441.711V53.28H443.367V50.58H445.815V53.28H448.623V55.17H445.815ZM458.547 54.774C458.721 55.098 458.829 55.428 458.871 55.764C458.919 56.094 458.943 56.526 458.943 57.06V63H456.801V61.812C456.369 62.328 455.895 62.7 455.379 62.928C454.863 63.156 454.233 63.27 453.489 63.27C452.817 63.27 452.235 63.141 451.743 62.883C451.257 62.619 450.885 62.262 450.627 61.812C450.375 61.362 450.249 60.864 450.249 60.318C450.249 59.61 450.414 59.013 450.744 58.527C451.074 58.041 451.617 57.66 452.373 57.384C452.793 57.228 453.306 57.096 453.912 56.988C454.518 56.874 455.391 56.733 456.531 56.565C456.483 56.109 456.315 55.776 456.027 55.566C455.745 55.35 455.319 55.242 454.749 55.242C454.335 55.242 453.942 55.338 453.57 55.53C453.198 55.722 452.943 56.022 452.805 56.43L450.591 55.728C450.843 54.888 451.317 54.225 452.013 53.739C452.709 53.253 453.621 53.01 454.749 53.01C456.663 53.01 457.929 53.598 458.547 54.774ZM456.261 60.048C456.417 59.73 456.501 59.229 456.513 58.545C455.667 58.689 455.046 58.803 454.65 58.887C454.254 58.971 453.921 59.064 453.651 59.166C453.297 59.31 453.039 59.472 452.877 59.652C452.721 59.826 452.643 60.036 452.643 60.282C452.643 60.612 452.763 60.873 453.003 61.065C453.249 61.251 453.585 61.344 454.011 61.344C454.425 61.344 454.788 61.272 455.1 61.128C455.412 60.978 455.661 60.804 455.847 60.606C456.039 60.408 456.177 60.222 456.261 60.048ZM463.767 63H461.265L461.283 50.04H463.767V57.96L467.061 53.28H470.085L466.575 58.14L470.319 63H467.133L463.767 58.32V63ZM473.843 51.93H471.395V49.77H473.843V51.93ZM473.843 63H471.395V53.28H473.843V63ZM481.851 52.992C482.991 52.992 483.84 53.283 484.398 53.865C484.962 54.447 485.31 55.062 485.442 55.71C485.58 56.358 485.649 56.97 485.649 57.546V63H483.165V58.41C483.165 57.918 483.129 57.456 483.057 57.024C482.985 56.592 482.793 56.196 482.481 55.836C482.175 55.476 481.707 55.296 481.077 55.296C480.513 55.296 480.027 55.491 479.619 55.881C479.211 56.265 479.007 56.994 479.007 58.068V63H476.523V53.28H478.701V54.279C479.067 53.871 479.514 53.556 480.042 53.334C480.57 53.106 481.173 52.992 481.851 52.992ZM494.555 53.28H496.697V63.666C496.697 64.176 496.649 64.614 496.553 64.98C496.325 65.838 495.812 66.486 495.014 66.924C494.222 67.368 493.265 67.59 492.143 67.59C491.327 67.59 490.571 67.398 489.875 67.014C489.179 66.63 488.645 66.12 488.273 65.484L490.541 64.386C490.691 64.668 490.91 64.884 491.198 65.034C491.492 65.19 491.813 65.268 492.161 65.268C492.539 65.268 492.887 65.205 493.205 65.079C493.529 64.953 493.787 64.767 493.979 64.521C494.171 64.275 494.261 63.978 494.249 63.63V62.649C493.589 63.063 492.815 63.27 491.927 63.27C491.051 63.27 490.271 63.048 489.587 62.604C488.909 62.154 488.381 61.539 488.003 60.759C487.631 59.979 487.445 59.106 487.445 58.14C487.445 57.156 487.634 56.274 488.012 55.494C488.396 54.714 488.936 54.105 489.632 53.667C490.334 53.229 491.141 53.01 492.053 53.01C493.031 53.01 493.865 53.28 494.555 53.82V53.28ZM492.323 61.092C493.811 61.092 494.555 60.108 494.555 58.14C494.555 57.216 494.381 56.493 494.033 55.971C493.691 55.449 493.151 55.188 492.413 55.188C491.885 55.188 491.444 55.32 491.09 55.584C490.736 55.842 490.472 56.193 490.298 56.637C490.124 57.081 490.037 57.582 490.037 58.14C490.037 59.01 490.229 59.721 490.613 60.273C490.997 60.819 491.567 61.092 492.323 61.092Z" fill="#273852"/>
<path opacity="0.8" d="M167.35 94H160.98V83.92H167.35V85.103H162.226V88.26H166.51V89.443H162.226V92.817H167.35V94ZM174.843 87.707C174.941 87.9217 175.006 88.1597 175.039 88.421C175.071 88.6777 175.088 88.9787 175.088 89.324V94H173.982V92.824C173.38 93.748 172.446 94.21 171.182 94.21C170.636 94.21 170.169 94.1097 169.782 93.909C169.394 93.7037 169.103 93.4307 168.907 93.09C168.711 92.7493 168.613 92.3713 168.613 91.956C168.613 90.8407 169.231 90.101 170.468 89.737C170.832 89.639 171.249 89.5527 171.721 89.478C172.192 89.4033 172.757 89.3217 173.415 89.233L173.863 89.17C173.844 88.5587 173.69 88.1107 173.401 87.826C173.111 87.5367 172.645 87.392 172.001 87.392C171.525 87.392 171.116 87.5017 170.776 87.721C170.44 87.9357 170.206 88.267 170.076 88.715L168.893 88.358C169.075 87.6813 169.429 87.1587 169.957 86.79C170.489 86.4167 171.175 86.23 172.015 86.23C172.71 86.23 173.3 86.356 173.786 86.608C174.276 86.8553 174.628 87.2217 174.843 87.707ZM171.371 93.167C171.805 93.167 172.187 93.09 172.519 92.936C172.85 92.7773 173.118 92.5673 173.324 92.306C173.529 92.04 173.662 91.746 173.723 91.424C173.769 91.2653 173.8 91.088 173.814 90.892C173.832 90.696 173.844 90.4767 173.849 90.234L173.506 90.276C172.848 90.3647 172.341 90.437 171.987 90.493C171.637 90.549 171.317 90.619 171.028 90.703C170.668 90.815 170.381 90.969 170.167 91.165C169.957 91.361 169.852 91.6223 169.852 91.949C169.852 92.1683 169.905 92.3713 170.013 92.558C170.12 92.74 170.288 92.887 170.517 92.999C170.745 93.111 171.03 93.167 171.371 93.167ZM178.665 86.902C178.875 86.734 179.122 86.6057 179.407 86.517C179.691 86.4283 179.978 86.384 180.268 86.384C180.45 86.384 180.629 86.4027 180.807 86.44V87.609C180.611 87.5623 180.422 87.539 180.24 87.539C179.787 87.539 179.4 87.658 179.078 87.896C178.737 88.1387 178.499 88.4583 178.364 88.855C178.228 89.247 178.161 89.6973 178.161 90.206V94H176.908V86.44H178.021V87.637C178.198 87.329 178.413 87.084 178.665 86.902ZM185.763 86.244C186.519 86.244 187.121 86.4307 187.569 86.804C188.017 87.1773 188.33 87.6347 188.507 88.176C188.685 88.7127 188.773 89.261 188.773 89.821V94H187.513V90.213C187.513 89.401 187.355 88.7337 187.037 88.211C186.725 87.6883 186.2 87.427 185.462 87.427C184.818 87.427 184.31 87.6463 183.936 88.085C183.568 88.519 183.383 89.163 183.383 90.017V94H182.123V86.44H183.243V87.413C183.528 87.035 183.883 86.7457 184.307 86.545C184.737 86.3443 185.222 86.244 185.763 86.244ZM195.153 86.902C195.363 86.734 195.61 86.6057 195.895 86.517C196.18 86.4283 196.467 86.384 196.756 86.384C196.938 86.384 197.118 86.4027 197.295 86.44V87.609C197.099 87.5623 196.91 87.539 196.728 87.539C196.275 87.539 195.888 87.658 195.566 87.896C195.225 88.1387 194.987 88.4583 194.852 88.855C194.717 89.247 194.649 89.6973 194.649 90.206V94H193.396V86.44H194.509V87.637C194.686 87.329 194.901 87.084 195.153 86.902ZM199.399 90.57C199.45 91.3587 199.672 91.9653 200.064 92.39C200.461 92.8147 201.007 93.027 201.702 93.027C202.197 93.027 202.628 92.9127 202.997 92.684C203.37 92.4553 203.662 92.1263 203.872 91.697L205.069 92.11C204.775 92.7727 204.334 93.2883 203.746 93.657C203.158 94.0257 202.495 94.21 201.758 94.21C201.021 94.21 200.372 94.0467 199.812 93.72C199.257 93.3933 198.825 92.9313 198.517 92.334C198.214 91.7367 198.062 91.0483 198.062 90.269C198.062 89.4523 198.211 88.7407 198.51 88.134C198.813 87.5227 199.238 87.0537 199.784 86.727C200.335 86.3957 200.974 86.23 201.702 86.23C202.425 86.23 203.048 86.3933 203.571 86.72C204.098 87.042 204.502 87.5063 204.782 88.113C205.062 88.715 205.202 89.4313 205.202 90.262C205.202 90.3973 205.2 90.5 205.195 90.57H199.399ZM201.744 87.35C201.067 87.35 200.533 87.539 200.141 87.917C199.749 88.295 199.509 88.8457 199.42 89.569H203.9C203.746 88.0897 203.027 87.35 201.744 87.35ZM209.126 94H208.09L205.78 86.433L207.019 86.44L208.706 91.97L210.407 86.44H211.506L213.2 91.97L214.894 86.44H216.126L213.816 94H212.78L210.953 88.253L209.126 94ZM222.776 87.707C222.874 87.9217 222.94 88.1597 222.972 88.421C223.005 88.6777 223.021 88.9787 223.021 89.324V94H221.915V92.824C221.313 93.748 220.38 94.21 219.115 94.21C218.569 94.21 218.103 94.1097 217.715 93.909C217.328 93.7037 217.036 93.4307 216.84 93.09C216.644 92.7493 216.546 92.3713 216.546 91.956C216.546 90.8407 217.165 90.101 218.401 89.737C218.765 89.639 219.183 89.5527 219.654 89.478C220.126 89.4033 220.69 89.3217 221.348 89.233L221.796 89.17C221.778 88.5587 221.624 88.1107 221.334 87.826C221.045 87.5367 220.578 87.392 219.934 87.392C219.458 87.392 219.05 87.5017 218.709 87.721C218.373 87.9357 218.14 88.267 218.009 88.715L216.826 88.358C217.008 87.6813 217.363 87.1587 217.89 86.79C218.422 86.4167 219.108 86.23 219.948 86.23C220.644 86.23 221.234 86.356 221.719 86.608C222.209 86.8553 222.562 87.2217 222.776 87.707ZM219.304 93.167C219.738 93.167 220.121 93.09 220.452 92.936C220.784 92.7773 221.052 92.5673 221.257 92.306C221.463 92.04 221.596 91.746 221.656 91.424C221.703 91.2653 221.733 91.088 221.747 90.892C221.766 90.696 221.778 90.4767 221.782 90.234L221.439 90.276C220.781 90.3647 220.275 90.437 219.92 90.493C219.57 90.549 219.251 90.619 218.961 90.703C218.602 90.815 218.315 90.969 218.1 91.165C217.89 91.361 217.785 91.6223 217.785 91.949C217.785 92.1683 217.839 92.3713 217.946 92.558C218.054 92.74 218.222 92.887 218.45 92.999C218.679 93.111 218.964 93.167 219.304 93.167ZM226.598 86.902C226.808 86.734 227.056 86.6057 227.34 86.517C227.625 86.4283 227.912 86.384 228.201 86.384C228.383 86.384 228.563 86.4027 228.74 86.44V87.609C228.544 87.5623 228.355 87.539 228.173 87.539C227.721 87.539 227.333 87.658 227.011 87.896C226.671 88.1387 226.433 88.4583 226.297 88.855C226.162 89.247 226.094 89.6973 226.094 90.206V94H224.841V86.44H225.954V87.637C226.132 87.329 226.346 87.084 226.598 86.902ZM235.121 83.92H236.374V94H235.261V93.146C234.977 93.4867 234.636 93.7503 234.239 93.937C233.843 94.119 233.395 94.21 232.895 94.21C232.205 94.21 231.603 94.0373 231.089 93.692C230.581 93.342 230.189 92.866 229.913 92.264C229.643 91.6573 229.507 90.9737 229.507 90.213C229.507 89.457 229.643 88.778 229.913 88.176C230.189 87.5693 230.581 87.0933 231.089 86.748C231.603 86.4027 232.202 86.23 232.888 86.23C233.35 86.23 233.768 86.307 234.141 86.461C234.519 86.615 234.846 86.8367 235.121 87.126V83.92ZM233.049 93.069C233.782 93.069 234.333 92.81 234.701 92.292C235.075 91.774 235.261 91.081 235.261 90.213C235.261 89.345 235.077 88.6543 234.708 88.141C234.34 87.6277 233.798 87.371 233.084 87.371C232.59 87.371 232.172 87.4947 231.831 87.742C231.495 87.9893 231.243 88.3277 231.075 88.757C230.912 89.1817 230.83 89.667 230.83 90.213C230.83 90.7637 230.912 91.2537 231.075 91.683C231.243 92.1123 231.493 92.4507 231.824 92.698C232.16 92.9453 232.569 93.069 233.049 93.069ZM241.191 94.203C240.594 94.203 240.064 94.1143 239.602 93.937C239.14 93.7597 238.765 93.503 238.475 93.167C238.186 92.831 237.999 92.4273 237.915 91.956L239.189 91.753C239.292 92.1683 239.528 92.495 239.896 92.733C240.265 92.971 240.722 93.09 241.268 93.09C241.782 93.09 242.185 92.985 242.479 92.775C242.778 92.5603 242.927 92.2663 242.927 91.893C242.927 91.669 242.876 91.494 242.773 91.368C242.675 91.242 242.482 91.123 242.192 91.011C241.903 90.8943 241.436 90.7497 240.792 90.577C240.116 90.395 239.588 90.2107 239.21 90.024C238.832 89.8327 238.562 89.6133 238.398 89.366C238.235 89.1187 238.153 88.8107 238.153 88.442C238.153 88.0033 238.275 87.6183 238.517 87.287C238.76 86.951 239.101 86.692 239.539 86.51C239.978 86.3233 240.484 86.23 241.058 86.23C241.628 86.23 242.139 86.3233 242.591 86.51C243.049 86.692 243.415 86.951 243.69 87.287C243.97 87.6183 244.136 88.0033 244.187 88.442L242.913 88.673C242.853 88.2623 242.647 87.938 242.297 87.7C241.952 87.462 241.509 87.343 240.967 87.343C240.659 87.343 240.386 87.3873 240.148 87.476C239.915 87.56 239.733 87.6813 239.602 87.84C239.472 87.994 239.406 88.1737 239.406 88.379C239.406 88.5703 239.462 88.729 239.574 88.855C239.691 88.981 239.901 89.1023 240.204 89.219C240.508 89.331 240.963 89.464 241.569 89.618C242.246 89.7907 242.773 89.975 243.151 90.171C243.529 90.367 243.8 90.598 243.963 90.864C244.131 91.13 244.215 91.4613 244.215 91.858C244.215 92.3433 244.094 92.7633 243.851 93.118C243.609 93.468 243.261 93.7363 242.808 93.923C242.356 94.1097 241.817 94.203 241.191 94.203ZM254.372 87.707C254.47 87.9217 254.535 88.1597 254.568 88.421C254.601 88.6777 254.617 88.9787 254.617 89.324V94H253.511V92.824C252.909 93.748 251.976 94.21 250.711 94.21C250.165 94.21 249.698 94.1097 249.311 93.909C248.924 93.7037 248.632 93.4307 248.436 93.09C248.24 92.7493 248.142 92.3713 248.142 91.956C248.142 90.8407 248.76 90.101 249.997 89.737C250.361 89.639 250.779 89.5527 251.25 89.478C251.721 89.4033 252.286 89.3217 252.944 89.233L253.392 89.17C253.373 88.5587 253.219 88.1107 252.93 87.826C252.641 87.5367 252.174 87.392 251.53 87.392C251.054 87.392 250.646 87.5017 250.305 87.721C249.969 87.9357 249.736 88.267 249.605 88.715L248.422 88.358C248.604 87.6813 248.959 87.1587 249.486 86.79C250.018 86.4167 250.704 86.23 251.544 86.23C252.239 86.23 252.83 86.356 253.315 86.608C253.805 86.8553 254.157 87.2217 254.372 87.707ZM250.9 93.167C251.334 93.167 251.717 93.09 252.048 92.936C252.379 92.7773 252.648 92.5673 252.853 92.306C253.058 92.04 253.191 91.746 253.252 91.424C253.299 91.2653 253.329 91.088 253.343 90.892C253.362 90.696 253.373 90.4767 253.378 90.234L253.035 90.276C252.377 90.3647 251.871 90.437 251.516 90.493C251.166 90.549 250.846 90.619 250.557 90.703C250.198 90.815 249.911 90.969 249.696 91.165C249.486 91.361 249.381 91.6223 249.381 91.949C249.381 92.1683 249.435 92.3713 249.542 92.558C249.649 92.74 249.817 92.887 250.046 92.999C250.275 93.111 250.559 93.167 250.9 93.167ZM260.07 86.244C260.826 86.244 261.428 86.4307 261.876 86.804C262.324 87.1773 262.637 87.6347 262.814 88.176C262.991 88.7127 263.08 89.261 263.08 89.821V94H261.82V90.213C261.82 89.401 261.661 88.7337 261.344 88.211C261.031 87.6883 260.506 87.427 259.769 87.427C259.125 87.427 258.616 87.6463 258.243 88.085C257.874 88.519 257.69 89.163 257.69 90.017V94H256.43V86.44H257.55V87.413C257.835 87.035 258.189 86.7457 258.614 86.545C259.043 86.3443 259.529 86.244 260.07 86.244ZM270.026 83.92H271.279V94H270.166V93.146C269.881 93.4867 269.54 93.7503 269.144 93.937C268.747 94.119 268.299 94.21 267.8 94.21C267.109 94.21 266.507 94.0373 265.994 93.692C265.485 93.342 265.093 92.866 264.818 92.264C264.547 91.6573 264.412 90.9737 264.412 90.213C264.412 89.457 264.547 88.778 264.818 88.176C265.093 87.5693 265.485 87.0933 265.994 86.748C266.507 86.4027 267.107 86.23 267.793 86.23C268.255 86.23 268.672 86.307 269.046 86.461C269.424 86.615 269.75 86.8367 270.026 87.126V83.92ZM267.954 93.069C268.686 93.069 269.237 92.81 269.606 92.292C269.979 91.774 270.166 91.081 270.166 90.213C270.166 89.345 269.981 88.6543 269.613 88.141C269.244 87.6277 268.703 87.371 267.989 87.371C267.494 87.371 267.076 87.4947 266.736 87.742C266.4 87.9893 266.148 88.3277 265.98 88.757C265.816 89.1817 265.735 89.667 265.735 90.213C265.735 90.7637 265.816 91.2537 265.98 91.683C266.148 92.1123 266.397 92.4507 266.729 92.698C267.065 92.9453 267.473 93.069 267.954 93.069ZM283.792 86.244C284.31 86.244 284.76 86.3537 285.143 86.573C285.525 86.7877 285.819 87.0957 286.025 87.497C286.23 87.8937 286.333 88.358 286.333 88.89L286.326 94H285.08L285.087 89.163C285.087 88.7943 285.017 88.4747 284.877 88.204C284.741 87.9287 284.55 87.7187 284.303 87.574C284.06 87.4293 283.78 87.357 283.463 87.357C283.169 87.357 282.896 87.4247 282.644 87.56C282.392 87.6953 282.189 87.9007 282.035 88.176C281.885 88.4513 281.811 88.792 281.811 89.198L281.804 94H280.565L280.572 89.212C280.572 88.834 280.504 88.505 280.369 88.225C280.233 87.945 280.042 87.7303 279.795 87.581C279.547 87.4317 279.26 87.357 278.934 87.357C278.607 87.357 278.32 87.434 278.073 87.588C277.825 87.742 277.632 87.959 277.492 88.239C277.356 88.5143 277.289 88.834 277.289 89.198V94H276.036V86.44H277.149V87.245C277.391 86.9323 277.699 86.6873 278.073 86.51C278.446 86.3327 278.854 86.244 279.298 86.244C279.806 86.244 280.25 86.3537 280.628 86.573C281.006 86.7877 281.297 87.0933 281.503 87.49C281.727 87.098 282.039 86.7923 282.441 86.573C282.847 86.3537 283.297 86.244 283.792 86.244ZM293.966 87.707C294.064 87.9217 294.129 88.1597 294.162 88.421C294.194 88.6777 294.211 88.9787 294.211 89.324V94H293.105V92.824C292.503 93.748 291.569 94.21 290.305 94.21C289.759 94.21 289.292 94.1097 288.905 93.909C288.517 93.7037 288.226 93.4307 288.03 93.09C287.834 92.7493 287.736 92.3713 287.736 91.956C287.736 90.8407 288.354 90.101 289.591 89.737C289.955 89.639 290.372 89.5527 290.844 89.478C291.315 89.4033 291.88 89.3217 292.538 89.233L292.986 89.17C292.967 88.5587 292.813 88.1107 292.524 87.826C292.234 87.5367 291.768 87.392 291.124 87.392C290.648 87.392 290.239 87.5017 289.899 87.721C289.563 87.9357 289.329 88.267 289.199 88.715L288.016 88.358C288.198 87.6813 288.552 87.1587 289.08 86.79C289.612 86.4167 290.298 86.23 291.138 86.23C291.833 86.23 292.423 86.356 292.909 86.608C293.399 86.8553 293.751 87.2217 293.966 87.707ZM290.494 93.167C290.928 93.167 291.31 93.09 291.642 92.936C291.973 92.7773 292.241 92.5673 292.447 92.306C292.652 92.04 292.785 91.746 292.846 91.424C292.892 91.2653 292.923 91.088 292.937 90.892C292.955 90.696 292.967 90.4767 292.972 90.234L292.629 90.276C291.971 90.3647 291.464 90.437 291.11 90.493C290.76 90.549 290.44 90.619 290.151 90.703C289.791 90.815 289.504 90.969 289.29 91.165C289.08 91.361 288.975 91.6223 288.975 91.949C288.975 92.1683 289.028 92.3713 289.136 92.558C289.243 92.74 289.411 92.887 289.64 92.999C289.868 93.111 290.153 93.167 290.494 93.167ZM297.291 94H296.024L296.031 83.92H297.291V90.08L300.462 86.44H302.079L298.74 90.22L302.471 94H300.728L297.291 90.36V94ZM303.948 90.57C303.999 91.3587 304.221 91.9653 304.613 92.39C305.009 92.8147 305.555 93.027 306.251 93.027C306.745 93.027 307.177 92.9127 307.546 92.684C307.919 92.4553 308.211 92.1263 308.421 91.697L309.618 92.11C309.324 92.7727 308.883 93.2883 308.295 93.657C307.707 94.0257 307.044 94.21 306.307 94.21C305.569 94.21 304.921 94.0467 304.361 93.72C303.805 93.3933 303.374 92.9313 303.066 92.334C302.762 91.7367 302.611 91.0483 302.611 90.269C302.611 89.4523 302.76 88.7407 303.059 88.134C303.362 87.5227 303.787 87.0537 304.333 86.727C304.883 86.3957 305.523 86.23 306.251 86.23C306.974 86.23 307.597 86.3933 308.12 86.72C308.647 87.042 309.051 87.5063 309.331 88.113C309.611 88.715 309.751 89.4313 309.751 90.262C309.751 90.3973 309.748 90.5 309.744 90.57H303.948ZM306.293 87.35C305.616 87.35 305.082 87.539 304.69 87.917C304.298 88.295 304.057 88.8457 303.969 89.569H308.449C308.295 88.0897 307.576 87.35 306.293 87.35ZM320.475 94H314.105V83.92H320.475V85.103H315.351V88.26H319.635V89.443H315.351V92.817H320.475V94ZM324.097 87.469V91.088V91.494C324.097 91.732 324.106 91.9233 324.125 92.068C324.143 92.2127 324.185 92.3387 324.251 92.446C324.363 92.6467 324.521 92.7913 324.727 92.88C324.937 92.9687 325.193 93.013 325.497 93.013C325.716 93.013 326.01 92.985 326.379 92.929V94C325.991 94.0793 325.618 94.119 325.259 94.119C324.759 94.119 324.321 94.0373 323.943 93.874C323.569 93.706 323.292 93.4447 323.11 93.09C323.002 92.88 322.932 92.6653 322.9 92.446C322.867 92.2267 322.851 91.9537 322.851 91.627V91.144V87.469H321.318V86.44H322.851V84.34H324.097V86.44H326.379V87.469H324.097ZM331.547 86.244C332.303 86.244 332.905 86.4307 333.353 86.804C333.801 87.1773 334.113 87.6347 334.291 88.176C334.468 88.7127 334.557 89.261 334.557 89.821V94H333.297V90.213C333.297 89.401 333.138 88.7337 332.821 88.211C332.508 87.6883 331.983 87.427 331.246 87.427C330.602 87.427 330.093 87.6463 329.72 88.085C329.351 88.519 329.167 89.163 329.167 90.017V94H327.907V83.92H329.027V87.413C329.311 87.035 329.666 86.7457 330.091 86.545C330.52 86.3443 331.005 86.244 331.547 86.244ZM337.293 90.57C337.345 91.3587 337.566 91.9653 337.958 92.39C338.355 92.8147 338.901 93.027 339.596 93.027C340.091 93.027 340.523 92.9127 340.891 92.684C341.265 92.4553 341.556 92.1263 341.766 91.697L342.963 92.11C342.669 92.7727 342.228 93.2883 341.64 93.657C341.052 94.0257 340.39 94.21 339.652 94.21C338.915 94.21 338.266 94.0467 337.706 93.72C337.151 93.3933 336.719 92.9313 336.411 92.334C336.108 91.7367 335.956 91.0483 335.956 90.269C335.956 89.4523 336.106 88.7407 336.404 88.134C336.708 87.5227 337.132 87.0537 337.678 86.727C338.229 86.3957 338.868 86.23 339.596 86.23C340.32 86.23 340.943 86.3933 341.465 86.72C341.993 87.042 342.396 87.5063 342.676 88.113C342.956 88.715 343.096 89.4313 343.096 90.262C343.096 90.3973 343.094 90.5 343.089 90.57H337.293ZM339.638 87.35C338.962 87.35 338.427 87.539 338.035 87.917C337.643 88.295 337.403 88.8457 337.314 89.569H341.794C341.64 88.0897 340.922 87.35 339.638 87.35ZM346.405 86.902C346.615 86.734 346.862 86.6057 347.147 86.517C347.432 86.4283 347.719 86.384 348.008 86.384C348.19 86.384 348.37 86.4027 348.547 86.44V87.609C348.351 87.5623 348.162 87.539 347.98 87.539C347.527 87.539 347.14 87.658 346.818 87.896C346.477 88.1387 346.239 88.4583 346.104 88.855C345.969 89.247 345.901 89.6973 345.901 90.206V94H344.648V86.44H345.761V87.637C345.938 87.329 346.153 87.084 346.405 86.902ZM350.651 90.57C350.702 91.3587 350.924 91.9653 351.316 92.39C351.713 92.8147 352.259 93.027 352.954 93.027C353.449 93.027 353.88 92.9127 354.249 92.684C354.622 92.4553 354.914 92.1263 355.124 91.697L356.321 92.11C356.027 92.7727 355.586 93.2883 354.998 93.657C354.41 94.0257 353.747 94.21 353.01 94.21C352.273 94.21 351.624 94.0467 351.064 93.72C350.509 93.3933 350.077 92.9313 349.769 92.334C349.466 91.7367 349.314 91.0483 349.314 90.269C349.314 89.4523 349.463 88.7407 349.762 88.134C350.065 87.5227 350.49 87.0537 351.036 86.727C351.587 86.3957 352.226 86.23 352.954 86.23C353.677 86.23 354.3 86.3933 354.823 86.72C355.35 87.042 355.754 87.5063 356.034 88.113C356.314 88.715 356.454 89.4313 356.454 90.262C356.454 90.3973 356.452 90.5 356.447 90.57H350.651ZM352.996 87.35C352.319 87.35 351.785 87.539 351.393 87.917C351.001 88.295 350.761 88.8457 350.672 89.569H355.152C354.998 88.0897 354.279 87.35 352.996 87.35ZM363.255 86.44H364.508V94H363.395V93.027C363.111 93.405 362.754 93.6943 362.324 93.895C361.9 94.0957 361.417 94.196 360.875 94.196C360.119 94.196 359.517 94.0093 359.069 93.636C358.621 93.2627 358.309 92.8077 358.131 92.271C357.954 91.7297 357.865 91.179 357.865 90.619V86.44H359.125V90.227C359.125 91.039 359.282 91.7063 359.594 92.229C359.912 92.7517 360.439 93.013 361.176 93.013C361.82 93.013 362.327 92.796 362.695 92.362C363.069 91.9233 363.255 91.277 363.255 90.423V86.44ZM374.217 86.244C374.735 86.244 375.186 86.3537 375.568 86.573C375.951 86.7877 376.245 87.0957 376.45 87.497C376.656 87.8937 376.758 88.358 376.758 88.89L376.751 94H375.505L375.512 89.163C375.512 88.7943 375.442 88.4747 375.302 88.204C375.167 87.9287 374.976 87.7187 374.728 87.574C374.486 87.4293 374.206 87.357 373.888 87.357C373.594 87.357 373.321 87.4247 373.069 87.56C372.817 87.6953 372.614 87.9007 372.46 88.176C372.311 88.4513 372.236 88.792 372.236 89.198L372.229 94H370.99L370.997 89.212C370.997 88.834 370.93 88.505 370.794 88.225C370.659 87.945 370.468 87.7303 370.22 87.581C369.973 87.4317 369.686 87.357 369.359 87.357C369.033 87.357 368.746 87.434 368.498 87.588C368.251 87.742 368.057 87.959 367.917 88.239C367.782 88.5143 367.714 88.834 367.714 89.198V94H366.461V86.44H367.574V87.245C367.817 86.9323 368.125 86.6873 368.498 86.51C368.872 86.3327 369.28 86.244 369.723 86.244C370.232 86.244 370.675 86.3537 371.053 86.573C371.431 86.7877 371.723 87.0933 371.928 87.49C372.152 87.098 372.465 86.7923 372.866 86.573C373.272 86.3537 373.723 86.244 374.217 86.244ZM389.133 86.244C389.651 86.244 390.102 86.3537 390.484 86.573C390.867 86.7877 391.161 87.0957 391.366 87.497C391.572 87.8937 391.674 88.358 391.674 88.89L391.667 94H390.421L390.428 89.163C390.428 88.7943 390.358 88.4747 390.218 88.204C390.083 87.9287 389.892 87.7187 389.644 87.574C389.402 87.4293 389.122 87.357 388.804 87.357C388.51 87.357 388.237 87.4247 387.985 87.56C387.733 87.6953 387.53 87.9007 387.376 88.176C387.227 88.4513 387.152 88.792 387.152 89.198L387.145 94H385.906L385.913 89.212C385.913 88.834 385.846 88.505 385.71 88.225C385.575 87.945 385.384 87.7303 385.136 87.581C384.889 87.4317 384.602 87.357 384.275 87.357C383.949 87.357 383.662 87.434 383.414 87.588C383.167 87.742 382.973 87.959 382.833 88.239C382.698 88.5143 382.63 88.834 382.63 89.198V94H381.377V86.44H382.49V87.245C382.733 86.9323 383.041 86.6873 383.414 86.51C383.788 86.3327 384.196 86.244 384.639 86.244C385.148 86.244 385.591 86.3537 385.969 86.573C386.347 86.7877 386.639 87.0933 386.844 87.49C387.068 87.098 387.381 86.7923 387.782 86.573C388.188 86.3537 388.639 86.244 389.133 86.244ZM396.649 94.21C395.907 94.21 395.261 94.042 394.71 93.706C394.164 93.3653 393.744 92.894 393.45 92.292C393.156 91.6853 393.009 90.9923 393.009 90.213C393.009 89.429 393.159 88.736 393.457 88.134C393.756 87.532 394.181 87.0653 394.731 86.734C395.282 86.398 395.921 86.23 396.649 86.23C397.391 86.23 398.038 86.398 398.588 86.734C399.139 87.07 399.561 87.539 399.855 88.141C400.149 88.743 400.296 89.4337 400.296 90.213C400.296 91.0017 400.147 91.6993 399.848 92.306C399.554 92.908 399.132 93.377 398.581 93.713C398.031 94.0443 397.387 94.21 396.649 94.21ZM396.649 93.027C397.41 93.027 397.986 92.775 398.378 92.271C398.775 91.7623 398.973 91.0763 398.973 90.213C398.973 89.3403 398.775 88.6567 398.378 88.162C397.982 87.6627 397.405 87.413 396.649 87.413C395.884 87.413 395.305 87.665 394.913 88.169C394.526 88.673 394.332 89.3543 394.332 90.213C394.332 91.0857 394.531 91.774 394.927 92.278C395.329 92.7773 395.903 93.027 396.649 93.027ZM403.594 86.902C403.804 86.734 404.052 86.6057 404.336 86.517C404.621 86.4283 404.908 86.384 405.197 86.384C405.379 86.384 405.559 86.4027 405.736 86.44V87.609C405.54 87.5623 405.351 87.539 405.169 87.539C404.717 87.539 404.329 87.658 404.007 87.896C403.667 88.1387 403.429 88.4583 403.293 88.855C403.158 89.247 403.09 89.6973 403.09 90.206V94H401.837V86.44H402.95V87.637C403.128 87.329 403.342 87.084 403.594 86.902ZM407.84 90.57C407.892 91.3587 408.113 91.9653 408.505 92.39C408.902 92.8147 409.448 93.027 410.143 93.027C410.638 93.027 411.07 92.9127 411.438 92.684C411.812 92.4553 412.103 92.1263 412.313 91.697L413.51 92.11C413.216 92.7727 412.775 93.2883 412.187 93.657C411.599 94.0257 410.937 94.21 410.199 94.21C409.462 94.21 408.813 94.0467 408.253 93.72C407.698 93.3933 407.266 92.9313 406.958 92.334C406.655 91.7367 406.503 91.0483 406.503 90.269C406.503 89.4523 406.653 88.7407 406.951 88.134C407.255 87.5227 407.679 87.0537 408.225 86.727C408.776 86.3957 409.415 86.23 410.143 86.23C410.867 86.23 411.49 86.3933 412.012 86.72C412.54 87.042 412.943 87.5063 413.223 88.113C413.503 88.715 413.643 89.4313 413.643 90.262C413.643 90.3973 413.641 90.5 413.636 90.57H407.84ZM410.185 87.35C409.509 87.35 408.974 87.539 408.582 87.917C408.19 88.295 407.95 88.8457 407.861 89.569H412.341C412.187 88.0897 411.469 87.35 410.185 87.35ZM420.854 94.203C420.256 94.203 419.727 94.1143 419.265 93.937C418.803 93.7597 418.427 93.503 418.138 93.167C417.848 92.831 417.662 92.4273 417.578 91.956L418.852 91.753C418.954 92.1683 419.19 92.495 419.559 92.733C419.927 92.971 420.385 93.09 420.931 93.09C421.444 93.09 421.848 92.985 422.142 92.775C422.44 92.5603 422.59 92.2663 422.59 91.893C422.59 91.669 422.538 91.494 422.436 91.368C422.338 91.242 422.144 91.123 421.855 91.011C421.565 90.8943 421.099 90.7497 420.455 90.577C419.778 90.395 419.251 90.2107 418.873 90.024C418.495 89.8327 418.224 89.6133 418.061 89.366C417.897 89.1187 417.816 88.8107 417.816 88.442C417.816 88.0033 417.937 87.6183 418.18 87.287C418.422 86.951 418.763 86.692 419.202 86.51C419.64 86.3233 420.147 86.23 420.721 86.23C421.29 86.23 421.801 86.3233 422.254 86.51C422.711 86.692 423.077 86.951 423.353 87.287C423.633 87.6183 423.798 88.0033 423.85 88.442L422.576 88.673C422.515 88.2623 422.31 87.938 421.96 87.7C421.614 87.462 421.171 87.343 420.63 87.343C420.322 87.343 420.049 87.3873 419.811 87.476C419.577 87.56 419.395 87.6813 419.265 87.84C419.134 87.994 419.069 88.1737 419.069 88.379C419.069 88.5703 419.125 88.729 419.237 88.855C419.353 88.981 419.563 89.1023 419.867 89.219C420.17 89.331 420.625 89.464 421.232 89.618C421.908 89.7907 422.436 89.975 422.814 90.171C423.192 90.367 423.462 90.598 423.626 90.864C423.794 91.13 423.878 91.4613 423.878 91.858C423.878 92.3433 423.756 92.7633 423.514 93.118C423.271 93.468 422.923 93.7363 422.471 93.923C422.018 94.1097 421.479 94.203 420.854 94.203ZM426.338 90.57C426.39 91.3587 426.611 91.9653 427.003 92.39C427.4 92.8147 427.946 93.027 428.641 93.027C429.136 93.027 429.568 92.9127 429.936 92.684C430.31 92.4553 430.601 92.1263 430.811 91.697L432.008 92.11C431.714 92.7727 431.273 93.2883 430.685 93.657C430.097 94.0257 429.435 94.21 428.697 94.21C427.96 94.21 427.311 94.0467 426.751 93.72C426.196 93.3933 425.764 92.9313 425.456 92.334C425.153 91.7367 425.001 91.0483 425.001 90.269C425.001 89.4523 425.151 88.7407 425.449 88.134C425.753 87.5227 426.177 87.0537 426.723 86.727C427.274 86.3957 427.913 86.23 428.641 86.23C429.365 86.23 429.988 86.3933 430.51 86.72C431.038 87.042 431.441 87.5063 431.721 88.113C432.001 88.715 432.141 89.4313 432.141 90.262C432.141 90.3973 432.139 90.5 432.134 90.57H426.338ZM428.683 87.35C428.007 87.35 427.472 87.539 427.08 87.917C426.688 88.295 426.448 88.8457 426.359 89.569H430.839C430.685 88.0897 429.967 87.35 428.683 87.35ZM436.878 94.21C436.127 94.21 435.48 94.042 434.939 93.706C434.402 93.3653 433.992 92.894 433.707 92.292C433.427 91.69 433.282 90.9993 433.273 90.22C433.282 89.4313 433.429 88.736 433.714 88.134C434.003 87.532 434.419 87.0653 434.96 86.734C435.501 86.398 436.145 86.23 436.892 86.23C437.419 86.23 437.902 86.3187 438.341 86.496C438.78 86.6733 439.151 86.9277 439.454 87.259C439.762 87.5903 439.981 87.98 440.112 88.428L438.88 88.799C438.721 88.365 438.462 88.0267 438.103 87.784C437.748 87.5367 437.34 87.413 436.878 87.413C436.127 87.413 435.56 87.6673 435.177 88.176C434.799 88.6847 434.605 89.366 434.596 90.22C434.605 91.088 434.804 91.774 435.191 92.278C435.583 92.7773 436.145 93.027 436.878 93.027C437.844 93.027 438.502 92.586 438.852 91.704L440.112 92.033C439.846 92.7377 439.435 93.2767 438.88 93.65C438.325 94.0233 437.657 94.21 436.878 94.21ZM446.791 86.44H448.044V94H446.931V93.027C446.646 93.405 446.289 93.6943 445.86 93.895C445.435 94.0957 444.952 94.196 444.411 94.196C443.655 94.196 443.053 94.0093 442.605 93.636C442.157 93.2627 441.844 92.8077 441.667 92.271C441.489 91.7297 441.401 91.179 441.401 90.619V86.44H442.661V90.227C442.661 91.039 442.817 91.7063 443.13 92.229C443.447 92.7517 443.974 93.013 444.712 93.013C445.356 93.013 445.862 92.796 446.231 92.362C446.604 91.9233 446.791 91.277 446.791 90.423V86.44ZM451.76 86.902C451.97 86.734 452.218 86.6057 452.502 86.517C452.787 86.4283 453.074 86.384 453.363 86.384C453.545 86.384 453.725 86.4027 453.902 86.44V87.609C453.706 87.5623 453.517 87.539 453.335 87.539C452.883 87.539 452.495 87.658 452.173 87.896C451.833 88.1387 451.595 88.4583 451.459 88.855C451.324 89.247 451.256 89.6973 451.256 90.206V94H450.003V86.44H451.116V87.637C451.294 87.329 451.508 87.084 451.76 86.902ZM456.006 90.57C456.058 91.3587 456.279 91.9653 456.671 92.39C457.068 92.8147 457.614 93.027 458.309 93.027C458.804 93.027 459.236 92.9127 459.604 92.684C459.978 92.4553 460.269 92.1263 460.479 91.697L461.676 92.11C461.382 92.7727 460.941 93.2883 460.353 93.657C459.765 94.0257 459.103 94.21 458.365 94.21C457.628 94.21 456.979 94.0467 456.419 93.72C455.864 93.3933 455.432 92.9313 455.124 92.334C454.821 91.7367 454.669 91.0483 454.669 90.269C454.669 89.4523 454.819 88.7407 455.117 88.134C455.421 87.5227 455.845 87.0537 456.391 86.727C456.942 86.3957 457.581 86.23 458.309 86.23C459.033 86.23 459.656 86.3933 460.178 86.72C460.706 87.042 461.109 87.5063 461.389 88.113C461.669 88.715 461.809 89.4313 461.809 90.262C461.809 90.3973 461.807 90.5 461.802 90.57H456.006ZM458.351 87.35C457.675 87.35 457.14 87.539 456.748 87.917C456.356 88.295 456.116 88.8457 456.027 89.569H460.507C460.353 88.0897 459.635 87.35 458.351 87.35ZM469.643 86.23C470.329 86.23 470.926 86.4027 471.435 86.748C471.948 87.0933 472.34 87.5693 472.611 88.176C472.886 88.778 473.024 89.457 473.024 90.213C473.024 90.9737 472.886 91.6573 472.611 92.264C472.34 92.866 471.948 93.342 471.435 93.692C470.926 94.0373 470.326 94.21 469.636 94.21C469.136 94.21 468.688 94.119 468.292 93.937C467.895 93.7503 467.554 93.4867 467.27 93.146V94H466.157V83.92H467.41V87.126C467.685 86.8367 468.009 86.615 468.383 86.461C468.761 86.307 469.181 86.23 469.643 86.23ZM469.482 93.069C469.962 93.069 470.368 92.9453 470.7 92.698C471.036 92.4507 471.285 92.1123 471.449 91.683C471.617 91.2537 471.701 90.7637 471.701 90.213C471.701 89.667 471.617 89.1817 471.449 88.757C471.285 88.3277 471.033 87.9893 470.693 87.742C470.357 87.4947 469.941 87.371 469.447 87.371C468.733 87.371 468.191 87.6277 467.823 88.141C467.454 88.6543 467.27 89.345 467.27 90.213C467.27 91.081 467.454 91.774 467.823 92.292C468.196 92.81 468.749 93.069 469.482 93.069ZM477.032 92.39L479.244 86.44H480.511L476.395 97.36H475.184L476.43 93.972L473.364 86.44H474.673L477.032 92.39ZM163.836 116.203C163.239 116.203 162.709 116.114 162.247 115.937C161.785 115.76 161.409 115.503 161.12 115.167C160.831 114.831 160.644 114.427 160.56 113.956L161.834 113.753C161.937 114.168 162.172 114.495 162.541 114.733C162.91 114.971 163.367 115.09 163.913 115.09C164.426 115.09 164.83 114.985 165.124 114.775C165.423 114.56 165.572 114.266 165.572 113.893C165.572 113.669 165.521 113.494 165.418 113.368C165.32 113.242 165.126 113.123 164.837 113.011C164.548 112.894 164.081 112.75 163.437 112.577C162.76 112.395 162.233 112.211 161.855 112.024C161.477 111.833 161.206 111.613 161.043 111.366C160.88 111.119 160.798 110.811 160.798 110.442C160.798 110.003 160.919 109.618 161.162 109.287C161.405 108.951 161.745 108.692 162.184 108.51C162.623 108.323 163.129 108.23 163.703 108.23C164.272 108.23 164.783 108.323 165.236 108.51C165.693 108.692 166.06 108.951 166.335 109.287C166.615 109.618 166.781 110.003 166.832 110.442L165.558 110.673C165.497 110.262 165.292 109.938 164.942 109.7C164.597 109.462 164.153 109.343 163.612 109.343C163.304 109.343 163.031 109.387 162.793 109.476C162.56 109.56 162.378 109.681 162.247 109.84C162.116 109.994 162.051 110.174 162.051 110.379C162.051 110.57 162.107 110.729 162.219 110.855C162.336 110.981 162.546 111.102 162.849 111.219C163.152 111.331 163.607 111.464 164.214 111.618C164.891 111.791 165.418 111.975 165.796 112.171C166.174 112.367 166.445 112.598 166.608 112.864C166.776 113.13 166.86 113.461 166.86 113.858C166.86 114.343 166.739 114.763 166.496 115.118C166.253 115.468 165.906 115.736 165.453 115.923C165 116.11 164.461 116.203 163.836 116.203ZM171.883 108.23C172.569 108.23 173.166 108.403 173.675 108.748C174.188 109.093 174.58 109.569 174.851 110.176C175.126 110.778 175.264 111.457 175.264 112.213C175.264 112.974 175.126 113.657 174.851 114.264C174.58 114.866 174.188 115.342 173.675 115.692C173.166 116.037 172.566 116.21 171.876 116.21C171.414 116.21 170.996 116.133 170.623 115.979C170.249 115.82 169.925 115.594 169.65 115.3V119.36H168.397V108.44H169.51V109.287C169.794 108.946 170.135 108.685 170.532 108.503C170.928 108.321 171.379 108.23 171.883 108.23ZM171.722 115.069C172.202 115.069 172.608 114.945 172.94 114.698C173.276 114.451 173.525 114.112 173.689 113.683C173.857 113.254 173.941 112.764 173.941 112.213C173.941 111.667 173.857 111.182 173.689 110.757C173.525 110.328 173.273 109.989 172.933 109.742C172.597 109.495 172.181 109.371 171.687 109.371C170.973 109.371 170.431 109.628 170.063 110.141C169.694 110.654 169.51 111.345 169.51 112.213C169.51 113.081 169.694 113.774 170.063 114.292C170.436 114.81 170.989 115.069 171.722 115.069ZM178.555 108.902C178.765 108.734 179.013 108.606 179.297 108.517C179.582 108.428 179.869 108.384 180.158 108.384C180.34 108.384 180.52 108.403 180.697 108.44V109.609C180.501 109.562 180.312 109.539 180.13 109.539C179.678 109.539 179.29 109.658 178.968 109.896C178.628 110.139 178.39 110.458 178.254 110.855C178.119 111.247 178.051 111.697 178.051 112.206V116H176.798V108.44H177.911V109.637C178.089 109.329 178.303 109.084 178.555 108.902ZM182.801 112.57C182.853 113.359 183.074 113.965 183.466 114.39C183.863 114.815 184.409 115.027 185.104 115.027C185.599 115.027 186.031 114.913 186.399 114.684C186.773 114.455 187.064 114.126 187.274 113.697L188.471 114.11C188.177 114.773 187.736 115.288 187.148 115.657C186.56 116.026 185.898 116.21 185.16 116.21C184.423 116.21 183.774 116.047 183.214 115.72C182.659 115.393 182.227 114.931 181.919 114.334C181.616 113.737 181.464 113.048 181.464 112.269C181.464 111.452 181.614 110.741 181.912 110.134C182.216 109.523 182.64 109.054 183.186 108.727C183.737 108.396 184.376 108.23 185.104 108.23C185.828 108.23 186.451 108.393 186.973 108.72C187.501 109.042 187.904 109.506 188.184 110.113C188.464 110.715 188.604 111.431 188.604 112.262C188.604 112.397 188.602 112.5 188.597 112.57H182.801ZM185.146 109.35C184.47 109.35 183.935 109.539 183.543 109.917C183.151 110.295 182.911 110.846 182.822 111.569H187.302C187.148 110.09 186.43 109.35 185.146 109.35ZM195.829 109.707C195.927 109.922 195.992 110.16 196.025 110.421C196.058 110.678 196.074 110.979 196.074 111.324V116H194.968V114.824C194.366 115.748 193.433 116.21 192.168 116.21C191.622 116.21 191.155 116.11 190.768 115.909C190.381 115.704 190.089 115.431 189.893 115.09C189.697 114.749 189.599 114.371 189.599 113.956C189.599 112.841 190.217 112.101 191.454 111.737C191.818 111.639 192.236 111.553 192.707 111.478C193.178 111.403 193.743 111.322 194.401 111.233L194.849 111.17C194.83 110.559 194.676 110.111 194.387 109.826C194.098 109.537 193.631 109.392 192.987 109.392C192.511 109.392 192.103 109.502 191.762 109.721C191.426 109.936 191.193 110.267 191.062 110.715L189.879 110.358C190.061 109.681 190.416 109.159 190.943 108.79C191.475 108.417 192.161 108.23 193.001 108.23C193.696 108.23 194.287 108.356 194.772 108.608C195.262 108.855 195.614 109.222 195.829 109.707ZM192.357 115.167C192.791 115.167 193.174 115.09 193.505 114.936C193.836 114.777 194.105 114.567 194.31 114.306C194.515 114.04 194.648 113.746 194.709 113.424C194.756 113.265 194.786 113.088 194.8 112.892C194.819 112.696 194.83 112.477 194.835 112.234L194.492 112.276C193.834 112.365 193.328 112.437 192.973 112.493C192.623 112.549 192.303 112.619 192.014 112.703C191.655 112.815 191.368 112.969 191.153 113.165C190.943 113.361 190.838 113.622 190.838 113.949C190.838 114.168 190.892 114.371 190.999 114.558C191.106 114.74 191.274 114.887 191.503 114.999C191.732 115.111 192.016 115.167 192.357 115.167ZM203.088 105.92H204.341V116H203.228V115.146C202.943 115.487 202.603 115.75 202.206 115.937C201.809 116.119 201.361 116.21 200.862 116.21C200.171 116.21 199.569 116.037 199.056 115.692C198.547 115.342 198.155 114.866 197.88 114.264C197.609 113.657 197.474 112.974 197.474 112.213C197.474 111.457 197.609 110.778 197.88 110.176C198.155 109.569 198.547 109.093 199.056 108.748C199.569 108.403 200.169 108.23 200.855 108.23C201.317 108.23 201.735 108.307 202.108 108.461C202.486 108.615 202.813 108.837 203.088 109.126V105.92ZM201.016 115.069C201.749 115.069 202.299 114.81 202.668 114.292C203.041 113.774 203.228 113.081 203.228 112.213C203.228 111.345 203.044 110.654 202.675 110.141C202.306 109.628 201.765 109.371 201.051 109.371C200.556 109.371 200.139 109.495 199.798 109.742C199.462 109.989 199.21 110.328 199.042 110.757C198.879 111.182 198.797 111.667 198.797 112.213C198.797 112.764 198.879 113.254 199.042 113.683C199.21 114.112 199.46 114.451 199.791 114.698C200.127 114.945 200.535 115.069 201.016 115.069ZM207.688 107.103H206.442V105.815H207.688V107.103ZM207.688 116H206.442V108.44H207.688V116ZM213.422 108.244C214.178 108.244 214.78 108.431 215.228 108.804C215.676 109.177 215.988 109.635 216.166 110.176C216.343 110.713 216.432 111.261 216.432 111.821V116H215.172V112.213C215.172 111.401 215.013 110.734 214.696 110.211C214.383 109.688 213.858 109.427 213.121 109.427C212.477 109.427 211.968 109.646 211.595 110.085C211.226 110.519 211.042 111.163 211.042 112.017V116H209.782V108.44H210.902V109.413C211.186 109.035 211.541 108.746 211.966 108.545C212.395 108.344 212.88 108.244 213.422 108.244ZM223.585 108.44H224.691V116.049C224.691 116.502 224.661 116.889 224.6 117.211C224.456 118 224.101 118.59 223.536 118.982C222.972 119.374 222.23 119.57 221.31 119.57C220.69 119.57 220.111 119.428 219.574 119.143C219.042 118.863 218.625 118.452 218.321 117.911L219.462 117.309C219.64 117.664 219.894 117.927 220.225 118.1C220.561 118.277 220.925 118.366 221.317 118.366C222.745 118.366 223.452 117.589 223.438 116.035V115.307C223.163 115.596 222.839 115.82 222.465 115.979C222.092 116.133 221.677 116.21 221.219 116.21C220.529 116.21 219.927 116.037 219.413 115.692C218.905 115.342 218.513 114.866 218.237 114.264C217.967 113.657 217.831 112.974 217.831 112.213C217.831 111.457 217.967 110.778 218.237 110.176C218.513 109.569 218.905 109.093 219.413 108.748C219.927 108.403 220.526 108.23 221.212 108.23C221.716 108.23 222.167 108.321 222.563 108.503C222.96 108.685 223.301 108.946 223.585 109.287V108.44ZM221.373 115.069C222.106 115.069 222.657 114.81 223.025 114.292C223.399 113.774 223.585 113.081 223.585 112.213C223.585 111.345 223.401 110.654 223.032 110.141C222.664 109.628 222.122 109.371 221.408 109.371C220.914 109.371 220.496 109.495 220.155 109.742C219.819 109.989 219.567 110.328 219.399 110.757C219.236 111.182 219.154 111.667 219.154 112.213C219.154 112.764 219.236 113.254 219.399 113.683C219.567 114.112 219.817 114.451 220.148 114.698C220.484 114.945 220.893 115.069 221.373 115.069ZM231.388 109.469V113.088V113.494C231.388 113.732 231.397 113.923 231.416 114.068C231.434 114.213 231.476 114.339 231.542 114.446C231.654 114.647 231.812 114.791 232.018 114.88C232.228 114.969 232.484 115.013 232.788 115.013C233.007 115.013 233.301 114.985 233.67 114.929V116C233.282 116.079 232.909 116.119 232.55 116.119C232.05 116.119 231.612 116.037 231.234 115.874C230.86 115.706 230.583 115.445 230.401 115.09C230.293 114.88 230.223 114.665 230.191 114.446C230.158 114.227 230.142 113.954 230.142 113.627V113.144V109.469H228.609V108.44H230.142V106.34H231.388V108.44H233.67V109.469H231.388ZM238.838 108.244C239.594 108.244 240.196 108.431 240.644 108.804C241.092 109.177 241.404 109.635 241.582 110.176C241.759 110.713 241.848 111.261 241.848 111.821V116H240.588V112.213C240.588 111.401 240.429 110.734 240.112 110.211C239.799 109.688 239.274 109.427 238.537 109.427C237.893 109.427 237.384 109.646 237.011 110.085C236.642 110.519 236.458 111.163 236.458 112.017V116H235.198V105.92H236.318V109.413C236.602 109.035 236.957 108.746 237.382 108.545C237.811 108.344 238.296 108.244 238.838 108.244ZM244.585 112.57C244.636 113.359 244.858 113.965 245.25 114.39C245.646 114.815 246.192 115.027 246.888 115.027C247.382 115.027 247.814 114.913 248.183 114.684C248.556 114.455 248.848 114.126 249.058 113.697L250.255 114.11C249.961 114.773 249.52 115.288 248.932 115.657C248.344 116.026 247.681 116.21 246.944 116.21C246.206 116.21 245.558 116.047 244.998 115.72C244.442 115.393 244.011 114.931 243.703 114.334C243.399 113.737 243.248 113.048 243.248 112.269C243.248 111.452 243.397 110.741 243.696 110.134C243.999 109.523 244.424 109.054 244.97 108.727C245.52 108.396 246.16 108.23 246.888 108.23C247.611 108.23 248.234 108.393 248.757 108.72C249.284 109.042 249.688 109.506 249.968 110.113C250.248 110.715 250.388 111.431 250.388 112.262C250.388 112.397 250.385 112.5 250.381 112.57H244.585ZM246.93 109.35C246.253 109.35 245.719 109.539 245.327 109.917C244.935 110.295 244.694 110.846 244.606 111.569H249.086C248.932 110.09 248.213 109.35 246.93 109.35ZM258.221 108.23C258.907 108.23 259.504 108.403 260.013 108.748C260.526 109.093 260.918 109.569 261.189 110.176C261.464 110.778 261.602 111.457 261.602 112.213C261.602 112.974 261.464 113.657 261.189 114.264C260.918 114.866 260.526 115.342 260.013 115.692C259.504 116.037 258.904 116.21 258.214 116.21C257.714 116.21 257.266 116.119 256.87 115.937C256.473 115.75 256.132 115.487 255.848 115.146V116H254.735V105.92H255.988V109.126C256.263 108.837 256.587 108.615 256.961 108.461C257.339 108.307 257.759 108.23 258.221 108.23ZM258.06 115.069C258.54 115.069 258.946 114.945 259.278 114.698C259.614 114.451 259.863 114.112 260.027 113.683C260.195 113.254 260.279 112.764 260.279 112.213C260.279 111.667 260.195 111.182 260.027 110.757C259.863 110.328 259.611 109.989 259.271 109.742C258.935 109.495 258.519 109.371 258.025 109.371C257.311 109.371 256.769 109.628 256.401 110.141C256.032 110.654 255.848 111.345 255.848 112.213C255.848 113.081 256.032 113.774 256.401 114.292C256.774 114.81 257.327 115.069 258.06 115.069ZM264.053 112.57C264.105 113.359 264.326 113.965 264.718 114.39C265.115 114.815 265.661 115.027 266.356 115.027C266.851 115.027 267.283 114.913 267.651 114.684C268.025 114.455 268.316 114.126 268.526 113.697L269.723 114.11C269.429 114.773 268.988 115.288 268.4 115.657C267.812 116.026 267.15 116.21 266.412 116.21C265.675 116.21 265.026 116.047 264.466 115.72C263.911 115.393 263.479 114.931 263.171 114.334C262.868 113.737 262.716 113.048 262.716 112.269C262.716 111.452 262.866 110.741 263.164 110.134C263.468 109.523 263.892 109.054 264.438 108.727C264.989 108.396 265.628 108.23 266.356 108.23C267.08 108.23 267.703 108.393 268.225 108.72C268.753 109.042 269.156 109.506 269.436 110.113C269.716 110.715 269.856 111.431 269.856 112.262C269.856 112.397 269.854 112.5 269.849 112.57H264.053ZM266.398 109.35C265.722 109.35 265.187 109.539 264.795 109.917C264.403 110.295 264.163 110.846 264.074 111.569H268.554C268.4 110.09 267.682 109.35 266.398 109.35ZM274.836 108.244C275.592 108.244 276.194 108.431 276.642 108.804C277.09 109.177 277.402 109.635 277.58 110.176C277.757 110.713 277.846 111.261 277.846 111.821V116H276.586V112.213C276.586 111.401 276.427 110.734 276.11 110.211C275.797 109.688 275.272 109.427 274.535 109.427C273.891 109.427 273.382 109.646 273.009 110.085C272.64 110.519 272.456 111.163 272.456 112.017V116H271.196V108.44H272.316V109.413C272.6 109.035 272.955 108.746 273.38 108.545C273.809 108.344 274.294 108.244 274.836 108.244ZM280.514 112.57C280.566 113.359 280.787 113.965 281.179 114.39C281.576 114.815 282.122 115.027 282.817 115.027C283.312 115.027 283.744 114.913 284.112 114.684C284.486 114.455 284.777 114.126 284.987 113.697L286.184 114.11C285.89 114.773 285.449 115.288 284.861 115.657C284.273 116.026 283.611 116.21 282.873 116.21C282.136 116.21 281.487 116.047 280.927 115.72C280.372 115.393 279.94 114.931 279.632 114.334C279.329 113.737 279.177 113.048 279.177 112.269C279.177 111.452 279.327 110.741 279.625 110.134C279.929 109.523 280.353 109.054 280.899 108.727C281.45 108.396 282.089 108.23 282.817 108.23C283.541 108.23 284.164 108.393 284.686 108.72C285.214 109.042 285.617 109.506 285.897 110.113C286.177 110.715 286.317 111.431 286.317 112.262C286.317 112.397 286.315 112.5 286.31 112.57H280.514ZM282.859 109.35C282.183 109.35 281.648 109.539 281.256 109.917C280.864 110.295 280.624 110.846 280.535 111.569H285.015C284.861 110.09 284.143 109.35 282.859 109.35ZM290.935 106.746C290.202 106.746 289.836 107.108 289.836 107.831V108.44H291.824V109.469H289.836V116H288.59V109.469H287.309V108.44H288.59V108.027C288.59 107.649 288.618 107.322 288.674 107.047C288.734 106.767 288.865 106.517 289.066 106.298C289.294 106.046 289.553 105.885 289.843 105.815C290.132 105.745 290.473 105.71 290.865 105.71H291.824V106.746H290.935ZM294.532 107.103H293.286V105.815H294.532V107.103ZM294.532 116H293.286V108.44H294.532V116ZM298.571 109.469V113.088V113.494C298.571 113.732 298.581 113.923 298.599 114.068C298.618 114.213 298.66 114.339 298.725 114.446C298.837 114.647 298.996 114.791 299.201 114.88C299.411 114.969 299.668 115.013 299.971 115.013C300.191 115.013 300.485 114.985 300.853 114.929V116C300.466 116.079 300.093 116.119 299.733 116.119C299.234 116.119 298.795 116.037 298.417 115.874C298.044 115.706 297.766 115.445 297.584 115.09C297.477 114.88 297.407 114.665 297.374 114.446C297.342 114.227 297.325 113.954 297.325 113.627V113.144V109.469H295.792V108.44H297.325V106.34H298.571V108.44H300.853V109.469H298.571ZM305.244 116.203C304.647 116.203 304.117 116.114 303.655 115.937C303.193 115.76 302.818 115.503 302.528 115.167C302.239 114.831 302.052 114.427 301.968 113.956L303.242 113.753C303.345 114.168 303.581 114.495 303.949 114.733C304.318 114.971 304.775 115.09 305.321 115.09C305.835 115.09 306.238 114.985 306.532 114.775C306.831 114.56 306.98 114.266 306.98 113.893C306.98 113.669 306.929 113.494 306.826 113.368C306.728 113.242 306.535 113.123 306.245 113.011C305.956 112.894 305.489 112.75 304.845 112.577C304.169 112.395 303.641 112.211 303.263 112.024C302.885 111.833 302.615 111.613 302.451 111.366C302.288 111.119 302.206 110.811 302.206 110.442C302.206 110.003 302.328 109.618 302.57 109.287C302.813 108.951 303.154 108.692 303.592 108.51C304.031 108.323 304.537 108.23 305.111 108.23C305.681 108.23 306.192 108.323 306.644 108.51C307.102 108.692 307.468 108.951 307.743 109.287C308.023 109.618 308.189 110.003 308.24 110.442L306.966 110.673C306.906 110.262 306.7 109.938 306.35 109.7C306.005 109.462 305.562 109.343 305.02 109.343C304.712 109.343 304.439 109.387 304.201 109.476C303.968 109.56 303.786 109.681 303.655 109.84C303.525 109.994 303.459 110.174 303.459 110.379C303.459 110.57 303.515 110.729 303.627 110.855C303.744 110.981 303.954 111.102 304.257 111.219C304.561 111.331 305.016 111.464 305.622 111.618C306.299 111.791 306.826 111.975 307.204 112.171C307.582 112.367 307.853 112.598 308.016 112.864C308.184 113.13 308.268 113.461 308.268 113.858C308.268 114.343 308.147 114.763 307.904 115.118C307.662 115.468 307.314 115.736 306.861 115.923C306.409 116.11 305.87 116.203 305.244 116.203ZM315.835 116.21C315.093 116.21 314.446 116.042 313.896 115.706C313.35 115.365 312.93 114.894 312.636 114.292C312.342 113.685 312.195 112.992 312.195 112.213C312.195 111.429 312.344 110.736 312.643 110.134C312.941 109.532 313.366 109.065 313.917 108.734C314.467 108.398 315.107 108.23 315.835 108.23C316.577 108.23 317.223 108.398 317.774 108.734C318.324 109.07 318.747 109.539 319.041 110.141C319.335 110.743 319.482 111.434 319.482 112.213C319.482 113.002 319.332 113.699 319.034 114.306C318.74 114.908 318.317 115.377 317.767 115.713C317.216 116.044 316.572 116.21 315.835 116.21ZM315.835 115.027C316.595 115.027 317.172 114.775 317.564 114.271C317.96 113.762 318.159 113.076 318.159 112.213C318.159 111.34 317.96 110.657 317.564 110.162C317.167 109.663 316.591 109.413 315.835 109.413C315.069 109.413 314.491 109.665 314.099 110.169C313.711 110.673 313.518 111.354 313.518 112.213C313.518 113.086 313.716 113.774 314.113 114.278C314.514 114.777 315.088 115.027 315.835 115.027ZM324.089 106.746C323.356 106.746 322.99 107.108 322.99 107.831V108.44H324.978V109.469H322.99V116H321.744V109.469H320.463V108.44H321.744V108.027C321.744 107.649 321.772 107.322 321.828 107.047C321.889 106.767 322.019 106.517 322.22 106.298C322.449 106.046 322.708 105.885 322.997 105.815C323.286 105.745 323.627 105.71 324.019 105.71H324.978V106.746H324.089ZM331.754 116.203C331.157 116.203 330.627 116.114 330.165 115.937C329.703 115.76 329.327 115.503 329.038 115.167C328.749 114.831 328.562 114.427 328.478 113.956L329.752 113.753C329.855 114.168 330.09 114.495 330.459 114.733C330.828 114.971 331.285 115.09 331.831 115.09C332.344 115.09 332.748 114.985 333.042 114.775C333.341 114.56 333.49 114.266 333.49 113.893C333.49 113.669 333.439 113.494 333.336 113.368C333.238 113.242 333.044 113.123 332.755 113.011C332.466 112.894 331.999 112.75 331.355 112.577C330.678 112.395 330.151 112.211 329.773 112.024C329.395 111.833 329.124 111.613 328.961 111.366C328.798 111.119 328.716 110.811 328.716 110.442C328.716 110.003 328.837 109.618 329.08 109.287C329.323 108.951 329.663 108.692 330.102 108.51C330.541 108.323 331.047 108.23 331.621 108.23C332.19 108.23 332.701 108.323 333.154 108.51C333.611 108.692 333.978 108.951 334.253 109.287C334.533 109.618 334.699 110.003 334.75 110.442L333.476 110.673C333.415 110.262 333.21 109.938 332.86 109.7C332.515 109.462 332.071 109.343 331.53 109.343C331.222 109.343 330.949 109.387 330.711 109.476C330.478 109.56 330.296 109.681 330.165 109.84C330.034 109.994 329.969 110.174 329.969 110.379C329.969 110.57 330.025 110.729 330.137 110.855C330.254 110.981 330.464 111.102 330.767 111.219C331.07 111.331 331.525 111.464 332.132 111.618C332.809 111.791 333.336 111.975 333.714 112.171C334.092 112.367 334.363 112.598 334.526 112.864C334.694 113.13 334.778 113.461 334.778 113.858C334.778 114.343 334.657 114.763 334.414 115.118C334.171 115.468 333.824 115.736 333.371 115.923C332.918 116.11 332.379 116.203 331.754 116.203ZM338.261 109.469V113.088V113.494C338.261 113.732 338.27 113.923 338.289 114.068C338.307 114.213 338.349 114.339 338.415 114.446C338.527 114.647 338.685 114.791 338.891 114.88C339.101 114.969 339.357 115.013 339.661 115.013C339.88 115.013 340.174 114.985 340.543 114.929V116C340.155 116.079 339.782 116.119 339.423 116.119C338.923 116.119 338.485 116.037 338.107 115.874C337.733 115.706 337.456 115.445 337.274 115.09C337.166 114.88 337.096 114.665 337.064 114.446C337.031 114.227 337.015 113.954 337.015 113.627V113.144V109.469H335.482V108.44H337.015V106.34H338.261V108.44H340.543V109.469H338.261ZM347.888 109.707C347.986 109.922 348.051 110.16 348.084 110.421C348.116 110.678 348.133 110.979 348.133 111.324V116H347.027V114.824C346.425 115.748 345.491 116.21 344.227 116.21C343.681 116.21 343.214 116.11 342.827 115.909C342.439 115.704 342.148 115.431 341.952 115.09C341.756 114.749 341.658 114.371 341.658 113.956C341.658 112.841 342.276 112.101 343.513 111.737C343.877 111.639 344.294 111.553 344.766 111.478C345.237 111.403 345.802 111.322 346.46 111.233L346.908 111.17C346.889 110.559 346.735 110.111 346.446 109.826C346.156 109.537 345.69 109.392 345.046 109.392C344.57 109.392 344.161 109.502 343.821 109.721C343.485 109.936 343.251 110.267 343.121 110.715L341.938 110.358C342.12 109.681 342.474 109.159 343.002 108.79C343.534 108.417 344.22 108.23 345.06 108.23C345.755 108.23 346.345 108.356 346.831 108.608C347.321 108.855 347.673 109.222 347.888 109.707ZM344.416 115.167C344.85 115.167 345.232 115.09 345.564 114.936C345.895 114.777 346.163 114.567 346.369 114.306C346.574 114.04 346.707 113.746 346.768 113.424C346.814 113.265 346.845 113.088 346.859 112.892C346.877 112.696 346.889 112.477 346.894 112.234L346.551 112.276C345.893 112.365 345.386 112.437 345.032 112.493C344.682 112.549 344.362 112.619 344.073 112.703C343.713 112.815 343.426 112.969 343.212 113.165C343.002 113.361 342.897 113.622 342.897 113.949C342.897 114.168 342.95 114.371 343.058 114.558C343.165 114.74 343.333 114.887 343.562 114.999C343.79 115.111 344.075 115.167 344.416 115.167ZM351.213 116H349.946L349.953 105.92H351.213V112.08L354.384 108.44H356.001L352.662 112.22L356.393 116H354.65L351.213 112.36V116ZM358.475 107.103H357.229V105.815H358.475V107.103ZM358.475 116H357.229V108.44H358.475V116ZM364.209 108.244C364.965 108.244 365.567 108.431 366.015 108.804C366.463 109.177 366.775 109.635 366.953 110.176C367.13 110.713 367.219 111.261 367.219 111.821V116H365.959V112.213C365.959 111.401 365.8 110.734 365.483 110.211C365.17 109.688 364.645 109.427 363.908 109.427C363.264 109.427 362.755 109.646 362.382 110.085C362.013 110.519 361.829 111.163 361.829 112.017V116H360.569V108.44H361.689V109.413C361.973 109.035 362.328 108.746 362.753 108.545C363.182 108.344 363.667 108.244 364.209 108.244ZM374.373 108.44H375.479V116.049C375.479 116.502 375.448 116.889 375.388 117.211C375.243 118 374.888 118.59 374.324 118.982C373.759 119.374 373.017 119.57 372.098 119.57C371.477 119.57 370.898 119.428 370.362 119.143C369.83 118.863 369.412 118.452 369.109 117.911L370.25 117.309C370.427 117.664 370.681 117.927 371.013 118.1C371.349 118.277 371.713 118.366 372.105 118.366C373.533 118.366 374.24 117.589 374.226 116.035V115.307C373.95 115.596 373.626 115.82 373.253 115.979C372.879 116.133 372.464 116.21 372.007 116.21C371.316 116.21 370.714 116.037 370.201 115.692C369.692 115.342 369.3 114.866 369.025 114.264C368.754 113.657 368.619 112.974 368.619 112.213C368.619 111.457 368.754 110.778 369.025 110.176C369.3 109.569 369.692 109.093 370.201 108.748C370.714 108.403 371.314 108.23 372 108.23C372.504 108.23 372.954 108.321 373.351 108.503C373.747 108.685 374.088 108.946 374.373 109.287V108.44ZM372.161 115.069C372.893 115.069 373.444 114.81 373.813 114.292C374.186 113.774 374.373 113.081 374.373 112.213C374.373 111.345 374.188 110.654 373.82 110.141C373.451 109.628 372.91 109.371 372.196 109.371C371.701 109.371 371.283 109.495 370.943 109.742C370.607 109.989 370.355 110.328 370.187 110.757C370.023 111.182 369.942 111.667 369.942 112.213C369.942 112.764 370.023 113.254 370.187 113.683C370.355 114.112 370.604 114.451 370.936 114.698C371.272 114.945 371.68 115.069 372.161 115.069ZM382.882 116H381.846L379.536 108.433L380.775 108.44L382.462 113.97L384.163 108.44H385.262L386.956 113.97L388.65 108.44H389.882L387.572 116H386.536L384.709 110.253L382.882 116ZM392.532 107.103H391.286V105.815H392.532V107.103ZM392.532 116H391.286V108.44H392.532V116ZM396.571 109.469V113.088V113.494C396.571 113.732 396.581 113.923 396.599 114.068C396.618 114.213 396.66 114.339 396.725 114.446C396.837 114.647 396.996 114.791 397.201 114.88C397.411 114.969 397.668 115.013 397.971 115.013C398.191 115.013 398.485 114.985 398.853 114.929V116C398.466 116.079 398.093 116.119 397.733 116.119C397.234 116.119 396.795 116.037 396.417 115.874C396.044 115.706 395.766 115.445 395.584 115.09C395.477 114.88 395.407 114.665 395.374 114.446C395.342 114.227 395.325 113.954 395.325 113.627V113.144V109.469H393.792V108.44H395.325V106.34H396.571V108.44H398.853V109.469H396.571ZM404.021 108.244C404.777 108.244 405.379 108.431 405.827 108.804C406.275 109.177 406.588 109.635 406.765 110.176C406.943 110.713 407.031 111.261 407.031 111.821V116H405.771V112.213C405.771 111.401 405.613 110.734 405.295 110.211C404.983 109.688 404.458 109.427 403.72 109.427C403.076 109.427 402.568 109.646 402.194 110.085C401.826 110.519 401.641 111.163 401.641 112.017V116H400.381V105.92H401.501V109.413C401.786 109.035 402.141 108.746 402.565 108.545C402.995 108.344 403.48 108.244 404.021 108.244ZM417.716 116H411.794V105.92H413.04V114.817H417.716V116ZM420.286 107.103H419.04V105.815H420.286V107.103ZM420.286 116H419.04V108.44H420.286V116ZM427.58 105.92H428.833V116H427.72V115.146C427.436 115.487 427.095 115.75 426.698 115.937C426.302 116.119 425.854 116.21 425.354 116.21C424.664 116.21 424.062 116.037 423.548 115.692C423.04 115.342 422.648 114.866 422.372 114.264C422.102 113.657 421.966 112.974 421.966 112.213C421.966 111.457 422.102 110.778 422.372 110.176C422.648 109.569 423.04 109.093 423.548 108.748C424.062 108.403 424.661 108.23 425.347 108.23C425.809 108.23 426.227 108.307 426.6 108.461C426.978 108.615 427.305 108.837 427.58 109.126V105.92ZM425.508 115.069C426.241 115.069 426.792 114.81 427.16 114.292C427.534 113.774 427.72 113.081 427.72 112.213C427.72 111.345 427.536 110.654 427.167 110.141C426.799 109.628 426.257 109.371 425.543 109.371C425.049 109.371 424.631 109.495 424.29 109.742C423.954 109.989 423.702 110.328 423.534 110.757C423.371 111.182 423.289 111.667 423.289 112.213C423.289 112.764 423.371 113.254 423.534 113.683C423.702 114.112 423.952 114.451 424.283 114.698C424.619 114.945 425.028 115.069 425.508 115.069ZM434.014 116.21C433.272 116.21 432.626 116.042 432.075 115.706C431.529 115.365 431.109 114.894 430.815 114.292C430.521 113.685 430.374 112.992 430.374 112.213C430.374 111.429 430.524 110.736 430.822 110.134C431.121 109.532 431.546 109.065 432.096 108.734C432.647 108.398 433.286 108.23 434.014 108.23C434.756 108.23 435.403 108.398 435.953 108.734C436.504 109.07 436.926 109.539 437.22 110.141C437.514 110.743 437.661 111.434 437.661 112.213C437.661 113.002 437.512 113.699 437.213 114.306C436.919 114.908 436.497 115.377 435.946 115.713C435.396 116.044 434.752 116.21 434.014 116.21ZM434.014 115.027C434.775 115.027 435.351 114.775 435.743 114.271C436.14 113.762 436.338 113.076 436.338 112.213C436.338 111.34 436.14 110.657 435.743 110.162C435.347 109.663 434.77 109.413 434.014 109.413C433.249 109.413 432.67 109.665 432.278 110.169C431.891 110.673 431.697 111.354 431.697 112.213C431.697 113.086 431.896 113.774 432.292 114.278C432.694 114.777 433.268 115.027 434.014 115.027ZM440.525 116H439.153V114.628H440.525V116Z" fill="#7A8AA0"/>
<defs>
<filter id="filter0_d" x="0" y="0" width="588" height="176" filterUnits="userSpaceOnUse" color-interpolation-filters="sRGB">
<feFlood flood-opacity="0" result="BackgroundImageFix"/>
<feColorMatrix in="SourceAlpha" type="matrix" values="0 0 0 0 0 0 0 0 0 0 0 0 0 0 0 0 0 0 127 0" result="hardAlpha"/>
<feOffset dy="6"/>
<feGaussianBlur stdDeviation="8"/>
<feColorMatrix type="matrix" values="0 0 0 0 0 0 0 0 0 0 0 0 0 0 0 0 0 0 0.1 0"/>
<feBlend mode="normal" in2="BackgroundImageFix" result="effect1_dropShadow"/>
<feBlend mode="normal" in="SourceGraphic" in2="effect1_dropShadow" result="shape"/>
</filter>
<radialGradient id="paint0_radial" cx="0" cy="0" r="1" gradientUnits="userSpaceOnUse" gradientTransform="translate(87.9778 117.017) rotate(-90) scale(33.2755 43.4893)">
<stop offset="0.203695" stop-color="#56F2FF"/>
<stop offset="1" stop-color="#4A8CEA"/>
</radialGradient>
<radialGradient id="paint1_radial" cx="0" cy="0" r="1" gradientUnits="userSpaceOnUse" gradientTransform="translate(88.0177 74.1108) rotate(90.1607) scale(10.0737 19.0718)">
<stop stop-color="#EEFF83"/>
<stop offset="0.689596" stop-color="#5699EC"/>
</radialGradient>
<radialGradient id="paint2_diamond" cx="0" cy="0" r="1" gradientUnits="userSpaceOnUse" gradientTransform="translate(88.0096 78.4151) rotate(90.16) scale(11.7368 22.1303)">
<stop stop-color="#56F2FF"/>
<stop offset="1" stop-color="#5699EC"/>
</radialGradient>
<linearGradient id="paint3_linear" x1="79.1859" y1="47.0176" x2="79.1859" y2="84.2159" gradientUnits="userSpaceOnUse">
<stop offset="0.377179" stop-color="#FFE336"/>
<stop offset="1" stop-color="#13C0B6" stop-opacity="0.7"/>
</linearGradient>
<linearGradient id="paint4_linear" x1="96.8605" y1="47" x2="96.8605" y2="84.2135" gradientUnits="userSpaceOnUse">
<stop offset="0.408817" stop-color="#FF7F72"/>
<stop offset="1" stop-color="#2978EF" stop-opacity="0.7"/>
</linearGradient>
</defs>
</svg>
